<svg xmlns="http://www.w3.org/2000/svg" xmlns:xlink="http://www.w3.org/1999/xlink" width="500" zoomAndPan="magnify" viewBox="0 0 375 374.999991" height="500" preserveAspectRatio="xMidYMid meet" version="1.0"><defs><g/></defs><g fill="#231f19" fill-opacity="1"><g transform="translate(-4.652932, 294.961538)"><g><path d="M 72.21875 -33.640625 L 148.40625 -33.640625 C 174.789062 -33.640625 195.4375 -43.765625 210.34375 -64.015625 C 225.25 -84.265625 232.703125 -111.929688 232.703125 -147.015625 C 232.703125 -181.710938 225.179688 -208.691406 210.140625 -227.953125 C 195.109375 -247.210938 173.410156 -256.972656 145.046875 -257.234375 L 72.21875 -257.234375 Z M 32.84375 -290.875 L 150.78125 -290.875 C 188.90625 -290.875 218.75 -277.78125 240.3125 -251.59375 C 261.882812 -225.414062 272.671875 -191.414062 272.671875 -149.59375 C 272.671875 -104.738281 261.882812 -68.59375 240.3125 -41.15625 C 218.75 -13.71875 188.378906 0 149.203125 0 L 32.84375 0 Z M 32.84375 -290.875 "/></g></g></g><g fill="#231f19" fill-opacity="1"><g transform="translate(69.43842, 362.494661)"><g><path d="M 72.21875 -33.640625 L 148.40625 -33.640625 C 174.789062 -33.640625 195.4375 -43.765625 210.34375 -64.015625 C 225.25 -84.265625 232.703125 -111.929688 232.703125 -147.015625 C 232.703125 -181.710938 225.179688 -208.691406 210.140625 -227.953125 C 195.109375 -247.210938 173.410156 -256.972656 145.046875 -257.234375 L 72.21875 -257.234375 Z M 32.84375 -290.875 L 150.78125 -290.875 C 188.90625 -290.875 218.75 -277.78125 240.3125 -251.59375 C 261.882812 -225.414062 272.671875 -191.414062 272.671875 -149.59375 C 272.671875 -104.738281 261.882812 -68.59375 240.3125 -41.15625 C 218.75 -13.71875 188.378906 0 149.203125 0 L 32.84375 0 Z M 32.84375 -290.875 "/></g></g></g><path stroke-linecap="butt" transform="matrix(5.412254, 4.4538, -4.4538, 5.412254, 58.560994, 17.692129)" fill="none" stroke-linejoin="miter" d="M -0.0000882081 2.500053 L 17.340393 2.499947 " stroke="#231f19" stroke-width="5" stroke-opacity="1" stroke-miterlimit="4"/><path stroke-linecap="butt" transform="matrix(5.163816, 4.739602, -4.739602, 5.163816, 51.92103, 274.825792)" fill="none" stroke-linejoin="miter" d="M -0.000272356 2.500065 L 14.225011 2.500005 " stroke="#231f19" stroke-width="5" stroke-opacity="1" stroke-miterlimit="4"/></svg>