<svg width="693" height="564" xmlns="http://www.w3.org/2000/svg" xmlns:xlink="http://www.w3.org/1999/xlink" xml:space="preserve" overflow="hidden"><g transform="translate(-462 -462)"><g><path d="M493 575.836C493 562.119 504.119 551 517.836 551L1128.16 551C1141.88 551 1153 562.119 1153 575.836L1153 592.164C1153 605.881 1141.88 617 1128.16 617L517.836 617C504.119 617 493 605.881 493 592.164Z" fill="#EF4444" fill-rule="evenodd" fill-opacity="1"/><path d="M569 677.836C569 664.119 580.119 653 593.835 653L1051.16 653C1064.88 653 1076 664.119 1076 677.836L1076 694.165C1076 707.881 1064.88 719 1051.16 719L593.835 719C580.119 719 569 707.881 569 694.165Z" fill="#EF4444" fill-rule="evenodd" fill-opacity="1"/><path d="M638 779.836C638 766.119 649.119 755 662.836 755L1012.16 755C1025.88 755 1037 766.119 1037 779.836L1037 796.164C1037 809.88 1025.88 821 1012.16 821L662.836 821C649.119 821 638 809.88 638 796.164Z" fill="#EF4444" fill-rule="evenodd" fill-opacity="1"/><path d="M786 882.459C786 868.951 796.951 858 810.459 858L1045.54 858C1059.05 858 1070 868.951 1070 882.459L1070 898.541C1070 912.049 1059.05 923 1045.54 923L810.459 923C796.951 923 786 912.049 786 898.541Z" fill="#EF4444" fill-rule="evenodd" fill-opacity="1"/><path d="M900 984.46C900 970.951 910.951 960 924.459 960L1107.54 960C1121.05 960 1132 970.951 1132 984.46L1132 1000.54C1132 1014.05 1121.05 1025 1107.54 1025L924.459 1025C910.951 1025 900 1014.05 900 1000.54Z" fill="#EF4444" fill-rule="evenodd" fill-opacity="1"/><text fill="#EF4444" fill-opacity="1" font-family="JetBrains Mono,JetBrains Mono_MSFontService,sans-serif" font-style="normal" font-variant="normal" font-weight="700" font-stretch="normal" font-size="41" text-anchor="start" direction="ltr" writing-mode="lr-tb" unicode-bidi="normal" text-decoration="none" transform="matrix(1 0 0 1 498.424 521)">&gt;Cool </text><text fill="#EF4444" fill-opacity="1" font-family="JetBrains Mono,JetBrains Mono_MSFontService,sans-serif" font-style="normal" font-variant="normal" font-weight="700" font-stretch="normal" font-size="41" text-anchor="start" direction="ltr" writing-mode="lr-tb" unicode-bidi="normal" text-decoration="none" transform="matrix(1 0 0 1 646.237 521)">g</text><text fill="#EF4444" fill-opacity="1" font-family="JetBrains Mono,JetBrains Mono_MSFontService,sans-serif" font-style="normal" font-variant="normal" font-weight="700" font-stretch="normal" font-size="41" text-anchor="start" direction="ltr" writing-mode="lr-tb" unicode-bidi="normal" text-decoration="none" transform="matrix(1 0 0 1 670.872 521)">ene</text></g></g></svg>