<svg xmlns="http://www.w3.org/2000/svg" xmlns:xlink="http://www.w3.org/1999/xlink" width="500" zoomAndPan="magnify" viewBox="0 0 375 374.999991" height="500" preserveAspectRatio="xMidYMid meet" version="1.0"><defs><clipPath id="7fcdcac4d5"><path d="M 51.109375 0 L 303 0 L 303 375 L 51.109375 375 Z M 51.109375 0 " clip-rule="nonzero"/></clipPath></defs><path fill="#000000" d="M 132.9375 143.058594 C 133.097656 143.097656 133.257812 143.113281 133.417969 143.113281 C 134.425781 143.113281 135.328125 142.421875 135.5625 141.398438 C 140.394531 119.925781 148 98.996094 158.160156 79.199219 C 158.710938 78.121094 158.285156 76.796875 157.207031 76.242188 C 156.125 75.675781 154.804688 76.113281 154.25 77.191406 C 143.921875 97.320312 136.191406 118.597656 131.277344 140.433594 C 131.011719 141.617188 131.753906 142.792969 132.9375 143.058594 Z M 132.9375 143.058594 " fill-opacity="1" fill-rule="nonzero"/><path fill="#000000" d="M 271.425781 42.398438 C 271.976562 41.542969 271.621094 40.339844 270.886719 39.636719 C 270.152344 38.933594 269.136719 38.613281 268.15625 38.347656 C 258.914062 35.84375 249.195312 35.925781 239.617188 36.027344 C 238.152344 36.042969 235.746094 36.113281 234.878906 37.554688 C 234.03125 38.957031 234.875 41.164062 236.019531 42.117188 C 237.519531 43.363281 239.585938 43.617188 241.527344 43.777344 C 250.597656 44.542969 259.738281 44.453125 268.792969 43.523438 C 269.773438 43.417969 270.890625 43.230469 271.425781 42.398438 Z M 271.425781 42.398438 " fill-opacity="1" fill-rule="nonzero"/><path fill="#000000" d="M 236 51.519531 C 234.929688 52.09375 234.636719 53.816406 235.007812 54.855469 C 236.332031 58.574219 251.71875 66.449219 255.328125 68.113281 C 255.992188 68.421875 256.773438 68.722656 257.425781 68.394531 C 258.101562 68.058594 258.324219 67.15625 258.125 66.433594 C 257.921875 65.707031 257.398438 65.125 256.871094 64.585938 C 251.9375 59.5 245.722656 55.886719 239.589844 52.335938 C 238.652344 51.792969 237.097656 50.933594 236 51.519531 Z M 236 51.519531 " fill-opacity="1" fill-rule="nonzero"/><path fill="#000000" d="M 252.148438 11.183594 C 251.433594 11.09375 250.71875 11.347656 250.046875 11.613281 C 243.722656 14.132812 238.226562 18.328125 232.820312 22.46875 C 231.996094 23.105469 230.65625 24.171875 230.773438 25.363281 C 230.890625 26.523438 232.3125 27.417969 233.371094 27.472656 C 237.167969 27.660156 249.824219 16.863281 252.613281 14.285156 C 253.128906 13.808594 253.683594 13.226562 253.632812 12.523438 C 253.582031 11.800781 252.867188 11.269531 252.148438 11.183594 Z M 252.148438 11.183594 " fill-opacity="1" fill-rule="nonzero"/><g clip-path="url(#7fcdcac4d5)"><path fill="#000000" d="M 197.402344 222.628906 L 163.296875 211.390625 C 158.230469 201.71875 141.765625 200.128906 130.855469 200.652344 C 127.132812 199.597656 125.707031 198.597656 124.363281 199.371094 L 94.402344 209.253906 C 91.722656 209.328125 88.285156 209.304688 87.066406 211.585938 C 87.046875 211.621094 87.046875 211.652344 87.03125 211.6875 L 53.855469 222.632812 C 52.582031 223.058594 51.675781 224.078125 51.351562 225.300781 L 51.332031 225.300781 L 51.332031 225.425781 C 51.160156 226.1875 51.253906 224.285156 51.332031 234.386719 C 51.332031 236.144531 52.5625 237.726562 54.320312 238.253906 L 117.507812 257.515625 C 122.867188 266.039062 131.246094 273.558594 146.46875 279.035156 L 140.824219 299.519531 C 124.1875 302.382812 99.761719 310.660156 78.101562 318.023438 C 75.671875 318.832031 74.476562 321.484375 75.808594 323.875 L 75.808594 336.339844 C 75.808594 338.859375 77.449219 341.140625 80.023438 342.199219 C 113.984375 355.441406 150.519531 366.160156 189.101562 374.832031 C 190.273438 375.070312 191.5625 375.070312 192.734375 374.777344 C 230.378906 365.695312 265.746094 354.386719 298.882812 340.734375 C 301.402344 339.738281 302.980469 337.453125 302.980469 334.933594 C 302.96875 334.34375 302.679688 319.457031 302.71875 321.398438 C 302.71875 321.394531 302.71875 321.394531 302.71875 321.394531 C 302.71875 319.65625 301.71875 318.179688 300.171875 317.566406 C 284.269531 310.597656 263.621094 304.699219 237.148438 299.539062 L 233.296875 285.296875 C 239.980469 282.25 244.636719 275.914062 244.636719 268.539062 C 244.636719 262.144531 241.160156 256.503906 235.886719 253.125 C 260.890625 225.121094 273.613281 191.714844 270.800781 161.0625 C 270.691406 159.859375 269.75 158.980469 268.417969 159.074219 C 267.210938 159.183594 266.316406 160.253906 266.433594 161.460938 C 269.164062 191.246094 256.53125 223.847656 231.78125 251.136719 C 229.519531 250.316406 227.082031 249.824219 224.507812 249.824219 C 224.242188 249.824219 223.992188 249.890625 223.722656 249.898438 C 220.503906 238.476562 220.910156 238.179688 219.640625 236.265625 C 220 236.011719 220.257812 235.828125 220.261719 235.828125 C 221.558594 234.90625 231.335938 223.761719 237.160156 213.054688 C 249.109375 191.078125 249.066406 168.457031 237.035156 145.226562 C 236.984375 145.136719 236.929688 145 236.867188 144.863281 C 244.699219 141.054688 251 132.515625 251.382812 121.421875 C 256.582031 127.984375 260.632812 135.417969 263.375 143.671875 C 263.675781 144.59375 264.535156 145.175781 265.453125 145.175781 C 265.683594 145.175781 265.917969 145.140625 266.148438 145.066406 C 267.296875 144.683594 267.917969 143.441406 267.535156 142.285156 C 263.921875 131.375 258.1875 121.757812 250.527344 113.667969 C 247.628906 102.574219 238.824219 96.429688 229.007812 97.402344 C 228.230469 96.953125 206.640625 88.382812 206.050781 88.144531 C 206.652344 85.785156 207.238281 83.441406 207.738281 81.261719 C 209.308594 76.886719 207.738281 71.839844 203.089844 69.03125 C 209.128906 57.929688 213.425781 45.726562 216.082031 31.710938 C 216.511719 29.460938 215.277344 27.191406 213.078125 26.195312 C 211.792969 25.609375 210.449219 25.109375 209.140625 24.558594 L 215.085938 8.628906 C 215.394531 7.804688 215 6.871094 214.152344 6.476562 C 206.726562 3.019531 198.699219 0.882812 190.085938 0.0078125 C 189.222656 -0.0820312 188.382812 0.398438 188.082031 1.148438 L 181.9375 16.269531 C 180.125 15.902344 178.335938 15.496094 176.496094 15.191406 C 174.277344 14.804688 171.957031 15.828125 170.882812 17.695312 C 164.71875 28.042969 159.765625 40.175781 155.707031 54.617188 C 150.519531 54.054688 145.386719 56.921875 143.734375 61.527344 C 140.679688 67.957031 137.46875 75.335938 133.90625 84.082031 C 133.449219 85.207031 133.992188 86.488281 135.113281 86.945312 C 136.253906 87.414062 137.519531 86.867188 137.976562 85.742188 C 141.503906 77.074219 144.683594 69.769531 147.78125 63.214844 C 148.960938 59.9375 152.878906 58.152344 156.566406 59.246094 L 199.179688 72.015625 C 202.5625 73.042969 204.847656 76.28125 203.535156 80.015625 C 199.390625 97.695312 193.675781 116.132812 186.703125 133.921875 C 183.160156 143.058594 179.226562 152.15625 174.917969 161.152344 C 173.691406 164.542969 169.53125 166.367188 165.804688 165.097656 L 122.476562 150.328125 C 120.691406 149.730469 119.296875 148.53125 118.542969 146.953125 C 117.871094 145.558594 117.796875 143.996094 118.371094 142.4375 C 123.464844 125.480469 128.769531 109.738281 134.128906 95.65625 C 134.558594 94.523438 133.992188 93.253906 132.859375 92.820312 C 131.738281 92.398438 130.453125 92.953125 130.023438 94.09375 C 124.632812 108.273438 119.289062 124.109375 114.207031 141.046875 C 113.265625 143.601562 113.394531 146.371094 114.578125 148.851562 C 115.847656 151.503906 118.152344 153.511719 121.0625 154.492188 L 121.535156 154.652344 C 119.214844 159.242188 117.691406 164.761719 116.65625 170.847656 C 116.425781 172.191406 117.195312 173.5625 118.519531 174.164062 C 118.871094 174.324219 119.238281 174.449219 119.589844 174.609375 C 119.164062 174.917969 118.828125 175.375 118.714844 175.933594 L 117.136719 183.53125 C 116.757812 185.378906 117.722656 187.214844 119.484375 187.996094 C 130.828125 193.046875 144.496094 195.78125 146.609375 195.78125 C 148.429688 195.777344 150.085938 194.636719 150.636719 192.917969 L 152.757812 186.285156 C 152.890625 185.863281 152.851562 185.441406 152.742188 185.042969 C 153.730469 185.246094 154.703125 185.492188 155.695312 185.675781 C 157.207031 185.960938 158.789062 185.253906 159.460938 183.976562 C 161.921875 179.296875 163.785156 174.449219 165.015625 169.414062 C 166.109375 169.71875 167.210938 169.902344 168.296875 169.902344 C 173.019531 169.902344 177.40625 167.152344 178.960938 162.855469 C 182.960938 154.519531 186.671875 145.917969 190.070312 137.273438 L 211.660156 142.253906 C 214.800781 143.558594 216.210938 143.398438 216.800781 143.449219 C 217.890625 144.222656 219.042969 144.878906 220.257812 145.410156 C 225.90625 158.683594 227.339844 178.808594 221.050781 195.683594 C 216.128906 209.585938 205.324219 224.421875 200.394531 229.472656 L 199.441406 229.246094 C 199.152344 229.1875 198.855469 229.238281 198.558594 229.207031 C 201.0625 227.25 200.269531 223.59375 197.402344 222.628906 Z M 174.671875 19.914062 C 174.832031 19.632812 175.3125 19.445312 175.742188 19.523438 C 188.367188 21.605469 200.316406 25.195312 211.261719 30.195312 C 211.644531 30.371094 211.808594 30.679688 211.769531 30.890625 C 209.164062 44.636719 204.949219 56.566406 199.011719 67.375 L 159.980469 55.683594 C 163.917969 41.683594 168.714844 29.921875 174.671875 19.914062 Z M 148.570312 184.945312 L 146.621094 191.386719 C 137.535156 189.917969 129.003906 187.429688 121.433594 184.414062 L 123.011719 176.824219 C 123.070312 176.554688 123.058594 176.285156 123.015625 176.027344 C 131.421875 179.511719 140.082031 182.222656 148.964844 184.234375 C 148.796875 184.441406 148.65625 184.675781 148.570312 184.945312 Z M 150.296875 207.058594 C 157.234375 209.347656 163.238281 214.472656 158.21875 219.910156 C 157.632812 219.53125 152.554688 212.878906 137.457031 211.402344 C 124.898438 210.164062 117.382812 213.667969 103.015625 211.871094 C 110.0625 209.511719 112.386719 207.75 120.109375 206.296875 C 131.246094 204.21875 142.527344 204.5 150.296875 207.058594 Z M 109.183594 216.78125 C 118.457031 216.925781 128.738281 214.976562 137.035156 215.773438 C 144.667969 216.523438 151.082031 219.035156 154.769531 222.660156 C 146.015625 228.164062 126.359375 231.574219 117.300781 230.753906 C 101.71875 229.382812 98.027344 218.902344 94.675781 215.042969 C 99.625 215.90625 104.25 216.671875 109.183594 216.78125 Z M 88.578125 215.792969 C 90.832031 217.507812 90.621094 216.351562 93.527344 220.867188 C 94.085938 221.582031 96.761719 226.6875 102.679688 230.488281 C 112.832031 237.023438 124.957031 235.714844 136.757812 233.394531 C 146.824219 231.414062 163.925781 226.679688 164.480469 216.402344 L 194.226562 226.210938 L 125.335938 245.667969 L 57.007812 226.222656 Z M 124.058594 259.324219 C 125.546875 259.371094 123.460938 259.644531 163.601562 248.257812 C 163.5625 248.945312 163.800781 249.636719 164.375 250.097656 C 168.539062 253.46875 173.671875 255.640625 179.796875 256.464844 L 175.207031 280.722656 C 151.070312 278.335938 133.855469 271.140625 124.058594 259.324219 Z M 297.78125 321.320312 C 267.609375 333.792969 232.359375 344.886719 190.015625 355.234375 C 156.109375 347.246094 119.964844 336.269531 79.496094 322.1875 C 100.152344 315.167969 123.285156 307.339844 139.527344 304.238281 L 136.277344 316.027344 C 135.273438 319.804688 137.558594 323.726562 141.5 324.960938 C 156.226562 329.464844 184.859375 338.480469 187.050781 338.839844 C 187.851562 339.4375 188.710938 339.464844 189.550781 338.890625 C 191.699219 338.621094 187.3125 339.582031 236.429688 325.734375 C 240.457031 324.585938 242.824219 320.65625 241.8125 316.777344 L 238.429688 304.277344 C 263.160156 309.199219 282.636719 314.769531 297.78125 321.320312 Z M 237.5625 317.90625 C 237.964844 319.4375 236.933594 321.019531 235.226562 321.511719 L 190.554688 334.21875 L 190.675781 316.289062 C 190.683594 315.074219 189.710938 314.085938 188.5 314.078125 C 187.183594 314.074219 186.292969 315.042969 186.285156 316.261719 L 186.164062 334.144531 L 142.800781 320.761719 C 141.121094 320.238281 140.121094 318.65625 140.515625 317.175781 C 141.738281 312.75 149.410156 284.875 150.628906 280.453125 C 160.425781 283.441406 172.867188 285.121094 175.25 285.121094 C 177.457031 285.121094 179.402344 283.589844 179.785156 281.464844 C 183.765625 256.828125 185.210938 256.601562 183.398438 254.085938 C 181.027344 250.753906 176.601562 253.402344 168.316406 247.507812 L 171.136719 246.105469 L 186.808594 241.621094 L 186.410156 298.894531 C 186.40625 300.105469 187.378906 301.097656 188.589844 301.105469 C 188.597656 301.105469 188.601562 301.105469 188.609375 301.105469 C 189.8125 301.105469 190.796875 300.132812 190.804688 298.921875 L 191.210938 240.363281 L 195.308594 239.191406 C 199.175781 238.070312 198.214844 234.117188 198.355469 233.53125 C 206.164062 235.367188 214.492188 237.324219 213.789062 237.160156 C 215.074219 237.488281 216.070312 238.382812 216.375 239.46875 L 219.242188 250.144531 C 207.855469 248.945312 199.464844 257.894531 199.464844 267.960938 C 199.464844 277.796875 207.386719 285.820312 217.1875 285.925781 C 221.402344 287.46875 225.21875 287.566406 229.125 286.710938 C 229.378906 287.644531 238.101562 319.894531 237.5625 317.90625 Z M 240.246094 268.539062 C 240.246094 276.433594 233.183594 282.859375 224.507812 282.859375 C 215.835938 282.859375 208.773438 276.433594 208.773438 268.539062 C 208.773438 260.640625 215.835938 254.21875 224.507812 254.21875 C 233.183594 254.21875 240.246094 260.640625 240.246094 268.539062 Z M 246.683594 124.832031 C 243.480469 142.085938 224.464844 148.824219 215.378906 135.96875 C 206.113281 122.839844 215.636719 101.652344 230.914062 101.652344 C 242.085938 101.652344 248.859375 113.160156 246.683594 124.832031 Z M 222.191406 99.355469 C 221.886719 99.5 221.554688 99.585938 221.253906 99.746094 C 204.277344 99.441406 193.449219 121.464844 203.941406 135.964844 L 191.683594 133.140625 C 196.8125 119.8125 201.25 106.140625 204.914062 92.414062 C 205.5 92.65625 219.949219 98.460938 222.191406 99.355469 Z M 222.191406 99.355469 " fill-opacity="1" fill-rule="nonzero"/></g></svg>