<svg xmlns="http://www.w3.org/2000/svg" xmlns:xlink="http://www.w3.org/1999/xlink" width="500" zoomAndPan="magnify" viewBox="0 0 375 374.999991" height="500" preserveAspectRatio="xMidYMid meet" version="1.0"><defs><clipPath id="962aea4edb"><path d="M 70.078125 12 L 312 12 L 312 373 L 70.078125 373 Z M 70.078125 12 " clip-rule="nonzero"/></clipPath><clipPath id="454fd17c8d"><path d="M 70.078125 0 L 328 0 L 328 375 L 70.078125 375 Z M 70.078125 0 " clip-rule="nonzero"/></clipPath></defs><path fill="#231f19" d="M 324.710938 139.398438 C 325.960938 141.5625 326.652344 144.046875 326.652344 146.628906 L 326.652344 362.335938 C 326.652344 364.242188 325.886719 366.039062 324.578125 367.355469 C 324.144531 367.796875 323.640625 368.179688 323.097656 368.5 L 316.535156 372.289062 C 315.898438 372.65625 315.230469 372.953125 314.550781 373.1875 C 313.1875 373.644531 311.75 373.828125 310.335938 373.738281 C 308.683594 373.636719 307.046875 373.148438 305.5625 372.296875 L 294.5625 365.941406 L 196.519531 213.871094 C 199.167969 212.058594 201.609375 209.980469 203.679688 207.457031 C 208.65625 201.425781 210.945312 193.613281 215.390625 187.179688 C 230.28125 165.632812 264.609375 164.886719 279.164062 143.109375 L 303.519531 151.640625 Z M 324.710938 139.398438 " fill-opacity="1" fill-rule="nonzero"/><path fill="#fefefe" d="M 196.519531 213.871094 L 71.191406 19.472656 L 71.191406 14.152344 C 71.191406 11.265625 72.539062 8.5625 74.792969 6.828125 C 75.113281 6.582031 75.457031 6.347656 75.808594 6.148438 L 80.246094 3.578125 C 81.257812 2.996094 82.335938 2.554688 83.433594 2.261719 C 83.988281 2.113281 84.542969 2.007812 85.101562 1.933594 C 85.386719 1.894531 85.664062 1.867188 85.949219 1.851562 C 86.234375 1.835938 86.511719 1.820312 86.792969 1.820312 C 87.078125 1.820312 87.363281 1.828125 87.640625 1.851562 C 89.617188 1.976562 91.570312 2.554688 93.34375 3.578125 L 319.414062 134.101562 C 321.652344 135.394531 323.464844 137.226562 324.707031 139.390625 L 303.503906 151.625 L 279.148438 143.09375 C 264.59375 164.871094 230.277344 165.621094 215.375 187.164062 C 210.933594 193.597656 208.640625 201.410156 203.664062 207.441406 C 201.601562 209.980469 199.167969 212.066406 196.519531 213.871094 Z M 196.519531 213.871094 " fill-opacity="1" fill-rule="nonzero"/><g clip-path="url(#962aea4edb)"><path fill="#fefefe" d="M 311.039062 158.988281 L 311.039062 176.804688 L 310.433594 366.347656 C 310.433594 370.933594 305.472656 373.800781 301.5 371.503906 L 78 242.464844 C 73.414062 239.816406 70.585938 234.921875 70.585938 229.621094 L 71.191406 38.167969 L 71.191406 17.148438 C 71.191406 13.441406 75.203125 11.128906 78.40625 12.980469 L 300.917969 141.441406 C 307.179688 145.0625 311.039062 151.753906 311.039062 158.988281 Z M 311.039062 158.988281 " fill-opacity="1" fill-rule="nonzero"/></g><path fill="#fefefe" d="M 123.957031 96.496094 L 126.304688 97.851562 L 126.304688 137.363281 L 86.855469 114.554688 L 81.644531 82.847656 L 86.855469 85.78125 L 86.855469 70.734375 L 102.90625 80.003906 L 106.496094 85.347656 L 115.597656 94.933594 Z M 226.820312 159.257812 L 217.71875 149.671875 L 214.128906 144.328125 L 198.074219 135.058594 L 198.074219 150.121094 L 192.867188 147.1875 L 198.074219 178.894531 L 237.527344 201.703125 L 237.527344 162.191406 L 235.175781 160.835938 Z M 293.140625 194.347656 L 290.792969 192.992188 L 282.433594 191.421875 L 273.332031 181.835938 L 269.742188 176.492188 L 253.691406 167.222656 L 253.691406 182.285156 L 248.480469 179.351562 L 253.691406 211.058594 L 293.140625 233.867188 Z M 171.203125 127.097656 L 162.105469 117.511719 L 158.511719 112.167969 L 142.460938 102.894531 L 142.460938 117.960938 L 137.253906 115.027344 L 142.460938 146.730469 L 181.914062 169.539062 L 181.914062 130.03125 L 179.5625 128.675781 Z M 115.589844 177.773438 L 106.488281 168.1875 L 102.898438 162.84375 L 86.847656 153.570312 L 86.847656 168.636719 L 81.636719 165.703125 L 86.847656 197.40625 L 126.296875 220.214844 L 126.296875 180.707031 L 123.957031 179.335938 Z M 171.203125 209.933594 L 162.105469 200.347656 L 158.511719 195.003906 L 142.460938 185.734375 L 142.460938 200.796875 L 137.253906 197.863281 L 142.460938 229.570312 L 181.914062 252.378906 L 181.914062 212.867188 L 179.5625 211.511719 Z M 171.203125 209.933594 " fill-opacity="1" fill-rule="nonzero"/><path fill="#fefefe" d="M 89.570312 75.5 L 123.957031 95.375 L 123.957031 120.5625 L 121.097656 100.140625 L 102.457031 89.367188 L 97.695312 91.910156 L 89.570312 87.324219 Z M 200.792969 151.65625 L 208.917969 156.242188 L 213.679688 153.699219 L 232.320312 164.472656 L 235.175781 184.894531 L 235.175781 159.707031 L 200.792969 139.832031 Z M 256.40625 171.988281 L 256.40625 183.816406 L 264.535156 188.40625 L 269.292969 185.859375 L 287.933594 196.636719 L 290.792969 217.058594 L 290.792969 191.871094 Z M 145.183594 119.492188 L 153.3125 124.082031 L 158.070312 121.535156 L 176.710938 132.3125 L 179.570312 152.734375 L 179.570312 127.546875 L 145.183594 107.671875 C 145.183594 107.671875 145.183594 119.492188 145.183594 119.492188 Z M 89.570312 170.167969 L 97.695312 174.757812 L 102.457031 172.210938 L 121.097656 182.988281 L 123.957031 203.402344 L 123.957031 178.214844 L 89.570312 158.339844 Z M 145.183594 202.332031 L 153.3125 206.917969 L 158.070312 204.375 L 176.710938 215.148438 L 179.570312 235.570312 L 179.570312 210.382812 L 145.183594 190.507812 C 145.183594 190.507812 145.183594 202.332031 145.183594 202.332031 Z M 145.183594 202.332031 " fill-opacity="1" fill-rule="nonzero"/><path fill="#231f19" d="M 115.589844 114.71875 L 115.589844 133.238281 L 109.886719 129.949219 L 109.886719 117.636719 L 103.257812 113.804688 C 103.257812 113.804688 103.257812 120.496094 103.257812 126.117188 L 97.554688 122.824219 C 97.554688 121.550781 97.554688 104.300781 97.554688 104.300781 Z M 208.785156 168.621094 C 208.785156 168.621094 208.785156 185.875 208.785156 187.140625 L 214.484375 190.433594 C 214.484375 184.8125 214.484375 178.125 214.484375 178.125 L 221.117188 181.953125 L 221.117188 194.265625 L 226.820312 197.558594 L 226.820312 179.042969 Z M 264.398438 200.78125 C 264.398438 200.78125 264.398438 218.039062 264.398438 219.304688 L 270.101562 222.597656 C 270.101562 216.976562 270.101562 210.285156 270.101562 210.285156 L 276.730469 214.117188 L 276.730469 226.425781 L 282.433594 229.71875 L 282.433594 211.199219 Z M 153.167969 136.457031 C 153.167969 136.457031 153.167969 153.714844 153.167969 154.976562 L 158.871094 158.269531 C 158.871094 152.652344 158.871094 145.960938 158.871094 145.960938 L 165.5 149.792969 L 165.5 162.101562 L 171.203125 165.394531 L 171.203125 146.875 Z M 97.5625 187.132812 C 97.5625 187.132812 97.5625 204.390625 97.5625 205.652344 L 103.265625 208.945312 C 103.265625 203.328125 103.265625 196.636719 103.265625 196.636719 L 109.894531 200.46875 L 109.894531 212.777344 L 115.597656 216.070312 L 115.597656 197.550781 Z M 153.167969 219.296875 C 153.167969 219.296875 153.167969 236.550781 153.167969 237.816406 L 158.871094 241.109375 C 158.871094 235.488281 158.871094 228.800781 158.871094 228.800781 L 165.5 232.628906 L 165.5 244.941406 L 171.203125 248.234375 L 171.203125 229.710938 Z M 153.167969 219.296875 " fill-opacity="1" fill-rule="nonzero"/><g clip-path="url(#454fd17c8d)"><path fill="#1c0140" d="M 319.976562 133.144531 L 93.902344 2.621094 C 89.519531 0.09375 84.078125 0.09375 79.691406 2.621094 L 75.253906 5.179688 C 72.058594 7.03125 70.078125 10.464844 70.078125 14.152344 L 70.078125 228.425781 C 70.078125 234.105469 73.128906 239.394531 78.046875 242.230469 L 293.996094 366.90625 L 304.996094 373.261719 C 306.859375 374.339844 308.953125 374.878906 311.039062 374.878906 C 313.128906 374.878906 315.222656 374.339844 317.085938 373.261719 L 323.648438 369.472656 C 326.1875 368.007812 327.765625 365.277344 327.765625 362.34375 L 327.765625 146.632812 C 327.765625 141.082031 324.78125 135.917969 319.976562 133.144531 Z M 76.371094 7.113281 L 80.808594 4.550781 C 84.503906 2.421875 89.089844 2.421875 92.78125 4.550781 L 318.851562 135.074219 C 320.582031 136.070312 322.027344 137.429688 323.125 139.015625 L 308.667969 147.324219 C 306.867188 144.546875 304.417969 142.183594 301.460938 140.476562 L 78.96875 12.011719 C 77.109375 10.941406 74.894531 10.941406 73.039062 12.011719 C 72.859375 12.117188 72.695312 12.238281 72.523438 12.359375 C 73.023438 10.179688 74.394531 8.257812 76.371094 7.113281 Z M 72.308594 17.148438 C 72.308594 15.816406 72.996094 14.617188 74.15625 13.953125 C 74.730469 13.613281 75.367188 13.449219 76.003906 13.449219 C 76.640625 13.449219 77.269531 13.613281 77.851562 13.953125 L 300.363281 142.414062 C 306.265625 145.828125 309.933594 152.171875 309.933594 158.988281 L 309.933594 174.875 L 72.308594 37.523438 Z M 72.308594 228.425781 L 72.308594 40.097656 L 309.925781 177.449219 L 309.925781 365.148438 C 309.925781 366.898438 309.019531 368.464844 307.507812 369.339844 C 305.988281 370.214844 304.1875 370.214844 302.667969 369.339844 L 79.160156 240.300781 C 74.933594 237.863281 72.308594 233.3125 72.308594 228.425781 Z M 325.535156 362.34375 C 325.535156 364.484375 324.382812 366.472656 322.535156 367.542969 L 315.972656 371.332031 C 313.292969 372.878906 310.046875 373.058594 307.230469 371.875 C 307.710938 371.71875 308.175781 371.53125 308.625 371.269531 C 310.839844 369.992188 312.164062 367.699219 312.164062 365.148438 L 312.164062 158.988281 C 312.164062 155.554688 311.324219 152.222656 309.796875 149.253906 L 324.257812 140.949219 C 325.078125 142.699219 325.535156 144.636719 325.535156 146.628906 Z M 292.027344 161.121094 L 302.503906 167.085938 C 303.054688 167.398438 303.664062 167.558594 304.269531 167.558594 C 304.890625 167.558594 305.503906 167.394531 306.066406 167.070312 C 307.179688 166.421875 307.84375 165.269531 307.84375 163.980469 L 307.84375 154.238281 C 307.84375 151.820312 306.542969 149.566406 304.449219 148.355469 L 295.582031 143.230469 C 294.457031 142.585938 293.125 142.585938 292.003906 143.230469 C 290.890625 143.875 290.214844 145.035156 290.214844 146.328125 L 290.214844 158.007812 C 290.222656 159.296875 290.910156 160.484375 292.027344 161.121094 Z M 292.453125 146.328125 C 292.453125 145.625 292.925781 145.28125 293.125 145.167969 C 293.246094 145.101562 293.492188 144.980469 293.808594 144.980469 C 294.007812 144.980469 294.234375 145.027344 294.472656 145.167969 L 303.339844 150.292969 C 304.746094 151.101562 305.625 152.621094 305.625 154.246094 L 305.625 163.988281 C 305.625 164.683594 305.160156 165.035156 304.957031 165.148438 C 304.753906 165.269531 304.222656 165.5 303.617188 165.15625 L 293.140625 159.191406 C 292.722656 158.953125 292.460938 158.503906 292.460938 158.023438 Z M 243.722656 133.230469 L 254.199219 139.195312 C 254.753906 139.511719 255.359375 139.667969 255.964844 139.667969 C 256.585938 139.667969 257.199219 139.503906 257.761719 139.179688 C 258.875 138.53125 259.542969 137.378906 259.542969 136.089844 L 259.542969 126.347656 C 259.542969 123.929688 258.238281 121.679688 256.144531 120.464844 L 247.269531 115.347656 C 246.15625 114.703125 244.816406 114.703125 243.691406 115.347656 C 242.570312 115.992188 241.90625 117.152344 241.90625 118.445312 L 241.90625 130.125 C 241.917969 131.40625 242.617188 132.597656 243.722656 133.230469 Z M 244.148438 118.445312 C 244.148438 117.742188 244.621094 117.398438 244.824219 117.285156 C 244.941406 117.210938 245.1875 117.097656 245.503906 117.097656 C 245.707031 117.097656 245.929688 117.144531 246.167969 117.285156 L 255.042969 122.410156 C 256.453125 123.21875 257.328125 124.738281 257.328125 126.363281 L 257.328125 136.105469 C 257.328125 136.800781 256.863281 137.152344 256.660156 137.265625 C 256.460938 137.386719 255.929688 137.617188 255.320312 137.273438 L 244.84375 131.308594 C 244.425781 131.070312 244.164062 130.621094 244.164062 130.140625 L 244.164062 118.445312 Z M 267.855469 147.054688 L 278.332031 153.109375 C 278.894531 153.429688 279.507812 153.59375 280.121094 153.59375 C 280.734375 153.59375 281.347656 153.429688 281.910156 153.109375 C 283.03125 152.464844 283.699219 151.304688 283.699219 150.007812 L 283.699219 140.296875 C 283.699219 137.878906 282.394531 135.628906 280.300781 134.414062 L 271.433594 129.296875 C 270.316406 128.652344 268.976562 128.644531 267.855469 129.296875 C 266.734375 129.941406 266.066406 131.101562 266.066406 132.394531 L 266.066406 143.964844 C 266.066406 145.226562 266.753906 146.417969 267.855469 147.054688 Z M 268.304688 132.386719 C 268.304688 131.683594 268.777344 131.339844 268.976562 131.226562 C 269.097656 131.152344 269.34375 131.039062 269.660156 131.039062 C 269.859375 131.039062 270.085938 131.085938 270.324219 131.226562 L 279.199219 136.351562 C 280.605469 137.160156 281.484375 138.679688 281.484375 140.304688 L 281.484375 150.015625 C 281.484375 150.71875 281.011719 151.066406 280.808594 151.175781 C 280.605469 151.296875 280.066406 151.527344 279.46875 151.175781 L 268.992188 145.125 C 268.582031 144.882812 268.320312 144.433594 268.320312 143.964844 L 268.320312 132.386719 Z M 270.363281 141.394531 L 273.035156 142.9375 L 273.035156 145.003906 C 273.035156 145.59375 273.347656 146.140625 273.863281 146.441406 L 277.757812 148.683594 C 278.019531 148.835938 278.300781 148.910156 278.585938 148.910156 C 278.871094 148.910156 279.15625 148.835938 279.417969 148.683594 C 279.933594 148.386719 280.246094 147.847656 280.246094 147.25 L 280.246094 143.648438 C 280.246094 142.632812 279.703125 141.6875 278.824219 141.179688 L 276.746094 139.980469 L 276.746094 138.605469 C 276.746094 137.585938 276.199219 136.644531 275.324219 136.136719 L 272.03125 134.234375 C 271.515625 133.9375 270.894531 133.9375 270.378906 134.234375 C 269.859375 134.535156 269.546875 135.074219 269.546875 135.671875 L 269.546875 139.96875 C 269.53125 140.550781 269.855469 141.097656 270.363281 141.394531 Z M 278.070312 142.464844 C 278.488281 142.707031 278.75 143.164062 278.75 143.648438 L 278.75 147.253906 C 278.75 147.339844 278.707031 147.382812 278.667969 147.40625 C 278.632812 147.429688 278.570312 147.441406 278.496094 147.40625 L 274.605469 145.160156 C 274.554688 145.128906 274.523438 145.078125 274.523438 145.011719 L 274.523438 143.761719 C 274.703125 143.828125 274.890625 143.875 275.078125 143.875 C 275.363281 143.875 275.644531 143.796875 275.90625 143.648438 C 276.425781 143.347656 276.738281 142.8125 276.738281 142.210938 L 276.738281 141.703125 Z M 297.390625 154.777344 L 294.75 150.355469 C 294.4375 149.824219 294.609375 149.140625 295.132812 148.828125 L 295.140625 148.828125 C 295.671875 148.511719 296.351562 148.683594 296.664062 149.207031 L 299.261719 153.554688 L 301.117188 152.351562 C 301.632812 152.015625 302.324219 152.164062 302.660156 152.679688 C 302.996094 153.199219 302.847656 153.886719 302.332031 154.222656 L 300.40625 155.472656 L 303.296875 160.296875 C 303.609375 160.832031 303.4375 161.511719 302.914062 161.824219 C 302.382812 162.140625 301.703125 161.96875 301.386719 161.445312 L 298.542969 156.683594 L 296.929688 157.738281 C 296.410156 158.078125 295.722656 157.925781 295.386719 157.410156 C 295.050781 156.894531 295.199219 156.207031 295.714844 155.867188 Z M 254.070312 130.238281 L 247.128906 126.234375 C 246.597656 125.929688 246.410156 125.246094 246.714844 124.710938 C 247.023438 124.179688 247.703125 123.992188 248.234375 124.296875 L 255.179688 128.300781 C 255.710938 128.609375 255.898438 129.289062 255.589844 129.828125 C 255.285156 130.359375 254.601562 130.546875 254.070312 130.238281 Z M 125.070312 94.730469 L 107.207031 84.40625 L 103.683594 79.167969 L 85.730469 68.796875 L 85.730469 83.882812 L 80.164062 80.738281 L 85.828125 115.257812 L 96.441406 121.394531 L 96.441406 123.460938 L 104.371094 128.046875 L 104.371094 125.980469 L 108.773438 128.527344 L 108.773438 130.589844 L 116.703125 135.179688 L 116.703125 133.113281 L 127.414062 139.300781 L 127.414062 97.207031 L 125.0625 95.855469 Z M 122.832031 105.007812 L 122.128906 99.453125 L 102.480469 88.09375 L 97.710938 90.636719 L 90.683594 86.671875 L 90.683594 77.429688 L 122.839844 96.019531 L 122.839844 105.007812 Z M 87.960938 72.664062 L 102.121094 80.84375 L 102.808594 81.867188 L 88.457031 73.5625 L 88.457031 85.414062 L 87.96875 85.136719 L 87.96875 72.664062 Z M 104.371094 123.40625 L 104.371094 115.738281 L 108.773438 118.28125 L 108.773438 125.953125 Z M 114.472656 131.308594 L 111.003906 129.304688 L 111.003906 116.992188 L 102.140625 111.867188 L 102.140625 124.179688 L 98.671875 122.171875 L 98.671875 106.226562 L 114.472656 115.363281 Z M 96.441406 102.355469 L 96.441406 118.820312 L 87.863281 113.859375 L 83.121094 84.972656 L 97.683594 93.183594 L 102.433594 90.644531 L 120.058594 100.832031 L 124.375 134.960938 L 116.710938 130.53125 L 116.710938 114.066406 Z M 125.183594 98.503906 L 125.183594 123.59375 L 125.0625 122.667969 L 125.0625 98.4375 Z M 90.191406 133.179688 C 88.125 131.984375 86.855469 129.773438 86.855469 127.386719 C 86.855469 125.578125 88.816406 124.445312 90.386719 125.351562 L 122.96875 144.1875 C 125.03125 145.386719 126.304688 147.59375 126.304688 149.980469 C 126.304688 151.789062 124.34375 152.921875 122.773438 152.015625 Z M 236.292969 159.054688 L 218.429688 148.730469 L 214.90625 143.492188 L 196.953125 133.121094 L 196.953125 148.207031 L 191.386719 145.0625 L 197.050781 179.582031 L 207.660156 185.71875 L 207.660156 187.785156 L 215.59375 192.371094 L 215.59375 190.304688 L 219.992188 192.851562 L 219.992188 194.914062 L 227.925781 199.503906 L 227.925781 197.4375 L 238.632812 203.625 L 238.632812 161.535156 L 236.285156 160.179688 Z M 234.0625 169.339844 L 233.359375 163.777344 L 213.699219 152.417969 L 208.933594 154.964844 L 201.90625 150.996094 L 201.90625 141.753906 L 234.0625 160.34375 Z M 199.191406 136.988281 L 213.347656 145.167969 L 214.039062 146.191406 L 199.675781 137.894531 L 199.675781 149.746094 L 199.191406 149.472656 Z M 215.601562 187.730469 L 215.601562 180.0625 L 220 182.605469 L 220 190.277344 Z M 225.703125 195.632812 L 222.230469 193.628906 L 222.230469 181.320312 L 213.371094 176.191406 L 213.371094 188.503906 L 209.898438 186.496094 L 209.898438 170.550781 L 225.703125 179.6875 Z M 207.667969 166.6875 L 207.667969 183.152344 L 199.09375 178.191406 L 194.347656 149.304688 L 208.910156 157.515625 L 213.664062 154.976562 L 231.285156 165.164062 L 235.597656 199.292969 L 227.933594 194.863281 L 227.933594 178.402344 Z M 236.410156 162.828125 L 236.410156 187.925781 L 236.292969 187 L 236.292969 162.769531 Z M 237.527344 214.296875 C 237.527344 216.109375 235.566406 217.238281 233.996094 216.332031 L 201.414062 197.496094 C 199.347656 196.300781 198.074219 194.09375 198.074219 191.707031 C 198.074219 189.894531 200.035156 188.765625 201.609375 189.671875 L 234.1875 208.503906 C 236.253906 209.703125 237.527344 211.910156 237.527344 214.296875 Z M 223.988281 218.773438 C 223.988281 220.582031 222.027344 221.710938 220.457031 220.808594 L 201.421875 209.753906 C 199.355469 208.558594 198.082031 206.351562 198.082031 203.960938 C 198.082031 202.152344 200.042969 201.023438 201.613281 201.925781 L 220.652344 212.980469 C 222.710938 214.175781 223.988281 216.386719 223.988281 218.773438 Z M 291.90625 191.21875 L 274.042969 180.890625 L 270.519531 175.652344 L 252.566406 165.28125 L 252.566406 180.367188 L 247 177.226562 L 252.664062 211.746094 L 263.277344 217.882812 L 263.277344 219.945312 L 271.207031 224.535156 L 271.207031 222.46875 L 275.609375 225.011719 L 275.609375 227.078125 L 283.539062 231.664062 L 283.539062 229.601562 L 294.25 235.789062 L 294.25 193.703125 L 291.898438 192.347656 Z M 289.675781 201.5 L 288.972656 195.941406 L 269.316406 184.582031 L 264.546875 187.125 L 257.523438 183.160156 L 257.523438 173.917969 L 289.675781 192.507812 Z M 254.804688 169.152344 L 268.964844 177.332031 L 269.652344 178.355469 L 255.292969 170.058594 L 255.292969 181.910156 L 254.804688 181.632812 Z M 271.214844 219.894531 L 271.214844 212.222656 L 275.617188 214.769531 L 275.617188 222.4375 Z M 281.316406 227.796875 L 277.847656 225.792969 L 277.847656 213.480469 L 268.984375 208.355469 L 268.984375 220.664062 L 265.511719 218.660156 L 265.511719 202.714844 L 281.316406 211.851562 Z M 263.285156 198.851562 L 263.285156 215.316406 L 254.707031 210.351562 L 249.964844 181.46875 L 264.527344 189.675781 L 269.277344 187.140625 L 286.898438 197.324219 L 291.210938 231.457031 L 283.546875 227.027344 L 283.546875 210.570312 Z M 292.027344 194.992188 L 292.027344 220.089844 L 291.90625 219.160156 L 291.90625 194.929688 Z M 282.695312 240.609375 C 282.695312 242.417969 280.734375 243.546875 279.164062 242.644531 L 262.257812 232.894531 C 260.191406 231.695312 258.921875 229.488281 258.921875 227.101562 C 258.921875 225.289062 260.882812 224.160156 262.453125 225.066406 L 279.355469 234.816406 C 281.421875 236.011719 282.695312 238.21875 282.695312 240.609375 Z M 180.683594 126.894531 L 162.824219 116.566406 L 159.296875 111.328125 L 141.347656 100.957031 L 141.347656 116.042969 L 135.777344 112.902344 L 141.445312 147.421875 L 152.054688 153.554688 L 152.054688 155.621094 L 159.988281 160.210938 L 159.988281 158.144531 L 164.386719 160.6875 L 164.386719 162.753906 L 172.320312 167.339844 L 172.320312 165.273438 L 183.027344 171.464844 L 183.027344 129.371094 L 180.675781 128.015625 L 180.675781 126.894531 Z M 178.449219 137.175781 L 177.742188 131.625 L 158.085938 120.265625 L 153.320312 122.808594 L 146.292969 118.84375 L 146.292969 109.601562 L 178.449219 128.1875 Z M 143.574219 104.828125 L 157.734375 113.003906 L 158.421875 114.03125 L 144.0625 105.730469 L 144.0625 117.585938 L 143.574219 117.308594 C 143.574219 117.308594 143.574219 104.828125 143.574219 104.828125 Z M 159.988281 155.570312 L 159.988281 147.898438 L 164.386719 150.445312 L 164.386719 158.113281 Z M 170.089844 163.472656 L 166.617188 161.464844 L 166.617188 149.15625 L 157.757812 144.03125 L 157.757812 156.339844 L 154.285156 154.335938 L 154.285156 138.386719 L 170.089844 147.523438 Z M 152.054688 134.527344 L 152.054688 150.988281 L 143.480469 146.027344 L 138.734375 117.144531 L 153.296875 125.351562 L 158.046875 122.816406 L 175.671875 133 L 179.988281 167.132812 L 172.328125 162.699219 L 172.328125 146.238281 Z M 180.796875 130.664062 L 180.796875 155.757812 L 180.675781 154.828125 L 180.675781 130.597656 Z M 145.804688 165.34375 C 143.742188 164.144531 142.46875 161.9375 142.46875 159.550781 C 142.46875 157.738281 144.429688 156.609375 146 157.515625 L 173.222656 173.117188 C 175.289062 174.316406 176.5625 176.523438 176.5625 178.910156 C 176.5625 180.71875 174.601562 181.851562 173.03125 180.945312 Z M 125.070312 177.570312 L 107.207031 167.242188 L 103.683594 162.003906 L 85.730469 151.632812 L 85.730469 166.71875 L 80.164062 163.578125 L 85.828125 198.097656 L 96.441406 204.230469 L 96.441406 206.296875 L 104.371094 210.886719 L 104.371094 208.820312 L 108.773438 211.363281 L 108.773438 213.429688 L 116.703125 218.015625 L 116.703125 215.949219 L 127.414062 222.140625 L 127.414062 180.046875 L 125.0625 178.691406 L 125.0625 177.570312 Z M 122.832031 187.84375 L 122.128906 182.292969 L 102.480469 170.933594 L 97.710938 173.476562 L 90.683594 169.511719 L 90.683594 160.269531 L 122.839844 178.855469 L 122.839844 187.84375 Z M 87.960938 155.503906 L 102.121094 163.679688 L 102.808594 164.707031 L 88.449219 156.40625 L 88.449219 168.261719 L 87.960938 167.984375 C 87.960938 167.984375 87.960938 155.503906 87.960938 155.503906 Z M 104.371094 206.246094 L 104.371094 198.574219 L 108.773438 201.121094 L 108.773438 208.789062 Z M 114.472656 214.148438 L 111.003906 212.140625 L 111.003906 199.832031 L 102.140625 194.707031 L 102.140625 207.015625 L 98.675781 205.011719 L 98.675781 189.0625 L 114.480469 198.199219 L 114.480469 214.148438 Z M 96.441406 185.203125 L 96.441406 201.664062 L 87.863281 196.703125 L 83.121094 167.820312 L 97.683594 176.027344 L 102.433594 173.492188 L 120.058594 183.675781 L 124.375 217.804688 L 116.710938 213.375 L 116.710938 196.914062 Z M 125.183594 181.339844 L 125.183594 206.433594 L 125.0625 205.503906 L 125.0625 181.273438 Z M 126.304688 232.808594 C 126.304688 234.621094 124.34375 235.75 122.773438 234.84375 L 90.191406 216.011719 C 88.125 214.8125 86.855469 212.605469 86.855469 210.21875 C 86.855469 208.40625 88.816406 207.277344 90.386719 208.183594 L 122.96875 227.019531 C 125.027344 228.214844 126.304688 230.421875 126.304688 232.808594 Z M 180.683594 209.730469 L 162.824219 199.40625 L 159.296875 194.167969 L 141.347656 183.796875 L 141.347656 198.882812 L 135.777344 195.738281 L 141.445312 230.257812 L 152.054688 236.394531 L 152.054688 238.460938 L 159.988281 243.046875 L 159.988281 240.980469 L 164.386719 243.527344 L 164.386719 245.589844 L 172.320312 250.179688 L 172.320312 248.113281 L 183.027344 254.300781 L 183.027344 212.210938 L 180.675781 210.855469 L 180.675781 209.730469 Z M 178.449219 220.015625 L 177.742188 214.460938 L 158.085938 203.101562 L 153.320312 205.648438 L 146.292969 201.679688 L 146.292969 192.4375 L 178.449219 211.027344 Z M 143.574219 187.664062 L 157.734375 195.84375 L 158.421875 196.867188 L 144.0625 188.570312 L 144.0625 200.421875 L 143.574219 200.144531 C 143.574219 200.144531 143.574219 187.664062 143.574219 187.664062 Z M 159.988281 238.40625 L 159.988281 230.738281 L 164.386719 233.28125 L 164.386719 240.953125 Z M 170.089844 246.308594 L 166.617188 244.304688 L 166.617188 231.996094 L 157.757812 226.867188 L 157.757812 239.179688 L 154.285156 237.171875 L 154.285156 221.226562 L 170.089844 230.355469 Z M 152.054688 217.363281 L 152.054688 233.828125 L 143.480469 228.867188 L 138.734375 199.980469 L 153.296875 208.191406 L 158.046875 205.652344 L 175.671875 215.839844 L 179.988281 249.96875 L 172.328125 245.539062 L 172.328125 229.074219 Z M 180.796875 213.503906 L 180.796875 238.59375 L 180.675781 237.667969 L 180.675781 213.4375 Z M 173.679688 260.324219 C 173.679688 262.136719 171.71875 263.265625 170.148438 262.359375 L 148.828125 250.199219 C 146.765625 249.003906 145.492188 246.796875 145.492188 244.410156 C 145.492188 242.597656 147.453125 241.46875 149.023438 242.375 L 170.34375 254.535156 C 172.410156 255.730469 173.679688 257.9375 173.679688 260.324219 Z M 173.679688 260.324219 " fill-opacity="1" fill-rule="nonzero"/></g></svg>