<svg xmlns="http://www.w3.org/2000/svg" xmlns:xlink="http://www.w3.org/1999/xlink" width="1024" zoomAndPan="magnify" viewBox="0 0 768 576" height="1024" preserveAspectRatio="xMidYMid meet" version="1.0"><defs><g/><clipPath id="063a6457f8"><path d="M 72.726562 1.558594 L 644.109375 1.558594 L 644.109375 572.941406 L 72.726562 572.941406 Z M 72.726562 1.558594 " clip-rule="nonzero"/></clipPath><clipPath id="40c881f71c"><path d="M 358.417969 1.558594 C 200.632812 1.558594 72.726562 129.464844 72.726562 287.25 C 72.726562 445.035156 200.632812 572.941406 358.417969 572.941406 C 516.199219 572.941406 644.109375 445.035156 644.109375 287.25 C 644.109375 129.464844 516.199219 1.558594 358.417969 1.558594 Z M 358.417969 1.558594 " clip-rule="nonzero"/></clipPath></defs><g clip-path="url(#063a6457f8)"><g clip-path="url(#40c881f71c)"><path fill="#ffffff" d="M 72.726562 1.558594 L 644.109375 1.558594 L 644.109375 572.941406 L 72.726562 572.941406 Z M 72.726562 1.558594 " fill-opacity="1" fill-rule="nonzero"/></g></g><g fill="#000000" fill-opacity="1"><g transform="translate(79.838903, 393.417771)"><g><path d="M 148.140625 -211.765625 C 146.585938 -214.171875 143.554688 -216.570312 139.046875 -218.96875 C 134.535156 -221.375 130.144531 -223.414062 125.875 -225.09375 C 121.613281 -226.78125 118.828125 -227.804688 117.515625 -228.171875 L 117.875 -234.484375 L 168.6875 -246.734375 L 181.671875 -248 L 181.671875 -35.859375 C 181.671875 -28.648438 184.765625 -23.484375 190.953125 -20.359375 C 197.140625 -17.242188 203.78125 -15.6875 210.875 -15.6875 L 210.875 -5.765625 L 162.75 2.15625 L 150.671875 2.15625 L 149.046875 -25.765625 C 140.515625 -15.921875 131.5625 -8.5625 122.1875 -3.6875 C 112.820312 1.175781 102.789062 3.609375 92.09375 3.609375 C 78.519531 3.609375 66.113281 0.332031 54.875 -6.21875 C 43.644531 -12.769531 34.785156 -21.960938 28.296875 -33.796875 C 21.804688 -45.628906 18.5625 -59.234375 18.5625 -74.609375 C 18.5625 -92.273438 22.195312 -108.078125 29.46875 -122.015625 C 36.738281 -135.953125 46.738281 -146.820312 59.46875 -154.625 C 72.207031 -162.4375 86.445312 -166.34375 102.1875 -166.34375 C 109.519531 -166.34375 116.671875 -165.234375 123.640625 -163.015625 C 130.609375 -160.796875 138.773438 -157.460938 148.140625 -153.015625 Z M 148.140625 -91.921875 C 148.140625 -103.578125 147.117188 -112.976562 145.078125 -120.125 C 143.035156 -127.269531 138.894531 -133.609375 132.65625 -139.140625 C 127.84375 -143.335938 122.671875 -146.609375 117.140625 -148.953125 C 111.617188 -151.296875 106.035156 -152.46875 100.390625 -152.46875 C 90.898438 -152.46875 82.488281 -149.40625 75.15625 -143.28125 C 67.820312 -137.15625 62.144531 -129.015625 58.125 -118.859375 C 54.101562 -108.703125 52.09375 -97.738281 52.09375 -85.96875 C 52.09375 -74.550781 54.101562 -63.644531 58.125 -53.25 C 62.144531 -42.863281 68.179688 -34.363281 76.234375 -27.75 C 84.285156 -21.144531 94.019531 -17.84375 105.4375 -17.84375 C 114.5625 -17.84375 122.695312 -19.851562 129.84375 -23.875 C 137 -27.90625 143.097656 -33.285156 148.140625 -40.015625 Z M 148.140625 -91.921875 "/></g></g></g><g fill="#000000" fill-opacity="1"><g transform="translate(296.103613, 393.417771)"><g><path d="M 69.203125 -41.640625 C 69.203125 -35.984375 69.832031 -30.960938 71.09375 -26.578125 C 72.363281 -22.191406 75.398438 -18.316406 80.203125 -14.953125 C 85.003906 -11.585938 92.210938 -9.609375 101.828125 -9.015625 L 101.65625 0 L 7.75 0 C 7.75 -0.957031 7.71875 -2.519531 7.65625 -4.6875 C 7.59375 -6.851562 7.625 -8.535156 7.75 -9.734375 L 13.703125 -11.359375 C 20.066406 -13.035156 24.628906 -14.59375 27.390625 -16.03125 C 30.160156 -17.476562 32.234375 -20.035156 33.609375 -23.703125 C 34.992188 -27.367188 35.6875 -32.984375 35.6875 -40.546875 L 35.6875 -131.203125 C 34.125 -133.847656 31.238281 -136.28125 27.03125 -138.5 C 22.820312 -140.726562 18.460938 -142.5625 13.953125 -144 C 9.453125 -145.445312 7.203125 -146.109375 7.203125 -145.984375 L 7.5625 -152.296875 L 55.515625 -165.09375 L 65.78125 -165.09375 L 68.671875 -131.921875 C 75.398438 -144.296875 82.394531 -153.066406 89.65625 -158.234375 C 96.925781 -163.398438 105.25 -165.984375 114.625 -165.984375 C 119.425781 -165.984375 123.78125 -164.992188 127.6875 -163.015625 C 131.59375 -161.035156 134.65625 -158.515625 136.875 -155.453125 C 139.101562 -152.390625 140.21875 -149.296875 140.21875 -146.171875 C 140.21875 -144.128906 139.644531 -141.363281 138.5 -137.875 C 137.363281 -134.394531 135.625 -131.332031 133.28125 -128.6875 C 130.9375 -126.039062 128.082031 -124.71875 124.71875 -124.71875 C 120.875 -124.71875 117.867188 -125.585938 115.703125 -127.328125 C 113.546875 -129.066406 111.320312 -131.679688 109.03125 -135.171875 C 107.351562 -137.816406 105.765625 -139.800781 104.265625 -141.125 C 102.765625 -142.445312 100.867188 -143.109375 98.578125 -143.109375 C 94.734375 -143.109375 91.28125 -141.992188 88.21875 -139.765625 C 85.15625 -137.546875 82.484375 -134.8125 80.203125 -131.5625 C 77.921875 -128.320312 75.15625 -124 71.90625 -118.59375 L 69.203125 -114.078125 Z M 69.203125 -41.640625 "/></g></g></g><g fill="#000000" fill-opacity="1"><g transform="translate(440.099964, 393.417771)"><g><path d="M 28.46875 -128.328125 C 25.59375 -134.816406 22.832031 -139.679688 20.1875 -142.921875 C 17.539062 -146.160156 15.101562 -148.289062 12.875 -149.3125 C 10.65625 -150.34375 8.046875 -151.097656 5.046875 -151.578125 C 3.242188 -151.816406 1.5625 -152.175781 0 -152.65625 L 0 -162.03125 L 84.53125 -162.03125 C 84.769531 -160.945312 85.097656 -158.992188 85.515625 -156.171875 C 85.941406 -153.347656 85.910156 -151.875 85.421875 -151.75 C 77.492188 -150.3125 71.664062 -148.660156 67.9375 -146.796875 C 64.21875 -144.929688 62.359375 -142.078125 62.359375 -138.234375 C 62.359375 -135.710938 63.140625 -131.988281 64.703125 -127.0625 L 100.390625 -38.203125 L 131.203125 -121.65625 C 133.003906 -126.34375 133.90625 -130.425781 133.90625 -133.90625 C 133.90625 -139.070312 132.039062 -143.003906 128.3125 -145.703125 C 124.59375 -148.410156 118.648438 -150.488281 110.484375 -151.9375 C 110.359375 -152.65625 110.296875 -154.035156 110.296875 -156.078125 C 110.296875 -157.515625 110.328125 -158.773438 110.390625 -159.859375 C 110.453125 -160.941406 110.484375 -161.664062 110.484375 -162.03125 L 176.625 -162.03125 L 176.8125 -152.828125 C 174.882812 -151.265625 172.238281 -149.882812 168.875 -148.6875 C 165.75 -147.363281 163.132812 -146.070312 161.03125 -144.8125 C 158.925781 -143.550781 156.882812 -141.535156 154.90625 -138.765625 C 152.925781 -136.003906 151.273438 -132.222656 149.953125 -127.421875 L 85.96875 30.09375 C 80.6875 43.3125 74.410156 53.460938 67.140625 60.546875 C 59.867188 67.640625 50.644531 71.1875 39.46875 71.1875 C 31.414062 71.1875 24.773438 69.296875 19.546875 65.515625 C 14.328125 61.734375 11.71875 56.65625 11.71875 50.28125 C 11.71875 45.59375 13.367188 41.625 16.671875 38.375 C 19.972656 35.132812 23.96875 33.515625 28.65625 33.515625 C 32.863281 33.515625 36.015625 34.234375 38.109375 35.671875 C 40.210938 37.117188 42.289062 39.285156 44.34375 42.171875 C 45.894531 44.335938 47.363281 45.988281 48.75 47.125 C 50.132812 48.269531 52.023438 48.84375 54.421875 48.84375 C 58.148438 48.84375 61.457031 47.160156 64.34375 43.796875 C 67.226562 40.429688 69.960938 35.894531 72.546875 30.1875 C 75.128906 24.476562 78.765625 15.554688 83.453125 3.421875 L 84.703125 0 Z M 28.46875 -128.328125 "/></g></g></g></svg>