<svg xmlns="http://www.w3.org/2000/svg" xmlns:xlink="http://www.w3.org/1999/xlink" width="653" zoomAndPan="magnify" viewBox="0 0 489.75 327.749992" height="437" preserveAspectRatio="xMidYMid meet" version="1.0"><defs><g/></defs><g fill="#231f19" fill-opacity="1"><g transform="translate(88.347062, 193.199059)"><g><path d="M 20.96875 -9.765625 L 43.09375 -9.765625 C 50.75 -9.765625 56.738281 -12.703125 61.0625 -18.578125 C 65.394531 -24.460938 67.5625 -32.5 67.5625 -42.6875 C 67.5625 -52.757812 65.378906 -60.59375 61.015625 -66.1875 C 56.648438 -71.78125 50.347656 -74.613281 42.109375 -74.6875 L 20.96875 -74.6875 Z M 9.53125 -84.46875 L 43.78125 -84.46875 C 54.851562 -84.46875 63.519531 -80.664062 69.78125 -73.0625 C 76.039062 -65.457031 79.171875 -55.582031 79.171875 -43.4375 C 79.171875 -30.414062 76.039062 -19.921875 69.78125 -11.953125 C 63.519531 -3.984375 54.703125 0 43.328125 0 L 9.53125 0 Z M 9.53125 -84.46875 "/></g></g></g><g fill="#231f19" fill-opacity="1"><g transform="translate(112.258108, 212.808876)"><g><path d="M 20.96875 -9.765625 L 43.09375 -9.765625 C 50.75 -9.765625 56.738281 -12.703125 61.0625 -18.578125 C 65.394531 -24.460938 67.5625 -32.5 67.5625 -42.6875 C 67.5625 -52.757812 65.378906 -60.59375 61.015625 -66.1875 C 56.648438 -71.78125 50.347656 -74.613281 42.109375 -74.6875 L 20.96875 -74.6875 Z M 9.53125 -84.46875 L 43.78125 -84.46875 C 54.851562 -84.46875 63.519531 -80.664062 69.78125 -73.0625 C 76.039062 -65.457031 79.171875 -55.582031 79.171875 -43.4375 C 79.171875 -30.414062 76.039062 -19.921875 69.78125 -11.953125 C 63.519531 -3.984375 54.703125 0 43.328125 0 L 9.53125 0 Z M 9.53125 -84.46875 "/></g></g></g><path stroke-linecap="butt" transform="matrix(0.602301, 0.445956, -0.445956, 0.602301, 103.559286, 112.393571)" fill="none" stroke-linejoin="miter" d="M -0.00034347 6.999753 L 50.287906 6.99884 " stroke="#231f19" stroke-width="14" stroke-opacity="1" stroke-miterlimit="4"/><path stroke-linecap="butt" transform="matrix(0.57785, 0.477213, -0.477213, 0.57785, 101.403017, 187.053528)" fill="none" stroke-linejoin="miter" d="M -0.000728303 6.999177 L 41.025422 6.999048 " stroke="#231f19" stroke-width="14" stroke-opacity="1" stroke-miterlimit="4"/><g fill="#231f19" fill-opacity="1"><g transform="translate(195.668985, 206.449706)"><g><path d="M 42.625 -49.15625 C 33.984375 -49.15625 26.109375 -34.265625 19.78125 -19.015625 L 23.8125 -35.046875 C 26.109375 -44.359375 24.09375 -49.25 18.4375 -49.25 C 11.609375 -49.25 8.921875 -45.03125 3.640625 -34.265625 L 4.421875 -33.890625 C 9.125 -42.71875 12 -45.3125 14.109375 -45.3125 C 15.546875 -45.3125 15.84375 -43.578125 14.96875 -40.03125 L 4.984375 0 L 15.078125 0 L 15.359375 -1.34375 C 22.265625 -20.15625 33.796875 -43.015625 38.59375 -43.015625 C 40.984375 -43.015625 38.78125 -36.09375 31.015625 -18.625 L 31.78125 -18.234375 L 48.09375 -46.75 C 46.46875 -48.390625 44.734375 -49.15625 42.625 -49.15625 Z M 42.625 -49.15625 "/></g></g></g><g fill="#231f19" fill-opacity="1"><g transform="translate(241.555585, 206.449706)"><g><path d="M 29.375 -27.453125 L 30.046875 -27.265625 C 36.953125 -38.5 40.890625 -42.234375 43.390625 -42.234375 C 45.125 -42.234375 45.890625 -40.609375 45.5 -37.25 C 44.921875 -29.28125 36.671875 -15.265625 26.875 -4.03125 C 25.828125 -42.34375 22.9375 -49.25 14.6875 -49.25 C 8.546875 -49.25 5.5625 -45.5 1.4375 -33.984375 L 2.203125 -33.796875 C 5.46875 -41.65625 7.96875 -44.25 10.265625 -44.25 C 13.828125 -44.25 15.265625 -36.390625 17.5625 5.46875 C 12 10.171875 6.625 13.34375 2.40625 13.34375 C -3.453125 13.34375 -3.453125 4.703125 1.625 -12.953125 L 1.0625 -13.15625 L -9.3125 14.203125 C -7.484375 16.984375 -4.796875 18.4375 -0.578125 18.4375 C 17.953125 18.4375 50.5 -22.65625 50.5 -41.859375 C 50.5 -47.609375 47.421875 -50.203125 40.03125 -48.859375 Z M 29.375 -27.453125 "/></g></g></g><g fill="#231f19" fill-opacity="1"><g transform="translate(291.570056, 206.449706)"><g><path d="M 4.890625 -12.484375 C 2.6875 -3.9375 3.84375 1.0625 10.171875 1.0625 C 16.890625 1.0625 21.03125 -3.265625 25.34375 -13.734375 L 24.671875 -14.015625 C 19.96875 -5.65625 16.609375 -2.78125 14.40625 -2.78125 C 12.953125 -2.78125 12.765625 -4.3125 13.734375 -8.0625 L 28.515625 -67.203125 L 12 -67.203125 L 11.90625 -66.53125 C 16.125 -64.796875 17.46875 -63.078125 16.609375 -59.328125 Z M 4.890625 -12.484375 "/></g></g></g><g fill="#231f19" fill-opacity="1"><g transform="translate(320.081186, 206.449706)"><g><path d="M 54.046875 -14.296875 C 49.53125 -5.953125 46.265625 -2.78125 43.875 -2.78125 C 42.234375 -2.78125 42.046875 -4.609375 42.71875 -7.296875 L 52.890625 -48.09375 L 51.75 -48.09375 C 49.0625 -44.921875 46.265625 -43.015625 43.390625 -41.953125 C 41.765625 -46.5625 38.6875 -49.25 33.21875 -49.25 C 17.09375 -49.25 4.21875 -32.0625 3.078125 -16.125 C 2.40625 -4.984375 7.578125 1.0625 15.265625 1.0625 C 24.1875 1.0625 30.234375 -7.109375 35.421875 -18.71875 L 33.890625 -12.484375 C 31.78125 -4.421875 33.21875 1.0625 39.640625 1.0625 C 46.265625 1.0625 50.203125 -2.96875 54.8125 -14.015625 Z M 18.625 -3.9375 C 14.40625 -3.9375 12.953125 -8.453125 13.4375 -16.515625 C 14.78125 -32.0625 23.234375 -45.890625 33.890625 -45.890625 C 37.15625 -45.890625 39.84375 -43.96875 40.796875 -40.3125 C 35.609375 -24.953125 27.265625 -3.9375 18.625 -3.9375 Z M 18.625 -3.9375 "/></g></g></g><g fill="#231f19" fill-opacity="1"><g transform="translate(378.351398, 206.449706)"><g><path d="M 40.703125 -49.25 C 30.53125 -49.25 24.09375 -39.078125 18.046875 -24.390625 L 28.703125 -67.203125 L 12 -67.203125 L 11.8125 -66.53125 C 16.3125 -65.28125 17.65625 -63.078125 16.515625 -58.46875 L 2.015625 -0.671875 C 4.984375 0.390625 8.453125 1.0625 12.578125 1.0625 C 36.390625 1.0625 53.5625 -15.359375 53.5625 -34.46875 C 53.5625 -44.25 48.1875 -49.25 40.703125 -49.25 Z M 13.25 -2.203125 L 12.484375 -2.203125 L 12.671875 -3.171875 C 20.25 -23.234375 28.890625 -44.921875 38.296875 -44.921875 C 41.46875 -44.921875 42.90625 -42.140625 42.90625 -36.484375 C 42.90625 -17.953125 29.765625 -2.203125 13.25 -2.203125 Z M 13.25 -2.203125 "/></g></g></g></svg>