<svg xmlns="http://www.w3.org/2000/svg" xmlns:xlink="http://www.w3.org/1999/xlink" width="500" zoomAndPan="magnify" viewBox="0 0 375 374.999991" height="500" preserveAspectRatio="xMidYMid meet" version="1.0"><defs><clipPath id="8f684afd29"><path d="M 331 35 L 359.578125 35 L 359.578125 46 L 331 46 Z M 331 35 " clip-rule="nonzero"/></clipPath><clipPath id="57075b66a7"><path d="M 225.703125 166.113281 L 268.476562 166.113281 L 268.476562 208.886719 L 225.703125 208.886719 Z M 225.703125 166.113281 " clip-rule="nonzero"/></clipPath><clipPath id="7180587c61"><path d="M 247.089844 166.113281 C 235.277344 166.113281 225.703125 175.6875 225.703125 187.5 C 225.703125 199.3125 235.277344 208.886719 247.089844 208.886719 C 258.902344 208.886719 268.476562 199.3125 268.476562 187.5 C 268.476562 175.6875 258.902344 166.113281 247.089844 166.113281 Z M 247.089844 166.113281 " clip-rule="nonzero"/></clipPath><clipPath id="f1a34e8ec7"><path d="M 97.925781 94.605469 L 123.664062 94.605469 L 123.664062 120.34375 L 97.925781 120.34375 Z M 97.925781 94.605469 " clip-rule="nonzero"/></clipPath><clipPath id="be2789b101"><path d="M 110.792969 94.605469 C 103.6875 94.605469 97.925781 100.367188 97.925781 107.476562 C 97.925781 114.582031 103.6875 120.34375 110.792969 120.34375 C 117.902344 120.34375 123.664062 114.582031 123.664062 107.476562 C 123.664062 100.367188 117.902344 94.605469 110.792969 94.605469 Z M 110.792969 94.605469 " clip-rule="nonzero"/></clipPath><clipPath id="e6279bfa41"><path d="M 99.023438 137.921875 L 146.652344 137.921875 L 146.652344 185.921875 L 99.023438 185.921875 Z M 99.023438 137.921875 " clip-rule="nonzero"/></clipPath><clipPath id="93b6a600e5"><path d="M 122.839844 137.921875 C 109.6875 137.921875 99.023438 148.648438 99.023438 161.886719 C 99.023438 175.121094 109.6875 185.851562 122.839844 185.851562 C 135.992188 185.851562 146.652344 175.121094 146.652344 161.886719 C 146.652344 148.648438 135.992188 137.921875 122.839844 137.921875 Z M 122.839844 137.921875 " clip-rule="nonzero"/></clipPath><clipPath id="eab725a166"><path d="M 163.226562 99.371094 L 223.902344 99.371094 L 223.902344 160.285156 L 163.226562 160.285156 Z M 163.226562 99.371094 " clip-rule="nonzero"/></clipPath><clipPath id="5b2c744a9f"><path d="M 193.5625 99.371094 C 176.808594 99.371094 163.226562 112.988281 163.226562 129.785156 C 163.226562 146.582031 176.808594 160.199219 193.5625 160.199219 C 210.320312 160.199219 223.902344 146.582031 223.902344 129.785156 C 223.902344 112.988281 210.320312 99.371094 193.5625 99.371094 Z M 193.5625 99.371094 " clip-rule="nonzero"/></clipPath><clipPath id="d717a1e4ab"><path d="M 112 171 L 140 171 L 140 183 L 112 183 Z M 112 171 " clip-rule="nonzero"/></clipPath><clipPath id="27d2285626"><path d="M 140.308594 172.214844 L 130.074219 189.6875 L 112.601562 179.457031 L 122.832031 161.980469 Z M 140.308594 172.214844 " clip-rule="nonzero"/></clipPath><clipPath id="49a9d8fa10"><path d="M 140.308594 172.214844 L 130.074219 189.6875 L 112.601562 179.457031 L 122.832031 161.980469 Z M 140.308594 172.214844 " clip-rule="nonzero"/></clipPath><clipPath id="e5cf193a99"><path d="M 140.308594 172.214844 L 130.074219 189.6875 L 112.601562 179.457031 L 122.832031 161.980469 Z M 140.308594 172.214844 " clip-rule="nonzero"/></clipPath><clipPath id="abd11e3967"><path d="M 206 118 L 220 118 L 220 150 L 206 150 Z M 206 118 " clip-rule="nonzero"/></clipPath><clipPath id="9c1bea287e"><path d="M 216.734375 118.394531 L 227.53125 138.988281 L 206.941406 149.78125 L 196.144531 129.191406 Z M 216.734375 118.394531 " clip-rule="nonzero"/></clipPath><clipPath id="391da60537"><path d="M 216.734375 118.394531 L 227.53125 138.988281 L 206.941406 149.78125 L 196.144531 129.191406 Z M 216.734375 118.394531 " clip-rule="nonzero"/></clipPath><clipPath id="413d2bdb70"><path d="M 216.734375 118.394531 L 227.53125 138.988281 L 206.941406 149.78125 L 196.144531 129.191406 Z M 216.734375 118.394531 " clip-rule="nonzero"/></clipPath></defs><path fill="#000000" d="M 329.21875 251.019531 C 329.21875 250.898438 329.21875 60.0625 329.21875 60.0625 C 329.21875 50.859375 319.839844 42.496094 308.371094 42.496094 C 297.515625 42.496094 286.605469 42.796875 275.800781 43.894531 L 44.238281 43.894531 C 30.976562 43.894531 20.191406 54.65625 20.191406 67.894531 L 20.191406 242.296875 C 20.191406 255.558594 30.976562 266.351562 44.238281 266.351562 L 194.578125 266.351562 C 194.226562 268.226562 194.4375 268.914062 194.257812 270.203125 C 192.238281 288.925781 192.929688 313.546875 208.535156 323.9375 C 211.160156 325.691406 213.859375 326.820312 216.054688 327.617188 C 213.652344 327.902344 209.980469 328.191406 204.414062 328.414062 C 202.402344 327.566406 196.542969 329.492188 145.164062 328.476562 C 135.515625 328.269531 129.601562 328.527344 121.910156 327.613281 C 124.117188 326.816406 126.820312 325.691406 129.429688 323.945312 C 141.769531 315.730469 146.554688 297.65625 143.65625 270.207031 C 143.53125 269 142.507812 268.199219 141.25 268.261719 C 140.050781 268.386719 139.179688 269.460938 139.304688 270.664062 C 145.652344 330.726562 113.054688 320.332031 113.738281 328.164062 C 113.953125 330.640625 114.125 332.601562 145.144531 333.089844 C 153.996094 333.25 206.363281 333.769531 218.78125 331.585938 C 229.40625 331.019531 232.96875 330.097656 233.050781 329.109375 C 233.296875 326.265625 215.082031 328.453125 208.859375 304.914062 C 206.105469 294.710938 206.425781 283.820312 207.304688 273.246094 C 207.519531 270.933594 208.449219 268.621094 209.160156 266.351562 L 209.199219 266.351562 C 207.875 272.664062 208.402344 278.664062 211.066406 285.535156 C 212.925781 290.320312 215.566406 293.617188 218.90625 295.347656 C 227.09375 299.59375 243.15625 293.757812 249.898438 302.816406 C 251.585938 305.070312 252.71875 307.496094 254.863281 310.527344 C 248.710938 314.578125 245.644531 322.484375 245.433594 329.566406 C 245.242188 336.191406 248.113281 341.410156 252.023438 346.351562 C 252.761719 334.894531 262.332031 325.605469 271.425781 318.6875 C 265.074219 312.949219 258.828125 312.472656 257 311.910156 C 258.839844 311.871094 259.730469 309.820312 258.707031 308.441406 C 256.785156 305.824219 255.433594 302.917969 253.402344 300.199219 C 245.152344 289.117188 227.578125 294.925781 220.917969 291.464844 C 218.546875 290.238281 216.605469 287.710938 215.140625 283.953125 C 212.644531 277.503906 212.210938 272.199219 213.628906 266.351562 C 309.085938 266.292969 269.703125 265.988281 310.34375 267.449219 C 319.183594 267.75 329.21875 260.398438 329.21875 251.019531 Z M 24.5625 242.296875 L 24.5625 67.894531 C 24.5625 57.070312 33.386719 48.265625 44.238281 48.265625 L 285.554688 48.265625 C 296.402344 48.265625 305.230469 57.070312 305.230469 67.894531 L 305.230469 242.296875 C 305.230469 253.152344 296.402344 261.980469 285.554688 261.980469 L 44.238281 261.980469 C 33.386719 261.980469 24.5625 253.152344 24.5625 242.296875 Z M 24.5625 242.296875 " fill-opacity="1" fill-rule="nonzero"/><path fill="#000000" d="M 53.523438 81.488281 C 52.320312 81.488281 51.339844 82.460938 51.335938 83.667969 C 51.335938 84.875 52.3125 85.855469 53.519531 85.863281 L 269.417969 86.429688 C 269.421875 86.429688 269.421875 86.429688 269.421875 86.429688 C 270.628906 86.429688 271.605469 85.457031 271.609375 84.25 C 271.613281 83.042969 270.636719 82.0625 269.429688 82.058594 L 53.53125 81.488281 C 53.527344 81.488281 53.527344 81.488281 53.523438 81.488281 Z M 53.523438 81.488281 " fill-opacity="1" fill-rule="nonzero"/><path fill="#000000" d="M 278.378906 223.363281 L 32.203125 222.796875 C 32.199219 222.796875 32.199219 222.796875 32.199219 222.796875 C 30.992188 222.796875 30.015625 223.769531 30.011719 224.976562 C 30.007812 226.183594 30.984375 227.167969 32.191406 227.167969 L 278.367188 227.738281 C 278.371094 227.738281 278.371094 227.738281 278.375 227.738281 C 279.578125 227.738281 280.558594 226.765625 280.558594 225.558594 C 280.5625 224.351562 279.585938 223.363281 278.378906 223.363281 Z M 278.378906 223.363281 " fill-opacity="1" fill-rule="nonzero"/><path fill="#000000" d="M 168.972656 236.992188 C 164.757812 236.992188 161.34375 240.550781 161.34375 244.941406 C 161.34375 249.328125 164.757812 252.886719 168.972656 252.886719 C 173.1875 252.886719 176.601562 249.328125 176.601562 244.941406 C 176.601562 240.550781 173.1875 236.992188 168.972656 236.992188 Z M 168.972656 236.992188 " fill-opacity="1" fill-rule="nonzero"/><path fill="#000000" d="M 349.167969 11.714844 C 349.8125 10.917969 350.484375 9.960938 350.261719 8.960938 C 350.035156 7.933594 348.894531 7.320312 347.839844 7.347656 C 346.789062 7.378906 345.820312 7.890625 344.910156 8.417969 C 336.34375 13.386719 329.328125 20.585938 322.429688 27.699219 C 321.375 28.785156 319.675781 30.605469 320.097656 32.292969 C 320.511719 33.9375 322.746094 34.925781 324.28125 34.773438 C 326.285156 34.578125 327.976562 33.246094 329.507812 31.9375 C 336.671875 25.828125 343.261719 19.046875 349.167969 11.714844 Z M 349.167969 11.714844 " fill-opacity="1" fill-rule="nonzero"/><g clip-path="url(#8f684afd29)"><path fill="#000000" d="M 332.890625 44.785156 C 334.242188 45.417969 335.820312 45.207031 337.289062 44.953125 C 344.148438 43.769531 350.898438 41.941406 357.421875 39.503906 C 358.128906 39.238281 358.917969 38.882812 359.15625 38.164062 C 359.394531 37.425781 358.902344 36.601562 358.222656 36.222656 C 357.542969 35.84375 356.730469 35.808594 355.953125 35.800781 C 348.628906 35.730469 341.449219 37.664062 334.382812 39.585938 C 333.300781 39.878906 331.535156 40.398438 331.167969 41.628906 C 330.808594 42.835938 331.859375 44.304688 332.890625 44.785156 Z M 332.890625 44.785156 " fill-opacity="1" fill-rule="nonzero"/></g><path fill="#000000" d="M 311.601562 26.066406 C 314.496094 23.417969 315.792969 6.277344 315.929688 2.328125 C 315.957031 1.601562 315.929688 0.769531 315.378906 0.296875 C 314.8125 -0.191406 313.898438 -0.0546875 313.3125 0.410156 C 312.726562 0.875 312.394531 1.582031 312.101562 2.269531 C 309.34375 8.75 308.425781 15.839844 307.53125 22.828125 C 307.390625 23.898438 307.203125 25.65625 308.164062 26.4375 C 309.101562 27.195312 310.792969 26.804688 311.601562 26.066406 Z M 311.601562 26.066406 " fill-opacity="1" fill-rule="nonzero"/><path fill="#000000" d="M 55.652344 70.664062 C 58.574219 70.664062 60.945312 68.292969 60.945312 65.367188 C 60.945312 62.441406 58.574219 60.070312 55.652344 60.070312 C 52.726562 60.070312 50.355469 62.441406 50.355469 65.367188 C 50.355469 68.292969 52.726562 70.664062 55.652344 70.664062 Z M 55.652344 70.664062 " fill-opacity="1" fill-rule="nonzero"/><path fill="#000000" d="M 76.800781 70.664062 C 79.726562 70.664062 82.097656 68.292969 82.097656 65.367188 C 82.097656 62.441406 79.726562 60.070312 76.800781 60.070312 C 73.875 60.070312 71.507812 62.441406 71.507812 65.367188 C 71.507812 68.292969 73.875 70.664062 76.800781 70.664062 Z M 76.800781 70.664062 " fill-opacity="1" fill-rule="nonzero"/><path fill="#000000" d="M 97.953125 70.664062 C 100.878906 70.664062 103.246094 68.292969 103.246094 65.367188 C 103.246094 62.441406 100.878906 60.070312 97.953125 60.070312 C 95.027344 60.070312 92.65625 62.441406 92.65625 65.367188 C 92.65625 68.292969 95.027344 70.664062 97.953125 70.664062 Z M 97.953125 70.664062 " fill-opacity="1" fill-rule="nonzero"/><path fill="#000000" d="M 150.734375 166.769531 C 153.453125 151.378906 143.191406 136.691406 127.789062 133.980469 C 123.800781 133.28125 119.863281 133.492188 116.160156 134.40625 C 115.609375 129.027344 114.957031 123.691406 114.296875 118.375 C 117.675781 116.851562 120.265625 113.742188 120.957031 109.816406 C 122.070312 103.511719 117.863281 97.496094 111.554688 96.382812 C 105.25 95.269531 99.238281 99.480469 98.125 105.785156 C 97.011719 112.09375 101.222656 118.109375 107.527344 119.222656 C 108.367188 119.371094 109.195312 119.410156 110.011719 119.378906 C 110.6875 124.839844 111.367188 130.3125 111.921875 135.828125 C 96.226562 142.464844 89.542969 161.371094 98.835938 176.550781 L 84.050781 186.34375 C 81.566406 182.820312 77.75 180.238281 73.171875 179.429688 C 63.972656 177.804688 55.195312 183.949219 53.570312 193.152344 C 51.949219 202.359375 58.089844 211.136719 67.292969 212.761719 C 76.492188 214.382812 85.269531 208.242188 86.890625 199.035156 C 87.433594 195.972656 87.046875 192.988281 86.042969 190.269531 L 101.414062 180.085938 C 117.007812 198.511719 146.609375 190.171875 150.734375 166.769531 Z M 127.035156 138.289062 C 140.042969 140.585938 148.726562 152.984375 146.429688 166.007812 C 142.75 186.816406 115.492188 193.023438 103.277344 175.574219 C 91.152344 158.234375 106.027344 134.589844 127.035156 138.289062 Z M 127.035156 138.289062 " fill-opacity="1" fill-rule="nonzero"/><path fill="#000000" d="M 109.316406 166.808594 C 106.4375 161.730469 107.234375 154.660156 111.171875 150.363281 C 113.128906 148.234375 109.910156 145.273438 107.949219 147.410156 C 102.703125 153.136719 101.679688 162.203125 105.515625 168.960938 C 106.933594 171.484375 110.746094 169.324219 109.316406 166.808594 Z M 109.316406 166.808594 " fill-opacity="1" fill-rule="nonzero"/><path fill="#000000" d="M 225.996094 186.945312 C 225.996094 198.59375 235.4375 208.035156 247.082031 208.035156 C 258.726562 208.035156 268.167969 198.59375 268.167969 186.945312 C 268.167969 175.296875 258.726562 165.851562 247.082031 165.851562 C 243.011719 165.851562 239.242188 167.0625 236.015625 169.0625 C 229.851562 162.628906 221.132812 153.242188 219.96875 152.335938 C 231.539062 138.882812 231.046875 119.179688 219.3125 106.320312 C 218.503906 105.429688 217.117188 105.367188 216.222656 106.175781 C 215.332031 106.992188 215.269531 108.375 216.085938 109.269531 C 233.734375 128.617188 220.015625 160.089844 193.660156 160.089844 C 176.929688 160.089844 163.3125 146.472656 163.3125 129.734375 C 163.3125 112.988281 176.929688 99.371094 193.660156 99.371094 C 198.476562 99.371094 203.085938 100.46875 207.359375 102.632812 C 208.457031 103.179688 209.753906 102.742188 210.300781 101.667969 C 210.847656 100.589844 210.414062 99.273438 209.335938 98.726562 C 204.441406 96.25 199.167969 94.996094 193.660156 94.996094 C 174.515625 94.996094 158.9375 110.578125 158.9375 129.734375 C 158.9375 159.90625 194.855469 175.617188 217.039062 155.339844 C 225.289062 164.070312 233.128906 172.371094 232.527344 171.738281 C 228.519531 175.578125 225.996094 180.953125 225.996094 186.945312 Z M 225.996094 186.945312 " fill-opacity="1" fill-rule="nonzero"/><path fill="#000000" d="M 199.101562 146.808594 C 196.382812 147.699219 197.679688 151.882812 200.464844 150.964844 C 207.664062 148.609375 213.789062 142.222656 216.449219 134.300781 C 217.367188 131.5625 213.226562 130.160156 212.304688 132.910156 C 210.074219 139.546875 205.015625 144.871094 199.101562 146.808594 Z M 199.101562 146.808594 " fill-opacity="1" fill-rule="nonzero"/><path fill="#000000" d="M 259.652344 308.179688 C 265.628906 309.453125 270.777344 312.125 274.996094 316.183594 C 280.367188 312.707031 286.238281 310.3125 292.785156 310.113281 C 281.523438 305.085938 268.847656 304.898438 259.652344 308.179688 Z M 259.652344 308.179688 " fill-opacity="1" fill-rule="nonzero"/><path fill="#000000" d="M 259.648438 336.679688 C 257.925781 339.433594 255.929688 343.730469 256.195312 348.546875 C 256.234375 349.257812 255.894531 349.875 255.378906 350.292969 C 266.757812 363.328125 280.882812 374.953125 298.175781 373.058594 C 306.957031 372.09375 315.484375 366.800781 318.980469 358.6875 C 324.742188 345.332031 317.929688 332.394531 309.132812 322.394531 C 306.835938 319.785156 304.320312 317.363281 301.554688 315.261719 C 300.511719 314.464844 299.40625 313.753906 298.296875 313.058594 C 297.960938 313.96875 297.054688 314.566406 296.082031 314.480469 C 291.441406 313.914062 286.328125 314.957031 281.296875 317.460938 C 273.441406 321.363281 263.429688 330.609375 259.648438 336.679688 Z M 259.648438 336.679688 " fill-opacity="1" fill-rule="nonzero"/><g clip-path="url(#57075b66a7)"><g clip-path="url(#7180587c61)"><path fill="#ef4444" d="M 225.703125 166.113281 L 268.476562 166.113281 L 268.476562 208.886719 L 225.703125 208.886719 Z M 225.703125 166.113281 " fill-opacity="1" fill-rule="nonzero"/></g></g><g clip-path="url(#f1a34e8ec7)"><g clip-path="url(#be2789b101)"><path fill="#ef4444" d="M 97.925781 94.605469 L 123.664062 94.605469 L 123.664062 120.34375 L 97.925781 120.34375 Z M 97.925781 94.605469 " fill-opacity="1" fill-rule="nonzero"/></g></g><g clip-path="url(#e6279bfa41)"><g clip-path="url(#93b6a600e5)"><path fill="#ffffff" d="M 99.023438 137.921875 L 146.652344 137.921875 L 146.652344 185.921875 L 99.023438 185.921875 Z M 99.023438 137.921875 " fill-opacity="1" fill-rule="nonzero"/></g></g><g clip-path="url(#eab725a166)"><g clip-path="url(#5b2c744a9f)"><path fill="#ffffff" d="M 163.226562 99.371094 L 223.902344 99.371094 L 223.902344 160.285156 L 163.226562 160.285156 Z M 163.226562 99.371094 " fill-opacity="1" fill-rule="nonzero"/></g></g><g clip-path="url(#d717a1e4ab)"><g clip-path="url(#27d2285626)"><g clip-path="url(#49a9d8fa10)"><g clip-path="url(#e5cf193a99)"><path fill="#000000" d="M 113.109375 178.585938 C 113.390625 178.105469 114.007812 177.945312 114.488281 178.226562 C 122.6875 183.023438 133.257812 180.261719 138.058594 172.066406 C 138.339844 171.585938 138.957031 171.421875 139.4375 171.703125 C 139.917969 171.984375 140.078125 172.605469 139.796875 173.085938 C 138.488281 175.324219 136.773438 177.242188 134.707031 178.785156 C 132.714844 180.273438 130.476562 181.34375 128.0625 181.976562 C 125.644531 182.609375 123.167969 182.765625 120.699219 182.445312 C 118.144531 182.113281 115.714844 181.277344 113.472656 179.964844 C 112.992188 179.683594 112.828125 179.066406 113.109375 178.585938 Z M 113.109375 178.585938 " fill-opacity="1" fill-rule="nonzero"/></g></g></g></g><g clip-path="url(#abd11e3967)"><g clip-path="url(#9c1bea287e)"><g clip-path="url(#391da60537)"><g clip-path="url(#413d2bdb70)"><path fill="#000000" d="M 206.402344 148.757812 C 206.105469 148.191406 206.324219 147.492188 206.890625 147.195312 C 216.546875 142.132812 220.285156 130.152344 215.222656 120.496094 C 214.925781 119.929688 215.144531 119.230469 215.710938 118.933594 C 216.277344 118.636719 216.976562 118.855469 217.273438 119.421875 C 218.65625 122.0625 219.484375 124.894531 219.730469 127.84375 C 219.964844 130.691406 219.652344 133.523438 218.796875 136.257812 C 217.941406 138.996094 216.589844 141.503906 214.777344 143.710938 C 212.898438 145.996094 210.605469 147.859375 207.964844 149.242188 C 207.398438 149.542969 206.699219 149.324219 206.402344 148.757812 Z M 206.402344 148.757812 " fill-opacity="1" fill-rule="nonzero"/></g></g></g></g></svg>