<svg xmlns="http://www.w3.org/2000/svg" xmlns:xlink="http://www.w3.org/1999/xlink" width="500" zoomAndPan="magnify" viewBox="0 0 375 374.999991" height="500" preserveAspectRatio="xMidYMid meet" version="1.0"><path fill="#000000" d="M 287.132812 134.289062 L 281.023438 127.667969 L 275.703125 133.492188 C 277.910156 135.253906 280.054688 137.089844 282.132812 139.011719 C 283.808594 137.445312 285.460938 135.863281 287.132812 134.289062 Z M 287.132812 134.289062 " fill-opacity="1" fill-rule="nonzero"/><path fill="#000000" d="M 187.152344 277.394531 C 186.53125 277.929688 185.773438 278.191406 185.007812 278.191406 C 184.132812 278.191406 183.25 277.839844 182.609375 277.148438 L 174.921875 268.855469 C 173.609375 270.15625 172.296875 271.449219 170.980469 272.75 C 172.898438 274.539062 174.890625 276.253906 177.140625 278.089844 C 178.511719 279.210938 179.929688 280.367188 181.402344 281.621094 C 182.046875 282.171875 182.453125 282.957031 182.53125 283.796875 C 182.839844 287.058594 182.53125 290.226562 182.246094 293.289062 L 182.066406 295.160156 C 181.792969 298.347656 181.65625 301.699219 182.539062 304.65625 C 183.367188 307.441406 185.199219 309.644531 187.304688 310.394531 C 189.257812 311.09375 191.734375 310.28125 192.429688 308.726562 C 193.128906 307.160156 192.492188 304.78125 191.886719 302.476562 C 189.433594 293.207031 188.917969 283.832031 190.207031 274.699219 C 189.179688 275.59375 188.179688 276.5 187.148438 277.394531 Z M 187.152344 277.394531 " fill-opacity="1" fill-rule="nonzero"/><path fill="#000000" d="M 304.757812 116.027344 C 305.535156 114.164062 305.574219 111.492188 304.128906 110.199219 C 303.449219 109.585938 302.480469 109.332031 301.46875 109.332031 C 300.457031 109.332031 299.402344 109.585938 298.527344 109.996094 C 297.894531 110.296875 297.292969 110.675781 296.710938 111.101562 C 298.800781 113.644531 300.964844 116.152344 303.179688 118.628906 C 303.808594 117.796875 304.378906 116.941406 304.757812 116.027344 Z M 304.757812 116.027344 " fill-opacity="1" fill-rule="nonzero"/><path fill="#000000" d="M 298.664062 123.398438 C 296.375 120.855469 294.167969 118.269531 292.003906 115.648438 L 285.449219 122.828125 L 291.886719 129.804688 C 294.140625 127.667969 296.421875 125.539062 298.664062 123.402344 Z M 298.664062 123.398438 " fill-opacity="1" fill-rule="nonzero"/><path fill="#000000" d="M 259.375 125.011719 C 273.945312 110.207031 289.015625 94.90625 304.808594 79.796875 C 306.058594 78.601562 308.019531 78.582031 309.285156 79.757812 C 314.867188 84.898438 325.464844 96.0625 334.195312 105.273438 C 338.367188 101.425781 342.515625 97.472656 346.699219 93.671875 C 338.640625 86.269531 330.667969 78.429688 322.933594 70.820312 C 314.378906 62.402344 305.535156 53.703125 296.652344 45.679688 C 296.167969 45.242188 295.820312 44.660156 295.671875 44.027344 C 292.003906 28.914062 281.597656 15.574219 267.832031 8.335938 C 254.074219 1.105469 237.171875 0.0976562 222.640625 5.636719 C 218.605469 7.171875 216.246094 8.949219 215.421875 11.058594 C 214.972656 12.230469 215.324219 14.222656 216.175781 15.25 C 216.300781 15.398438 216.496094 15.667969 216.71875 15.628906 C 225.574219 13.972656 236.050781 12.523438 246.648438 14.210938 C 258.066406 16.03125 267.589844 21.363281 273.464844 29.214844 C 280.390625 38.46875 281.34375 51.152344 275.789062 60.085938 C 271.238281 67.402344 263.660156 71.132812 256.335938 74.746094 C 253.125 76.332031 250.085938 77.824219 247.292969 79.605469 C 238.613281 85.125 231.214844 94.324219 224.671875 107.730469 C 222.28125 112.628906 220.101562 117.785156 218 122.769531 C 215.199219 129.40625 212.304688 136.261719 208.800781 142.773438 C 206.730469 146.621094 204.414062 150.273438 201.996094 153.855469 L 216.363281 167.902344 C 231.261719 153.566406 245.542969 139.0625 259.378906 125.011719 Z M 259.375 125.011719 " fill-opacity="1" fill-rule="nonzero"/><path fill="#000000" d="M 277.347656 143.488281 C 275.386719 141.691406 273.367188 139.972656 271.289062 138.320312 L 266.976562 143.042969 L 272.023438 148.417969 C 273.800781 146.765625 275.578125 145.140625 277.355469 143.488281 Z M 277.347656 143.488281 " fill-opacity="1" fill-rule="nonzero"/><path fill="#000000" d="M 315.90625 181 C 316.84375 180.078125 317.777344 179.164062 318.730469 178.230469 C 315.679688 174.65625 312.554688 171.195312 309.421875 167.738281 L 306.855469 164.882812 C 304.855469 166.875 302.828125 168.878906 300.820312 170.878906 C 304.859375 175.222656 308.984375 179.523438 313.265625 183.59375 C 314.164062 182.71875 315.03125 181.863281 315.902344 181.007812 Z M 315.90625 181 " fill-opacity="1" fill-rule="nonzero"/><path fill="#000000" d="M 333.8125 114.367188 C 286.605469 158.09375 239.914062 204.425781 194.578125 249.414062 C 189.597656 254.351562 184.566406 259.304688 179.578125 264.25 L 185.257812 270.378906 C 241.347656 221.617188 292.75 170.195312 340.667969 121.515625 C 338.9375 119.75 336.5625 117.261719 333.8125 114.367188 Z M 333.8125 114.367188 " fill-opacity="1" fill-rule="nonzero"/><path fill="#000000" d="M 267.222656 152.863281 L 262.550781 147.890625 L 259.5 151.226562 C 259.183594 151.574219 258.746094 151.964844 258.386719 152.332031 L 262.621094 157.121094 C 264.160156 155.710938 265.6875 154.277344 267.21875 152.867188 Z M 267.222656 152.863281 " fill-opacity="1" fill-rule="nonzero"/><path fill="#000000" d="M 189.96875 244.777344 C 235.347656 199.75 282.121094 153.515625 329.40625 109.71875 C 321.824219 101.714844 312.835938 92.246094 307.078125 86.667969 C 292.167969 101.007812 277.871094 115.523438 264.027344 129.589844 C 249.457031 144.394531 234.386719 159.695312 218.59375 174.804688 C 217.320312 176.019531 215.3125 176.007812 214.050781 174.78125 L 198.191406 159.269531 C 187.828125 173.246094 175.277344 185.457031 163.007812 197.34375 C 152.050781 207.960938 140.605469 219.605469 129.542969 230.855469 C 119.3125 241.261719 108.761719 251.988281 98.546875 261.964844 L 137.679688 296.5 C 155.214844 279.257812 172.621094 261.992188 189.96875 244.769531 Z M 245.59375 157.421875 C 246.855469 154.285156 249.699219 151.605469 252.210938 149.242188 C 253.113281 148.394531 253.980469 147.582031 254.675781 146.820312 L 287.316406 111.089844 C 289.59375 108.601562 292.167969 105.777344 295.742188 104.09375 C 300.199219 102 305.320312 102.496094 308.488281 105.332031 C 312.410156 108.847656 312.46875 114.492188 310.796875 118.535156 C 309.1875 122.398438 306.148438 125.296875 303.703125 127.636719 C 290.632812 140.117188 277.246094 152.625 263.921875 164.832031 C 262.054688 166.542969 258.378906 169.898438 253.882812 169.898438 C 253.347656 169.898438 252.796875 169.855469 252.25 169.75 C 249.6875 169.273438 247.472656 167.621094 246.152344 165.230469 C 244.796875 162.765625 244.601562 159.921875 245.609375 157.433594 Z M 245.59375 157.421875 " fill-opacity="1" fill-rule="nonzero"/><path fill="#000000" d="M 103.984375 290.730469 L 90.558594 305.714844 C 69.921875 328.734375 47.28125 353.984375 28.953125 375.269531 C 58.125 352.332031 90.742188 323.226562 114.695312 301.769531 C 111.050781 297.796875 107.460938 294.121094 103.984375 290.730469 Z M 103.984375 290.730469 " fill-opacity="1" fill-rule="nonzero"/><path fill="#000000" d="M 103.605469 281.335938 C 109.75 286.960938 116.394531 293.765625 123.082031 301.285156 L 128.097656 296.765625 L 106.710938 277.890625 L 103.605469 281.328125 Z M 103.605469 281.335938 " fill-opacity="1" fill-rule="nonzero"/><path fill="#000000" d="M 253.433594 163.320312 C 254.757812 163.574219 256.257812 162.714844 257.773438 161.492188 L 253.726562 156.925781 C 252.792969 157.945312 252.019531 158.945312 251.65625 159.859375 C 251.386719 160.519531 251.472656 161.347656 251.871094 162.074219 C 252.242188 162.746094 252.8125 163.195312 253.433594 163.3125 Z M 253.433594 163.320312 " fill-opacity="1" fill-rule="nonzero"/></svg>