<svg xmlns="http://www.w3.org/2000/svg" xmlns:xlink="http://www.w3.org/1999/xlink" width="500" zoomAndPan="magnify" viewBox="0 0 375 374.999991" height="500" preserveAspectRatio="xMidYMid meet" version="1.0"><defs><clipPath id="97b0003bd6"><path d="M 0 0 L 336.75 0 L 336.75 375 L 0 375 Z M 0 0 " clip-rule="nonzero"/></clipPath><clipPath id="c49a23e211"><path d="M 195 58 L 313 58 L 313 147 L 195 147 Z M 195 58 " clip-rule="nonzero"/></clipPath><clipPath id="6d6a94b455"><path d="M 214.0625 58.890625 L 312.097656 114.078125 L 293.859375 146.476562 L 195.824219 91.292969 Z M 214.0625 58.890625 " clip-rule="nonzero"/></clipPath><clipPath id="cf444d3f3c"><path d="M 162 90 L 304 90 L 304 222 L 162 222 Z M 162 90 " clip-rule="nonzero"/></clipPath><clipPath id="9af654a7c9"><path d="M 206.078125 90.601562 L 303.621094 146.648438 L 260.335938 221.980469 L 162.792969 165.933594 Z M 206.078125 90.601562 " clip-rule="nonzero"/></clipPath><clipPath id="daa35c73c5"><path d="M 154.464844 135.878906 L 187.5 135.878906 L 187.5 168.914062 L 154.464844 168.914062 Z M 154.464844 135.878906 " clip-rule="nonzero"/></clipPath><clipPath id="a91170c545"><path d="M 170.980469 135.878906 C 161.859375 135.878906 154.464844 143.273438 154.464844 152.398438 C 154.464844 161.519531 161.859375 168.914062 170.980469 168.914062 C 180.105469 168.914062 187.5 161.519531 187.5 152.398438 C 187.5 143.273438 180.105469 135.878906 170.980469 135.878906 Z M 170.980469 135.878906 " clip-rule="nonzero"/></clipPath><clipPath id="1728577ad1"><path d="M 283.136719 108.128906 L 316.171875 108.128906 L 316.171875 141.164062 L 283.136719 141.164062 Z M 283.136719 108.128906 " clip-rule="nonzero"/></clipPath><clipPath id="eb018e5a05"><path d="M 299.65625 108.128906 C 290.53125 108.128906 283.136719 115.523438 283.136719 124.644531 C 283.136719 133.769531 290.53125 141.164062 299.65625 141.164062 C 308.777344 141.164062 316.171875 133.769531 316.171875 124.644531 C 316.171875 115.523438 308.777344 108.128906 299.65625 108.128906 Z M 299.65625 108.128906 " clip-rule="nonzero"/></clipPath><clipPath id="5ab2d0df97"><path d="M 187.5 90.292969 L 279 90.292969 L 279 181.792969 L 187.5 181.792969 Z M 187.5 90.292969 " clip-rule="nonzero"/></clipPath></defs><path fill="#fefefe" d="M 180.960938 373.835938 C 177.515625 373.835938 174.0625 372.941406 170.972656 371.15625 L 7.59375 276.835938 C 3.585938 274.519531 1.117188 270.246094 1.117188 265.617188 C 1.117188 260.988281 3.585938 256.714844 7.59375 254.398438 L 9.394531 253.359375 L 186.78125 266.71875 C 185.046875 272.695312 183.648438 278.792969 182.414062 284.828125 C 180.78125 292.800781 180.378906 301.800781 180.953125 309.914062 L 180.953125 373.835938 Z M 180.960938 373.835938 " fill-opacity="1" fill-rule="nonzero"/><path fill="#231f19" d="M 324.207031 289.160156 C 324.207031 292.292969 322.539062 295.1875 319.824219 296.753906 L 190.949219 371.164062 C 187.859375 372.949219 184.40625 373.84375 180.960938 373.84375 L 180.960938 309.917969 C 180.394531 301.804688 180.789062 292.800781 182.421875 284.835938 C 183.65625 278.800781 185.054688 272.703125 186.789062 266.726562 L 319.824219 276.746094 C 322.53125 278.308594 324.207031 281.203125 324.207031 284.335938 Z M 324.207031 289.160156 " fill-opacity="1" fill-rule="nonzero"/><path fill="#fefefe" d="M 303.6875 270.023438 L 276.800781 254.511719 C 275.960938 253.953125 275.394531 252.964844 275.394531 251.800781 C 275.394531 249.429688 276.742188 245.773438 279.925781 244.105469 C 281.132812 243.472656 282.40625 243.59375 283.296875 244.308594 L 310.027344 259.746094 M 190.453125 190.765625 L 163.722656 175.332031 C 162.820312 174.617188 161.550781 174.496094 160.351562 175.128906 C 157.164062 176.796875 155.816406 180.457031 155.816406 182.824219 C 155.816406 183.988281 156.375 184.976562 157.222656 185.535156 L 184.109375 201.046875 M 329.953125 267.097656 C 333.511719 265.042969 335.707031 261.246094 335.707031 257.140625 L 335.707031 114.414062 C 335.707031 111.058594 334.804688 107.820312 333.183594 105.011719 L 319.109375 113.140625 C 299.480469 121.039062 283.460938 134.324219 267.734375 148.476562 C 261.40625 154.167969 255.015625 159.976562 248.957031 166.0625 L 318.199219 266.949219 L 318.453125 267.097656 C 322.011719 269.152344 326.394531 269.152344 329.953125 267.097656 Z M 211.128906 348.953125 L 199.347656 355.753906 C 198.4375 356.285156 197.871094 357.25 197.871094 358.300781 L 197.871094 360.347656 C 197.871094 361.679688 199.308594 362.507812 200.460938 361.84375 L 212.28125 355.019531 C 213.167969 354.503906 213.71875 353.558594 213.71875 352.53125 L 213.71875 350.441406 C 213.71875 349.117188 212.28125 348.28125 211.128906 348.953125 Z M 233.109375 336.246094 L 220.714844 343.398438 C 220.179688 343.703125 219.851562 344.277344 219.851562 344.894531 L 219.851562 347.648438 C 219.851562 348.980469 221.289062 349.808594 222.441406 349.144531 L 234.261719 342.320312 C 235.148438 341.808594 235.699219 340.863281 235.699219 339.835938 L 235.699219 337.742188 C 235.707031 336.410156 234.261719 335.578125 233.109375 336.246094 Z M 299.28125 304.835938 L 302.109375 303.207031 L 302.109375 295.761719 L 299.28125 297.394531 Z M 304.929688 301.566406 L 307.757812 299.9375 L 307.757812 292.496094 L 304.929688 294.125 Z M 310.585938 298.300781 L 313.414062 296.671875 L 313.414062 289.226562 L 310.585938 290.855469 Z M 293.621094 308.097656 L 296.449219 306.464844 L 296.449219 299.023438 L 293.621094 300.652344 Z M 316.242188 287.589844 L 316.242188 295.03125 L 319.109375 293.378906 L 319.109375 285.9375 Z M 316.242188 287.589844 " fill-opacity="1" fill-rule="nonzero"/><path fill="#231f19" d="M 311.1875 262.527344 C 311.1875 265.5 309.058594 268.617188 306.746094 269.925781 C 304.429688 271.238281 302.085938 269.570312 302.085938 267.195312 C 302.085938 264.820312 303.433594 261.167969 306.617188 259.5 C 308.785156 258.359375 311.1875 259.65625 311.1875 262.527344 Z M 187.035156 190.53125 C 183.847656 192.195312 182.5 195.859375 182.5 198.226562 C 182.5 200.59375 184.855469 202.265625 187.160156 200.957031 C 189.46875 199.648438 191.605469 196.527344 191.605469 193.558594 C 191.605469 190.6875 189.199219 189.390625 187.035156 190.53125 Z M 187.035156 190.53125 " fill-opacity="1" fill-rule="nonzero"/><path fill="#fefefe" d="M 248.949219 166.054688 L 144.363281 13.675781 L 144.363281 12.769531 C 144.363281 8.800781 146.476562 5.140625 149.90625 3.160156 C 153.332031 1.179688 157.550781 1.179688 160.984375 3.144531 L 326.292969 98.144531 C 329.203125 99.816406 331.554688 102.199219 333.183594 105.011719 L 319.109375 113.140625 C 299.480469 121.039062 283.460938 134.324219 267.734375 148.476562 C 261.402344 154.160156 255.015625 159.976562 248.949219 166.054688 Z M 139.597656 178.1875 L 9.394531 253.359375 C 5.714844 255.480469 5.714844 260.792969 9.394531 262.914062 L 173.019531 357.394531 C 177.933594 360.230469 183.984375 360.230469 188.894531 357.394531 L 319.824219 281.800781 C 321.773438 280.675781 321.773438 277.863281 319.824219 276.738281 L 149.132812 178.1875 C 146.179688 176.484375 142.546875 176.484375 139.597656 178.1875 Z M 139.597656 178.1875 " fill-opacity="1" fill-rule="nonzero"/><path fill="#fefefe" d="M 150.695312 10.023438 L 318.148438 106.703125 C 321.898438 108.871094 324.207031 112.867188 324.207031 117.199219 L 324.207031 263.488281 C 324.207031 266.570312 320.871094 268.496094 318.199219 266.957031 L 154.1875 172.257812 C 148.105469 168.75 144.363281 162.261719 144.363281 155.242188 L 144.363281 13.675781 C 144.363281 10.425781 147.882812 8.390625 150.695312 10.023438 Z M 143.253906 191.160156 L 74.828125 230.648438 L 226.839844 318.414062 L 295.78125 278.613281 Z M 117.210938 266.503906 L 81.152344 287.308594 C 78.972656 288.566406 78.972656 291.714844 81.152344 292.980469 L 122.167969 316.65625 C 123.9375 317.683594 126.125 317.683594 127.898438 316.65625 L 162.710938 296.558594 C 164.890625 295.300781 164.890625 292.152344 162.710938 290.894531 L 120.484375 266.519531 C 119.472656 265.914062 118.230469 265.914062 117.210938 266.503906 Z M 117.210938 266.503906 " fill-opacity="1" fill-rule="nonzero"/><g clip-path="url(#97b0003bd6)"><path fill="#231f19" d="M 21.957031 277.9375 C 21.957031 279.542969 20.363281 280.683594 18.792969 279.789062 C 17.222656 278.894531 15.78125 276.78125 15.78125 274.765625 C 15.78125 272.816406 17.410156 271.9375 18.882812 272.710938 C 21.042969 273.847656 21.957031 276.328125 21.957031 277.9375 Z M 336.824219 114.414062 L 336.824219 257.132812 C 336.824219 261.628906 334.40625 265.8125 330.511719 268.058594 C 328.570312 269.183594 326.386719 269.742188 324.199219 269.742188 C 322.011719 269.742188 319.835938 269.183594 317.886719 268.058594 L 317.632812 267.910156 L 311.992188 264.648438 C 311.53125 266.363281 310.554688 268.035156 309.261719 269.347656 L 320.382812 275.761719 C 323.433594 277.519531 325.324219 280.800781 325.324219 284.320312 L 325.324219 289.152344 C 325.324219 292.671875 323.433594 295.957031 320.382812 297.710938 L 191.507812 372.117188 C 188.253906 373.992188 184.609375 374.9375 180.960938 374.9375 C 177.3125 374.9375 173.667969 374 170.414062 372.117188 L 7.035156 277.800781 C 2.695312 275.292969 0 270.625 0 265.617188 C 0 260.609375 2.695312 255.941406 7.035156 253.433594 L 8.835938 252.390625 L 139.039062 177.222656 C 142.324219 175.324219 146.402344 175.324219 149.691406 177.222656 L 155.042969 180.308594 C 155.46875 178.710938 156.324219 176.976562 157.722656 175.582031 L 153.628906 173.222656 C 147.226562 169.523438 143.246094 162.640625 143.246094 155.242188 L 143.246094 12.769531 C 143.246094 8.421875 145.582031 4.367188 149.347656 2.191406 C 153.109375 0.0273438 157.773438 0.0195312 161.542969 2.175781 L 326.847656 97.175781 C 333.003906 100.710938 336.824219 107.3125 336.824219 114.414062 Z M 146.277344 8.875 C 147.867188 8.109375 149.699219 8.152344 151.253906 9.054688 L 318.707031 105.734375 C 320.410156 106.71875 321.847656 108.066406 322.941406 109.644531 L 331.621094 104.632812 C 330.132812 102.402344 328.136719 100.496094 325.742188 99.117188 L 160.433594 4.113281 C 157.359375 2.347656 153.539062 2.347656 150.472656 4.121094 C 148.566406 5.222656 147.109375 6.910156 146.277344 8.875 Z M 157.0625 181.476562 L 181.757812 195.738281 C 182.195312 194.140625 183.074219 192.421875 184.488281 191.042969 L 159.742188 176.75 C 158.175781 178.054688 157.34375 179.953125 157.0625 181.476562 Z M 277.328125 244.640625 L 192.429688 195.628906 C 191.984375 197.339844 191.015625 199.023438 189.730469 200.339844 L 274.628906 249.355469 C 275.050781 247.753906 275.914062 246.027344 277.328125 244.640625 Z M 276.628906 250.515625 L 301.320312 264.769531 C 301.75 263.167969 302.613281 261.441406 304.019531 260.058594 L 279.359375 245.816406 C 277.789062 247.097656 276.933594 248.980469 276.628906 250.515625 Z M 190.40625 194.460938 L 186.519531 192.21875 C 184.941406 193.492188 184.078125 195.359375 183.761719 196.902344 L 187.710938 199.1875 C 189.105469 197.949219 190.132812 196.148438 190.40625 194.460938 Z M 179.84375 360.585938 C 177.285156 360.414062 174.753906 359.679688 172.46875 358.351562 L 8.835938 263.890625 C 6.757812 262.691406 5.515625 260.539062 5.515625 258.144531 C 5.515625 257.890625 5.539062 257.644531 5.558594 257.398438 C 3.460938 259.574219 2.234375 262.519531 2.234375 265.617188 C 2.234375 269.832031 4.503906 273.761719 8.152344 275.867188 L 171.523438 370.195312 C 174.097656 371.683594 176.957031 372.511719 179.835938 372.679688 L 179.835938 360.585938 Z M 320.382812 282.765625 L 189.453125 358.359375 C 187.167969 359.679688 184.636719 360.421875 182.078125 360.59375 L 182.078125 372.679688 C 184.964844 372.511719 187.816406 371.683594 190.390625 370.195312 L 319.265625 295.792969 C 321.625 294.429688 323.089844 291.890625 323.089844 289.167969 L 323.089844 284.335938 C 323.089844 283.042969 322.75 281.792969 322.144531 280.683594 C 321.824219 281.546875 321.214844 282.28125 320.382812 282.765625 Z M 148.566406 179.15625 C 147.273438 178.402344 145.8125 178.03125 144.363281 178.03125 C 142.902344 178.03125 141.453125 178.402344 140.15625 179.15625 L 9.953125 254.324219 C 8.574219 255.121094 7.75 256.542969 7.75 258.136719 C 7.75 259.730469 8.574219 261.152344 9.953125 261.949219 L 173.578125 356.425781 C 178.132812 359.054688 183.78125 359.054688 188.335938 356.425781 L 319.265625 280.832031 C 319.832031 280.503906 320.164062 279.921875 320.164062 279.269531 C 320.164062 278.613281 319.832031 278.03125 319.265625 277.707031 Z M 309.984375 263.488281 L 306.054688 261.21875 C 304.480469 262.507812 303.632812 264.390625 303.335938 265.921875 L 307.25 268.183594 C 308.644531 266.980469 309.679688 265.183594 309.984375 263.488281 Z M 323.089844 117.191406 C 323.089844 113.277344 320.984375 109.621094 317.589844 107.664062 L 150.136719 10.984375 C 149.65625 10.699219 149.117188 10.558594 148.582031 10.558594 C 148.046875 10.558594 147.519531 10.699219 147.027344 10.984375 C 146.050781 11.539062 145.472656 12.554688 145.472656 13.667969 L 145.472656 155.234375 C 145.472656 161.835938 149.023438 167.984375 154.738281 171.28125 L 318.75 265.972656 L 318.757812 265.972656 C 319.660156 266.496094 320.738281 266.496094 321.640625 265.972656 C 322.539062 265.453125 323.082031 264.515625 323.082031 263.472656 L 323.082031 117.191406 Z M 334.589844 114.414062 C 334.589844 111.644531 333.933594 108.964844 332.738281 106.5625 L 324.058594 111.570312 C 324.878906 113.304688 325.324219 115.21875 325.324219 117.191406 L 325.324219 263.480469 C 325.324219 265.074219 324.609375 266.519531 323.394531 267.484375 C 325.457031 267.648438 327.554688 267.195312 329.402344 266.128906 C 332.601562 264.285156 334.597656 260.832031 334.597656 257.140625 L 334.597656 114.414062 Z M 316.472656 122.730469 L 316.472656 235.738281 C 316.472656 238.398438 315.648438 240.773438 314.292969 242.699219 C 312.59375 245.953125 309.089844 247.976562 305.425781 247.820312 C 303.074219 248.035156 300.613281 247.558594 298.304688 246.226562 L 162.480469 167.8125 C 156.078125 164.113281 152.097656 157.226562 152.097656 149.828125 L 152.097656 20.183594 L 309.855469 111.265625 C 313.933594 113.625 316.472656 118.007812 316.472656 122.730469 Z M 308.738281 113.199219 L 293.457031 104.378906 L 204.316406 189.390625 L 223.671875 200.5625 L 312.105469 116.230469 C 311.210938 115.015625 310.078125 113.976562 308.738281 113.199219 Z M 163.597656 165.882812 L 191.792969 182.164062 L 280.933594 97.152344 L 246.277344 77.144531 L 158.191406 161.144531 C 159.652344 163.035156 161.472656 164.65625 163.597656 165.882812 Z M 143.8125 190.195312 L 298.023438 278.605469 L 226.847656 319.699219 L 226.289062 319.378906 L 72.601562 230.648438 L 143.253906 189.875 Z M 111.539062 210.753906 L 147.308594 231.40625 L 162.300781 222.75 L 126.542969 202.097656 Z M 132.3125 242.648438 L 149.082031 252.332031 L 164.078125 243.667969 L 147.308594 233.984375 Z M 145.085938 232.695312 L 128.316406 223.011719 L 113.308594 231.667969 L 130.078125 241.351562 Z M 151.316406 253.617188 L 168.085938 263.300781 L 183.082031 254.636719 L 166.3125 244.953125 Z M 170.308594 264.582031 L 187.070312 274.257812 L 202.046875 265.585938 L 185.300781 255.917969 Z M 189.3125 275.554688 L 206.082031 285.238281 L 221.082031 276.574219 L 204.289062 266.882812 Z M 208.308594 286.527344 L 225.078125 296.210938 L 240.074219 287.546875 L 223.304688 277.863281 Z M 223.3125 275.285156 L 238.28125 266.644531 L 221.46875 256.929688 L 206.515625 265.585938 Z M 219.242188 255.644531 L 202.523438 245.988281 L 187.539062 254.636719 L 204.28125 264.308594 Z M 200.292969 244.695312 L 183.527344 235.011719 L 168.539062 243.667969 L 185.308594 253.351562 Z M 181.304688 233.722656 L 164.542969 224.039062 L 149.550781 232.695312 L 166.320312 242.378906 Z M 94.300781 220.703125 L 111.074219 230.386719 L 126.082031 221.730469 L 109.304688 212.046875 Z M 93.84375 240.332031 L 108.851562 231.675781 L 92.074219 221.992188 L 77.066406 230.648438 Z M 207.847656 306.152344 L 222.84375 297.488281 L 111.074219 232.964844 L 96.070312 241.621094 Z M 241.847656 308.460938 L 225.078125 298.777344 L 210.078125 307.441406 L 226.847656 317.125 Z M 276.273438 288.585938 L 240.515625 267.933594 L 225.546875 276.574219 L 244.550781 287.546875 L 227.316406 297.496094 L 244.085938 307.179688 Z M 276.71875 268.964844 L 261.742188 277.617188 L 278.503906 287.300781 L 293.546875 278.613281 Z M 257.648438 258.039062 L 242.746094 266.644531 L 259.511719 276.328125 L 274.480469 267.6875 Z M 238.511719 247.0625 L 223.699219 255.636719 L 240.515625 265.347656 L 255.410156 256.753906 Z M 219.515625 236.179688 L 204.757812 244.703125 L 221.46875 254.355469 L 236.273438 245.789062 Z M 200.453125 225.246094 L 185.769531 233.722656 L 202.53125 243.40625 L 217.285156 234.890625 Z M 181.386719 214.3125 L 166.765625 222.75 L 183.527344 232.433594 L 198.207031 223.957031 Z M 162.324219 203.382812 L 147.777344 211.78125 L 164.542969 221.464844 L 179.152344 213.03125 Z M 160.082031 202.097656 L 143.261719 192.449219 L 128.785156 200.800781 L 145.546875 210.484375 Z M 29.46875 278.882812 C 27.996094 278.105469 26.363281 278.984375 26.363281 280.933594 C 26.363281 282.953125 27.808594 285.066406 29.378906 285.960938 C 30.949219 286.851562 32.542969 285.714844 32.542969 284.105469 C 32.542969 282.5 31.625 280.019531 29.46875 278.882812 Z M 166.007812 293.714844 C 166.007812 295.109375 165.285156 296.351562 164.085938 297.050781 L 129.007812 317.304688 C 127.785156 318.011719 126.410156 318.359375 125.039062 318.359375 C 123.671875 318.359375 122.292969 318.011719 121.074219 317.304688 L 79.664062 293.394531 C 78.488281 292.71875 77.78125 291.496094 77.78125 290.136719 C 77.78125 288.773438 78.488281 287.558594 79.664062 286.875 L 115.082031 266.445312 C 117.410156 265.105469 120.304688 265.105469 122.636719 266.445312 L 164.09375 290.382812 C 165.285156 291.082031 166.007812 292.324219 166.007812 293.714844 Z M 102.359375 303.929688 L 110.210938 299.394531 L 86.335938 285.609375 L 80.773438 288.816406 C 80.296875 289.09375 80.007812 289.59375 80.007812 290.144531 C 80.007812 290.695312 80.289062 291.191406 80.773438 291.46875 Z M 132.886719 312.480469 L 112.445312 300.683594 L 104.59375 305.214844 L 122.179688 315.367188 C 123.9375 316.378906 126.125 316.378906 127.882812 315.367188 Z M 163.773438 293.714844 C 163.773438 293.128906 163.46875 292.605469 162.96875 292.316406 L 121.511719 268.378906 C 119.875 267.433594 117.835938 267.433594 116.191406 268.378906 L 88.566406 284.316406 L 135.117188 311.191406 L 162.96875 295.113281 C 163.46875 294.824219 163.773438 294.304688 163.773438 293.714844 Z M 40.058594 285.050781 C 38.585938 284.277344 36.957031 285.15625 36.957031 287.105469 C 36.957031 289.125 38.398438 291.238281 39.96875 292.128906 C 41.539062 293.023438 43.132812 291.882812 43.132812 290.277344 C 43.132812 288.667969 42.21875 286.183594 40.058594 285.050781 Z M 241.109375 70.171875 C 242.285156 70.839844 243.484375 69.992188 243.484375 68.78125 C 243.484375 67.566406 242.800781 65.714844 241.175781 64.863281 C 240.074219 64.285156 238.847656 64.945312 238.847656 66.40625 C 238.847656 67.917969 239.933594 69.5 241.109375 70.171875 Z M 241.109375 70.171875 " fill-opacity="1" fill-rule="nonzero"/></g><g clip-path="url(#c49a23e211)"><g clip-path="url(#6d6a94b455)"><path fill="#231f19" d="M 214.0625 58.890625 L 312.148438 114.105469 L 293.910156 146.507812 L 195.824219 91.292969 Z M 214.0625 58.890625 " fill-opacity="1" fill-rule="nonzero"/></g></g><g clip-path="url(#cf444d3f3c)"><g clip-path="url(#9af654a7c9)"><path fill="#231f19" d="M 206.078125 90.601562 L 303.480469 146.566406 L 260.195312 221.898438 L 162.792969 165.933594 Z M 206.078125 90.601562 " fill-opacity="1" fill-rule="nonzero"/></g></g><g clip-path="url(#daa35c73c5)"><g clip-path="url(#a91170c545)"><path fill="#231f19" d="M 154.464844 135.878906 L 187.5 135.878906 L 187.5 168.914062 L 154.464844 168.914062 Z M 154.464844 135.878906 " fill-opacity="1" fill-rule="nonzero"/></g></g><g clip-path="url(#1728577ad1)"><g clip-path="url(#eb018e5a05)"><path fill="#231f19" d="M 283.136719 108.128906 L 316.171875 108.128906 L 316.171875 141.164062 L 283.136719 141.164062 Z M 283.136719 108.128906 " fill-opacity="1" fill-rule="nonzero"/></g></g><path fill="#ef4444" d="M 207.621094 143.851562 Z M 214.449219 149.316406 Z M 214.449219 138.382812 C 212.527344 138.382812 210.796875 139.015625 209.550781 140.042969 C 208.359375 141.027344 207.621094 142.375 207.621094 143.851562 L 207.617188 143.851562 C 207.617188 145.324219 208.355469 146.671875 209.550781 147.65625 C 210.792969 148.679688 212.527344 149.316406 214.449219 149.316406 L 214.449219 149.320312 C 216.367188 149.320312 218.101562 148.683594 219.347656 147.65625 C 220.539062 146.671875 221.273438 145.324219 221.273438 143.851562 C 221.273438 142.375 220.539062 141.027344 219.347656 140.042969 C 218.101562 139.019531 216.371094 138.382812 214.449219 138.382812 " fill-opacity="1" fill-rule="evenodd"/><path fill="#ffffff" d="M 214.117188 133.457031 C 214.636719 133.460938 215.058594 133.886719 215.054688 134.410156 L 215.039062 136.5 C 215.402344 136.523438 215.757812 136.5625 216.109375 136.617188 L 216.09375 134.757812 C 216.089844 134.234375 216.511719 133.808594 217.03125 133.804688 C 217.554688 133.800781 217.984375 134.21875 217.988281 134.742188 L 218.003906 137.121094 C 218.121094 137.167969 218.234375 137.210938 218.347656 137.257812 L 218.753906 135.722656 C 218.886719 135.214844 219.40625 134.914062 219.910156 135.046875 C 220.417969 135.179688 220.71875 135.695312 220.585938 136.203125 L 220.054688 138.207031 C 220.101562 138.238281 220.144531 138.269531 220.1875 138.300781 L 221.097656 136.914062 C 221.386719 136.476562 221.976562 136.355469 222.414062 136.640625 C 222.851562 136.929688 222.976562 137.515625 222.6875 137.953125 L 221.59375 139.621094 C 221.753906 139.8125 221.902344 140.007812 222.039062 140.210938 L 222.765625 139.789062 C 223.21875 139.523438 223.800781 139.675781 224.066406 140.128906 C 224.328125 140.582031 224.175781 141.164062 223.722656 141.425781 L 222.875 141.925781 C 222.976562 142.242188 223.050781 142.566406 223.101562 142.902344 L 223.957031 142.902344 C 224.484375 142.902344 224.910156 143.324219 224.910156 143.851562 C 224.910156 144.375 224.484375 144.800781 223.957031 144.800781 L 223.101562 144.800781 C 223.050781 145.132812 222.976562 145.460938 222.871094 145.777344 L 223.71875 146.273438 C 224.171875 146.535156 224.328125 147.113281 224.066406 147.566406 C 223.804688 148.019531 223.222656 148.175781 222.769531 147.914062 L 222.039062 147.488281 C 221.902344 147.691406 221.753906 147.890625 221.59375 148.082031 L 222.6875 149.746094 C 222.976562 150.183594 222.851562 150.773438 222.414062 151.058594 C 221.976562 151.347656 221.386719 151.222656 221.097656 150.785156 L 220.1875 149.398438 C 220.144531 149.429688 220.101562 149.460938 220.054688 149.492188 L 220.585938 151.496094 C 220.71875 152.003906 220.417969 152.523438 219.910156 152.65625 C 219.40625 152.789062 218.886719 152.484375 218.753906 151.980469 L 218.347656 150.441406 C 218.234375 150.488281 218.121094 150.53125 218.003906 150.574219 L 217.988281 152.957031 C 217.984375 153.480469 217.554688 153.898438 217.03125 153.894531 C 216.511719 153.890625 216.089844 153.464844 216.09375 152.941406 L 216.109375 151.078125 C 215.757812 151.136719 215.402344 151.175781 215.039062 151.195312 L 215.054688 153.289062 C 215.058594 153.8125 214.636719 154.238281 214.117188 154.242188 C 213.59375 154.246094 213.167969 153.828125 213.160156 153.304688 L 213.144531 151.132812 C 212.910156 151.105469 212.683594 151.066406 212.457031 151.023438 L 212.472656 152.941406 C 212.476562 153.464844 212.054688 153.890625 211.53125 153.894531 C 211.011719 153.898438 210.585938 153.480469 210.578125 152.957031 L 210.558594 150.445312 C 210.457031 150.402344 210.355469 150.355469 210.253906 150.3125 L 209.8125 151.980469 C 209.679688 152.484375 209.164062 152.789062 208.65625 152.65625 C 208.152344 152.523438 207.847656 152.003906 207.980469 151.496094 L 208.566406 149.289062 C 208.539062 149.269531 208.515625 149.25 208.488281 149.230469 L 207.46875 150.785156 C 207.179688 151.222656 206.59375 151.347656 206.152344 151.058594 C 205.714844 150.773438 205.59375 150.183594 205.878906 149.746094 L 207.121094 147.851562 C 206.996094 147.6875 206.878906 147.519531 206.765625 147.347656 L 205.796875 147.914062 C 205.34375 148.175781 204.765625 148.019531 204.503906 147.566406 C 204.242188 147.113281 204.394531 146.535156 204.847656 146.273438 L 205.976562 145.613281 C 205.898438 145.347656 205.839844 145.078125 205.796875 144.800781 L 204.9375 144.800781 C 204.414062 144.800781 203.988281 144.375 203.988281 143.851562 C 203.988281 143.324219 204.414062 142.902344 204.9375 142.902344 L 205.796875 142.902344 C 205.835938 142.625 205.898438 142.351562 205.972656 142.085938 L 204.84375 141.425781 C 204.390625 141.164062 204.238281 140.582031 204.503906 140.128906 C 204.765625 139.675781 205.347656 139.523438 205.800781 139.789062 L 206.765625 140.351562 C 206.878906 140.179688 206.996094 140.011719 207.121094 139.847656 L 205.878906 137.953125 C 205.59375 137.515625 205.714844 136.929688 206.152344 136.640625 C 206.59375 136.355469 207.179688 136.476562 207.46875 136.914062 L 208.488281 138.472656 C 208.515625 138.449219 208.539062 138.429688 208.566406 138.410156 L 207.980469 136.203125 C 207.847656 135.695312 208.152344 135.179688 208.65625 135.046875 C 209.164062 134.914062 209.679688 135.214844 209.8125 135.722656 L 210.253906 137.390625 C 210.355469 137.34375 210.457031 137.300781 210.558594 137.257812 L 210.578125 134.742188 C 210.585938 134.21875 211.011719 133.800781 211.53125 133.804688 C 212.054688 133.808594 212.476562 134.234375 212.472656 134.757812 L 212.457031 136.679688 C 212.683594 136.636719 212.910156 136.597656 213.144531 136.570312 L 213.160156 134.394531 C 213.167969 133.875 213.59375 133.453125 214.117188 133.457031 Z M 262.640625 106.332031 C 255.078125 98.769531 244.632812 94.09375 233.089844 94.09375 C 221.550781 94.09375 211.101562 98.769531 203.539062 106.332031 C 195.976562 113.894531 191.300781 124.34375 191.300781 135.882812 C 191.300781 147.425781 195.976562 157.871094 203.539062 165.433594 C 211.101562 172.996094 221.550781 177.675781 233.089844 177.675781 C 244.632812 177.675781 255.078125 172.996094 262.640625 165.433594 C 270.203125 157.871094 274.882812 147.425781 274.882812 135.882812 C 274.882812 124.34375 270.203125 113.894531 262.640625 106.332031 Z M 214.9375 116.867188 C 213.902344 117.019531 212.933594 116.308594 212.777344 115.269531 L 212.527344 113.609375 C 211.144531 104.546875 214.113281 101.585938 218.613281 100.898438 C 220.964844 100.539062 223.601562 100.949219 226.191406 101.347656 C 229.652344 101.882812 233 102.398438 233.898438 100.777344 C 234.402344 99.863281 235.550781 99.53125 236.464844 100.035156 C 237.378906 100.539062 237.710938 101.691406 237.207031 102.605469 C 235.019531 106.554688 230.394531 105.839844 225.613281 105.101562 C 223.304688 104.746094 220.953125 104.382812 219.175781 104.652344 C 216.835938 105.011719 215.347656 106.933594 216.28125 113.046875 L 216.535156 114.707031 C 216.6875 115.742188 215.976562 116.710938 214.9375 116.867188 Z M 237.105469 150.214844 C 237.585938 149.28125 238.726562 148.917969 239.65625 149.398438 C 240.492188 149.824219 241.050781 150.558594 241.835938 151.589844 C 243.066406 153.203125 245.035156 155.789062 249.265625 158.375 C 253.980469 161.253906 255.660156 160.53125 256.542969 159.082031 C 256.917969 158.476562 257.238281 157.699219 257.550781 156.957031 C 258.609375 154.40625 259.574219 152.101562 262.695312 152.390625 C 262.859375 152.40625 263.003906 152.386719 263.140625 152.332031 C 263.78125 152.089844 264.347656 151.199219 264.820312 149.972656 C 265.417969 148.4375 265.789062 146.492188 265.972656 144.523438 C 266.277344 141.25 266.070312 138.03125 265.511719 136.550781 C 265.140625 135.570312 265.636719 134.480469 266.617188 134.109375 C 267.597656 133.742188 268.6875 134.238281 269.058594 135.214844 C 269.796875 137.160156 270.097656 141.0625 269.742188 144.863281 C 269.527344 147.160156 269.082031 149.464844 268.355469 151.339844 C 267.507812 153.523438 266.246094 155.210938 264.476562 155.878906 C 263.820312 156.128906 263.113281 156.230469 262.355469 156.160156 C 262.003906 156.128906 261.550781 157.210938 261.050781 158.414062 C 260.6875 159.28125 260.3125 160.1875 259.78125 161.058594 C 257.84375 164.222656 254.71875 166.148438 247.292969 161.609375 C 242.453125 158.648438 240.21875 155.71875 238.824219 153.890625 C 238.339844 153.253906 237.996094 152.800781 237.921875 152.765625 C 236.992188 152.285156 236.625 151.144531 237.105469 150.214844 " fill-opacity="1" fill-rule="evenodd"/><g clip-path="url(#5ab2d0df97)"><path fill="#212121" d="M 233.089844 90.292969 C 245.679688 90.292969 257.078125 95.394531 265.328125 103.644531 C 273.578125 111.898438 278.683594 123.292969 278.683594 135.882812 C 278.683594 148.472656 273.578125 159.871094 265.328125 168.121094 C 257.078125 176.371094 245.679688 181.476562 233.089844 181.476562 C 220.5 181.476562 209.105469 176.371094 200.855469 168.121094 C 192.601562 159.871094 187.5 148.472656 187.5 135.882812 C 187.5 123.292969 192.601562 111.898438 200.855469 103.644531 C 209.105469 95.394531 220.5 90.292969 233.089844 90.292969 Z M 262.640625 106.332031 C 255.078125 98.769531 244.632812 94.09375 233.089844 94.09375 C 221.550781 94.09375 211.101562 98.769531 203.539062 106.332031 C 195.976562 113.894531 191.300781 124.34375 191.300781 135.882812 C 191.300781 147.425781 195.976562 157.871094 203.539062 165.433594 C 211.101562 172.996094 221.550781 177.675781 233.089844 177.675781 C 244.632812 177.675781 255.078125 172.996094 262.640625 165.433594 C 270.203125 157.871094 274.882812 147.425781 274.882812 135.882812 C 274.882812 124.34375 270.203125 113.894531 262.640625 106.332031 " fill-opacity="1" fill-rule="nonzero"/></g><path fill="#212121" d="M 232.578125 106.453125 C 231.53125 106.421875 230.660156 107.242188 230.625 108.285156 C 230.59375 109.332031 231.414062 110.203125 232.460938 110.238281 C 234.765625 110.320312 236.226562 110.898438 237.054688 111.910156 C 237.925781 112.976562 238.253906 114.648438 238.226562 116.808594 C 238.160156 121.695312 240.019531 122.785156 243.636719 124.660156 C 243.710938 126.15625 243.722656 127.335938 243.730469 128.335938 C 243.785156 134.210938 243.792969 135.011719 251.625 142.585938 C 252.457031 143.390625 253.289062 144.03125 254.085938 144.648438 C 254.960938 145.324219 255.796875 145.972656 256.347656 146.613281 C 257.027344 147.410156 258.222656 147.5 259.019531 146.820312 C 259.8125 146.140625 259.90625 144.945312 259.226562 144.148438 C 258.429688 143.21875 257.4375 142.453125 256.402344 141.652344 C 255.652344 141.074219 254.875 140.472656 254.253906 139.871094 C 247.5625 133.398438 247.558594 132.789062 247.515625 128.308594 C 247.503906 126.996094 247.488281 125.40625 247.367188 123.476562 C 247.367188 122.792969 246.996094 122.128906 246.347656 121.792969 L 245.464844 123.472656 L 246.339844 121.796875 C 245.445312 121.328125 245.757812 121.492188 245.664062 121.441406 C 243.226562 120.179688 241.972656 119.53125 242.011719 116.851562 C 242.046875 113.820312 241.484375 111.347656 239.992188 109.523438 C 238.457031 107.640625 236.085938 106.574219 232.578125 106.453125 " fill-opacity="1" fill-rule="nonzero"/><path fill="#212121" d="M 239.65625 149.398438 C 238.726562 148.917969 237.585938 149.28125 237.105469 150.214844 C 236.625 151.144531 236.992188 152.285156 237.921875 152.765625 C 237.996094 152.800781 238.339844 153.253906 238.824219 153.890625 C 240.21875 155.71875 242.453125 158.648438 247.292969 161.609375 C 254.71875 166.148438 257.84375 164.222656 259.78125 161.058594 C 260.3125 160.1875 260.6875 159.28125 261.050781 158.414062 C 261.550781 157.210938 262.003906 156.128906 262.355469 156.160156 C 263.113281 156.230469 263.820312 156.128906 264.476562 155.878906 C 266.246094 155.210938 267.507812 153.523438 268.355469 151.339844 C 269.082031 149.464844 269.527344 147.160156 269.742188 144.863281 C 270.097656 141.0625 269.796875 137.160156 269.058594 135.214844 C 268.6875 134.238281 267.597656 133.742188 266.617188 134.109375 C 265.636719 134.480469 265.140625 135.570312 265.511719 136.550781 C 266.070312 138.03125 266.277344 141.25 265.972656 144.523438 C 265.789062 146.492188 265.417969 148.4375 264.820312 149.972656 C 264.347656 151.199219 263.78125 152.089844 263.140625 152.332031 C 263.003906 152.386719 262.859375 152.40625 262.695312 152.390625 C 259.574219 152.101562 258.609375 154.40625 257.550781 156.957031 C 257.238281 157.699219 256.917969 158.476562 256.542969 159.082031 C 255.660156 160.53125 253.980469 161.253906 249.265625 158.375 C 245.035156 155.789062 243.066406 153.203125 241.835938 151.589844 C 241.050781 150.558594 240.492188 149.824219 239.65625 149.398438 " fill-opacity="1" fill-rule="nonzero"/><path fill="#212121" d="M 212.777344 115.269531 C 212.933594 116.308594 213.902344 117.019531 214.9375 116.867188 C 215.976562 116.710938 216.6875 115.742188 216.535156 114.707031 L 216.28125 113.046875 C 215.347656 106.933594 216.835938 105.011719 219.175781 104.652344 C 220.953125 104.382812 223.304688 104.746094 225.613281 105.101562 C 230.394531 105.839844 235.019531 106.554688 237.207031 102.605469 C 237.710938 101.691406 237.378906 100.539062 236.464844 100.035156 C 235.550781 99.53125 234.402344 99.863281 233.898438 100.777344 C 233 102.398438 229.652344 101.882812 226.191406 101.347656 C 223.601562 100.949219 220.964844 100.539062 218.613281 100.898438 C 214.113281 101.585938 211.144531 104.546875 212.527344 113.609375 L 212.777344 115.269531 " fill-opacity="1" fill-rule="nonzero"/><path fill="#212121" d="M 214.449219 136.484375 C 216.820312 136.484375 218.976562 137.285156 220.546875 138.582031 C 222.171875 139.921875 223.175781 141.78125 223.175781 143.851562 C 223.175781 145.917969 222.171875 147.777344 220.546875 149.117188 C 218.980469 150.410156 216.820312 151.210938 214.449219 151.210938 L 214.449219 151.214844 C 212.078125 151.214844 209.921875 150.414062 208.347656 149.117188 C 206.730469 147.78125 205.726562 145.917969 205.726562 143.851562 L 205.722656 143.851562 C 205.722656 141.785156 206.726562 139.921875 208.347656 138.582031 C 209.917969 137.289062 212.074219 136.488281 214.449219 136.488281 Z M 219.347656 140.042969 C 218.101562 139.019531 216.371094 138.382812 214.449219 138.382812 C 212.527344 138.382812 210.796875 139.015625 209.550781 140.042969 C 208.359375 141.027344 207.621094 142.375 207.621094 143.851562 L 207.617188 143.851562 C 207.617188 145.324219 208.355469 146.671875 209.550781 147.65625 C 210.792969 148.679688 212.527344 149.316406 214.449219 149.316406 L 214.449219 149.320312 C 216.367188 149.320312 218.101562 148.683594 219.347656 147.65625 C 220.539062 146.671875 221.273438 145.324219 221.273438 143.851562 C 221.273438 142.375 220.539062 141.027344 219.347656 140.042969 " fill-opacity="1" fill-rule="nonzero"/><path fill="#212121" d="M 207.175781 139.929688 C 207.460938 140.367188 208.050781 140.488281 208.488281 140.203125 C 208.925781 139.914062 209.050781 139.328125 208.761719 138.890625 L 207.46875 136.914062 C 207.179688 136.476562 206.59375 136.355469 206.152344 136.640625 C 205.714844 136.929688 205.59375 137.515625 205.878906 137.953125 L 207.175781 139.929688 " fill-opacity="1" fill-rule="nonzero"/><path fill="#212121" d="M 208.664062 138.785156 C 208.796875 139.292969 209.316406 139.59375 209.820312 139.460938 C 210.328125 139.328125 210.628906 138.808594 210.496094 138.304688 L 209.8125 135.722656 C 209.679688 135.214844 209.164062 134.914062 208.65625 135.046875 C 208.152344 135.179688 207.847656 135.695312 207.980469 136.203125 L 208.664062 138.785156 " fill-opacity="1" fill-rule="nonzero"/><path fill="#212121" d="M 210.558594 137.527344 C 210.554688 138.050781 210.972656 138.476562 211.496094 138.480469 C 212.019531 138.484375 212.445312 138.066406 212.449219 137.542969 L 212.472656 134.757812 C 212.476562 134.234375 212.054688 133.808594 211.53125 133.804688 C 211.011719 133.800781 210.585938 134.21875 210.578125 134.742188 L 210.558594 137.527344 " fill-opacity="1" fill-rule="nonzero"/><path fill="#212121" d="M 213.140625 137.179688 C 213.136719 137.703125 213.554688 138.128906 214.078125 138.132812 C 214.601562 138.136719 215.027344 137.71875 215.03125 137.195312 L 215.054688 134.410156 C 215.058594 133.886719 214.636719 133.460938 214.117188 133.457031 C 213.59375 133.453125 213.167969 133.875 213.160156 134.394531 L 213.140625 137.179688 " fill-opacity="1" fill-rule="nonzero"/><path fill="#212121" d="M 219.804688 138.890625 C 219.515625 139.328125 219.640625 139.914062 220.078125 140.203125 C 220.515625 140.488281 221.105469 140.367188 221.390625 139.929688 L 222.6875 137.953125 C 222.976562 137.515625 222.851562 136.929688 222.414062 136.640625 C 221.976562 136.355469 221.386719 136.476562 221.097656 136.914062 L 219.804688 138.890625 " fill-opacity="1" fill-rule="nonzero"/><path fill="#212121" d="M 218.070312 138.304688 C 217.9375 138.808594 218.238281 139.328125 218.746094 139.460938 C 219.25 139.59375 219.769531 139.292969 219.902344 138.785156 L 220.585938 136.203125 C 220.71875 135.695312 220.417969 135.179688 219.910156 135.046875 C 219.40625 134.914062 218.886719 135.214844 218.753906 135.722656 L 218.070312 138.304688 " fill-opacity="1" fill-rule="nonzero"/><path fill="#212121" d="M 216.117188 137.542969 C 216.121094 138.066406 216.546875 138.484375 217.070312 138.480469 C 217.59375 138.476562 218.011719 138.050781 218.007812 137.527344 L 217.988281 134.742188 C 217.984375 134.21875 217.554688 133.800781 217.03125 133.804688 C 216.511719 133.808594 216.089844 134.234375 216.09375 134.757812 L 216.117188 137.542969 " fill-opacity="1" fill-rule="nonzero"/><path fill="#212121" d="M 208.761719 148.8125 C 209.050781 148.375 208.925781 147.785156 208.488281 147.496094 C 208.050781 147.210938 207.460938 147.332031 207.175781 147.773438 L 205.878906 149.746094 C 205.59375 150.183594 205.714844 150.773438 206.152344 151.058594 C 206.59375 151.347656 207.179688 151.222656 207.46875 150.785156 L 208.761719 148.8125 " fill-opacity="1" fill-rule="nonzero"/><path fill="#212121" d="M 210.496094 149.398438 C 210.628906 148.890625 210.328125 148.371094 209.820312 148.238281 C 209.316406 148.105469 208.796875 148.40625 208.664062 148.914062 L 207.980469 151.496094 C 207.847656 152.003906 208.152344 152.523438 208.65625 152.65625 C 209.164062 152.789062 209.679688 152.484375 209.8125 151.980469 L 210.496094 149.398438 " fill-opacity="1" fill-rule="nonzero"/><path fill="#212121" d="M 212.449219 150.15625 C 212.445312 149.636719 212.019531 149.214844 211.496094 149.21875 C 210.972656 149.222656 210.554688 149.652344 210.558594 150.171875 L 210.578125 152.957031 C 210.585938 153.480469 211.011719 153.898438 211.53125 153.894531 C 212.054688 153.890625 212.476562 153.464844 212.472656 152.941406 L 212.449219 150.15625 " fill-opacity="1" fill-rule="nonzero"/><path fill="#212121" d="M 215.03125 150.503906 C 215.027344 149.980469 214.601562 149.5625 214.078125 149.566406 C 213.554688 149.570312 213.136719 149.996094 213.140625 150.519531 L 213.160156 153.304688 C 213.167969 153.828125 213.59375 154.246094 214.117188 154.242188 C 214.636719 154.238281 215.058594 153.8125 215.054688 153.289062 L 215.03125 150.503906 " fill-opacity="1" fill-rule="nonzero"/><path fill="#212121" d="M 221.390625 147.773438 C 221.105469 147.332031 220.515625 147.210938 220.078125 147.496094 C 219.640625 147.785156 219.515625 148.375 219.804688 148.8125 L 221.097656 150.785156 C 221.386719 151.222656 221.976562 151.347656 222.414062 151.058594 C 222.851562 150.773438 222.976562 150.183594 222.6875 149.746094 L 221.390625 147.773438 " fill-opacity="1" fill-rule="nonzero"/><path fill="#212121" d="M 219.902344 148.914062 C 219.769531 148.40625 219.25 148.105469 218.746094 148.238281 C 218.238281 148.371094 217.9375 148.890625 218.070312 149.398438 L 218.753906 151.980469 C 218.886719 152.484375 219.40625 152.789062 219.910156 152.65625 C 220.417969 152.523438 220.71875 152.003906 220.585938 151.496094 L 219.902344 148.914062 " fill-opacity="1" fill-rule="nonzero"/><path fill="#212121" d="M 218.007812 150.171875 C 218.011719 149.652344 217.59375 149.222656 217.070312 149.21875 C 216.546875 149.214844 216.121094 149.636719 216.117188 150.15625 L 216.09375 152.941406 C 216.089844 153.464844 216.511719 153.890625 217.03125 153.894531 C 217.554688 153.898438 217.984375 153.480469 217.988281 152.957031 L 218.007812 150.171875 " fill-opacity="1" fill-rule="nonzero"/><path fill="#212121" d="M 221.246094 140.675781 C 220.792969 140.9375 220.640625 141.519531 220.90625 141.972656 C 221.167969 142.425781 221.75 142.578125 222.203125 142.3125 L 223.722656 141.425781 C 224.175781 141.164062 224.328125 140.582031 224.066406 140.128906 C 223.800781 139.675781 223.21875 139.523438 222.765625 139.789062 L 221.246094 140.675781 " fill-opacity="1" fill-rule="nonzero"/><path fill="#212121" d="M 222.199219 145.386719 C 221.746094 145.125 221.167969 145.277344 220.90625 145.730469 C 220.640625 146.183594 220.796875 146.761719 221.25 147.027344 L 222.769531 147.914062 C 223.222656 148.175781 223.804688 148.019531 224.066406 147.566406 C 224.328125 147.113281 224.171875 146.535156 223.71875 146.273438 L 222.199219 145.386719 " fill-opacity="1" fill-rule="nonzero"/><path fill="#212121" d="M 206.363281 142.3125 C 206.816406 142.578125 207.398438 142.425781 207.660156 141.972656 C 207.925781 141.519531 207.773438 140.9375 207.320312 140.675781 L 205.800781 139.789062 C 205.347656 139.523438 204.765625 139.675781 204.503906 140.128906 C 204.238281 140.582031 204.390625 141.164062 204.84375 141.425781 L 206.363281 142.3125 " fill-opacity="1" fill-rule="nonzero"/><path fill="#212121" d="M 207.316406 147.027344 C 207.769531 146.761719 207.925781 146.183594 207.660156 145.730469 C 207.398438 145.277344 206.820312 145.125 206.367188 145.386719 L 204.847656 146.273438 C 204.394531 146.535156 204.242188 147.113281 204.503906 147.566406 C 204.765625 148.019531 205.34375 148.175781 205.796875 147.914062 L 207.316406 147.027344 " fill-opacity="1" fill-rule="nonzero"/><path fill="#212121" d="M 222.300781 142.902344 C 221.777344 142.902344 221.351562 143.324219 221.351562 143.851562 C 221.351562 144.375 221.777344 144.800781 222.300781 144.800781 L 223.957031 144.800781 C 224.484375 144.800781 224.910156 144.375 224.910156 143.851562 C 224.910156 143.324219 224.484375 142.902344 223.957031 142.902344 L 222.300781 142.902344 " fill-opacity="1" fill-rule="nonzero"/><path fill="#212121" d="M 204.9375 142.902344 C 204.414062 142.902344 203.988281 143.324219 203.988281 143.851562 C 203.988281 144.375 204.414062 144.800781 204.9375 144.800781 L 206.597656 144.800781 C 207.121094 144.800781 207.546875 144.375 207.546875 143.851562 C 207.546875 143.324219 207.121094 142.902344 206.597656 142.902344 L 204.9375 142.902344 " fill-opacity="1" fill-rule="nonzero"/></svg>