<svg xmlns="http://www.w3.org/2000/svg" xmlns:xlink="http://www.w3.org/1999/xlink" width="500" zoomAndPan="magnify" viewBox="0 0 375 374.999991" height="500" preserveAspectRatio="xMidYMid meet" version="1.0"><defs><clipPath id="cd1aa155df"><path d="M 0 104 L 375 104 L 375 351.75 L 0 351.75 Z M 0 104 " clip-rule="nonzero"/></clipPath><clipPath id="41056622b7"><path d="M 115 37.5 L 260 37.5 L 260 183 L 115 183 Z M 115 37.5 " clip-rule="nonzero"/></clipPath><clipPath id="4c8f219cee"><path d="M 0 231 L 141 231 L 141 351.75 L 0 351.75 Z M 0 231 " clip-rule="nonzero"/></clipPath><clipPath id="af76217ce7"><path d="M 234 231 L 375 231 L 375 351.75 L 234 351.75 Z M 234 231 " clip-rule="nonzero"/></clipPath></defs><g clip-path="url(#cd1aa155df)"><path fill="#000000" d="M 368.953125 351.277344 L 6.046875 351.277344 C 5.683594 351.277344 5.320312 351.238281 4.960938 351.167969 C 4.601562 351.097656 4.253906 350.992188 3.917969 350.851562 C 3.578125 350.710938 3.257812 350.539062 2.953125 350.335938 C 2.648438 350.132812 2.367188 349.902344 2.109375 349.644531 C 1.851562 349.382812 1.621094 349.101562 1.417969 348.800781 C 1.214844 348.496094 1.042969 348.175781 0.902344 347.835938 C 0.761719 347.5 0.65625 347.148438 0.585938 346.792969 C 0.511719 346.433594 0.476562 346.070312 0.476562 345.703125 L 0.476562 110.136719 C 0.476562 109.769531 0.511719 109.40625 0.585938 109.050781 C 0.65625 108.691406 0.761719 108.34375 0.902344 108.003906 C 1.042969 107.667969 1.214844 107.347656 1.417969 107.042969 C 1.621094 106.738281 1.851562 106.457031 2.109375 106.199219 C 2.367188 105.9375 2.648438 105.707031 2.953125 105.503906 C 3.257812 105.300781 3.578125 105.128906 3.917969 104.988281 C 4.253906 104.851562 4.601562 104.746094 4.960938 104.671875 C 5.320312 104.601562 5.683594 104.566406 6.046875 104.566406 L 120.648438 104.566406 C 121.015625 104.566406 121.378906 104.601562 121.734375 104.671875 C 122.09375 104.742188 122.441406 104.847656 122.78125 104.988281 C 123.121094 105.128906 123.441406 105.300781 123.746094 105.503906 C 124.046875 105.707031 124.328125 105.9375 124.589844 106.195312 C 124.847656 106.457031 125.078125 106.738281 125.28125 107.039062 C 125.484375 107.34375 125.65625 107.667969 125.796875 108.003906 C 125.9375 108.34375 126.042969 108.691406 126.113281 109.050781 C 126.183594 109.40625 126.21875 109.769531 126.21875 110.136719 C 126.21875 110.5 126.183594 110.863281 126.113281 111.222656 C 126.042969 111.582031 125.9375 111.929688 125.796875 112.269531 C 125.65625 112.605469 125.484375 112.925781 125.28125 113.230469 C 125.078125 113.535156 124.847656 113.816406 124.589844 114.074219 C 124.328125 114.332031 124.046875 114.566406 123.746094 114.769531 C 123.441406 114.972656 123.121094 115.144531 122.78125 115.28125 C 122.441406 115.421875 122.09375 115.527344 121.734375 115.601562 C 121.378906 115.671875 121.015625 115.707031 120.648438 115.707031 L 11.621094 115.707031 L 11.621094 340.132812 L 363.378906 340.132812 L 363.378906 115.707031 L 254.351562 115.707031 C 253.984375 115.707031 253.621094 115.671875 253.265625 115.601562 C 252.90625 115.527344 252.554688 115.421875 252.21875 115.28125 C 251.878906 115.144531 251.558594 114.972656 251.253906 114.769531 C 250.953125 114.566406 250.671875 114.332031 250.410156 114.074219 C 250.152344 113.816406 249.921875 113.535156 249.71875 113.230469 C 249.515625 112.925781 249.34375 112.605469 249.203125 112.269531 C 249.0625 111.929688 248.957031 111.582031 248.886719 111.222656 C 248.816406 110.863281 248.78125 110.5 248.78125 110.136719 C 248.78125 109.769531 248.816406 109.40625 248.886719 109.050781 C 248.957031 108.691406 249.0625 108.34375 249.203125 108.003906 C 249.34375 107.667969 249.515625 107.34375 249.71875 107.039062 C 249.921875 106.738281 250.152344 106.457031 250.410156 106.195312 C 250.671875 105.9375 250.953125 105.707031 251.253906 105.503906 C 251.558594 105.300781 251.878906 105.128906 252.21875 104.988281 C 252.554688 104.847656 252.90625 104.742188 253.265625 104.671875 C 253.621094 104.601562 253.984375 104.566406 254.351562 104.566406 L 368.953125 104.566406 C 369.316406 104.566406 369.679688 104.601562 370.039062 104.671875 C 370.398438 104.746094 370.746094 104.851562 371.082031 104.988281 C 371.421875 105.128906 371.742188 105.300781 372.046875 105.503906 C 372.351562 105.707031 372.632812 105.9375 372.890625 106.199219 C 373.148438 106.457031 373.378906 106.738281 373.582031 107.042969 C 373.785156 107.347656 373.957031 107.667969 374.097656 108.003906 C 374.238281 108.34375 374.34375 108.691406 374.414062 109.050781 C 374.488281 109.40625 374.523438 109.769531 374.523438 110.136719 L 374.523438 345.703125 C 374.523438 346.070312 374.488281 346.433594 374.414062 346.792969 C 374.34375 347.148438 374.238281 347.5 374.097656 347.835938 C 373.957031 348.175781 373.785156 348.496094 373.582031 348.800781 C 373.378906 349.101562 373.148438 349.382812 372.890625 349.644531 C 372.632812 349.902344 372.351562 350.132812 372.046875 350.335938 C 371.742188 350.539062 371.421875 350.710938 371.082031 350.851562 C 370.746094 350.992188 370.398438 351.097656 370.039062 351.167969 C 369.679688 351.238281 369.316406 351.277344 368.953125 351.277344 Z M 368.953125 351.277344 " fill-opacity="1" fill-rule="nonzero"/></g><g clip-path="url(#41056622b7)"><path fill="#ef4444" d="M 187.5 182.558594 C 186.316406 182.558594 185.128906 182.527344 183.945312 182.46875 C 182.761719 182.414062 181.582031 182.324219 180.402344 182.207031 C 179.222656 182.09375 178.046875 181.949219 176.875 181.773438 C 175.699219 181.601562 174.535156 181.398438 173.371094 181.164062 C 172.207031 180.933594 171.050781 180.675781 169.902344 180.386719 C 168.753906 180.097656 167.613281 179.78125 166.476562 179.4375 C 165.34375 179.09375 164.21875 178.722656 163.101562 178.324219 C 161.984375 177.925781 160.878906 177.5 159.785156 177.042969 C 158.691406 176.589844 157.605469 176.109375 156.535156 175.605469 C 155.464844 175.097656 154.40625 174.566406 153.359375 174.007812 C 152.316406 173.449219 151.285156 172.863281 150.269531 172.253906 C 149.25 171.644531 148.25 171.011719 147.265625 170.351562 C 146.277344 169.695312 145.308594 169.011719 144.359375 168.304688 C 143.40625 167.597656 142.472656 166.871094 141.554688 166.117188 C 140.640625 165.367188 139.742188 164.59375 138.863281 163.796875 C 137.988281 163 137.128906 162.183594 136.289062 161.347656 C 135.453125 160.507812 134.636719 159.648438 133.839844 158.769531 C 133.042969 157.894531 132.269531 156.996094 131.515625 156.078125 C 130.765625 155.164062 130.035156 154.230469 129.332031 153.277344 C 128.625 152.324219 127.941406 151.355469 127.285156 150.371094 C 126.625 149.386719 125.992188 148.382812 125.382812 147.367188 C 124.773438 146.351562 124.1875 145.320312 123.628906 144.273438 C 123.070312 143.230469 122.539062 142.171875 122.03125 141.101562 C 121.523438 140.027344 121.042969 138.945312 120.589844 137.851562 C 120.136719 136.753906 119.710938 135.648438 119.3125 134.535156 C 118.914062 133.417969 118.539062 132.292969 118.195312 131.160156 C 117.851562 130.023438 117.535156 128.882812 117.25 127.734375 C 116.960938 126.582031 116.703125 125.425781 116.46875 124.265625 C 116.238281 123.101562 116.035156 121.933594 115.863281 120.761719 C 115.6875 119.589844 115.542969 118.414062 115.425781 117.234375 C 115.3125 116.054688 115.222656 114.875 115.164062 113.691406 C 115.109375 112.503906 115.078125 111.320312 115.078125 110.136719 C 115.078125 108.949219 115.109375 107.765625 115.164062 106.582031 C 115.222656 105.398438 115.3125 104.21875 115.425781 103.039062 C 115.542969 101.859375 115.6875 100.683594 115.863281 99.507812 C 116.035156 98.335938 116.238281 97.167969 116.46875 96.007812 C 116.703125 94.84375 116.960938 93.6875 117.25 92.539062 C 117.535156 91.390625 117.851562 90.246094 118.195312 89.113281 C 118.539062 87.980469 118.914062 86.855469 119.3125 85.738281 C 119.710938 84.621094 120.136719 83.515625 120.589844 82.421875 C 121.042969 81.328125 121.523438 80.242188 122.03125 79.171875 C 122.539062 78.101562 123.070312 77.042969 123.628906 75.996094 C 124.1875 74.953125 124.773438 73.921875 125.382812 72.902344 C 125.992188 71.886719 126.625 70.886719 127.285156 69.902344 C 127.941406 68.914062 128.625 67.945312 129.332031 66.996094 C 130.035156 66.042969 130.765625 65.109375 131.515625 64.191406 C 132.269531 63.277344 133.042969 62.378906 133.839844 61.5 C 134.636719 60.621094 135.453125 59.765625 136.289062 58.925781 C 137.128906 58.089844 137.988281 57.269531 138.863281 56.476562 C 139.742188 55.679688 140.640625 54.90625 141.554688 54.152344 C 142.472656 53.402344 143.40625 52.671875 144.359375 51.964844 C 145.308594 51.261719 146.277344 50.578125 147.265625 49.917969 C 148.25 49.261719 149.25 48.628906 150.269531 48.019531 C 151.285156 47.410156 152.316406 46.824219 153.359375 46.265625 C 154.40625 45.707031 155.464844 45.175781 156.535156 44.667969 C 157.605469 44.160156 158.691406 43.679688 159.785156 43.226562 C 160.878906 42.773438 161.984375 42.347656 163.101562 41.949219 C 164.21875 41.546875 165.34375 41.175781 166.476562 40.832031 C 167.613281 40.488281 168.753906 40.171875 169.902344 39.886719 C 171.050781 39.597656 172.207031 39.335938 173.371094 39.105469 C 174.535156 38.875 175.699219 38.671875 176.875 38.5 C 178.046875 38.324219 179.222656 38.179688 180.402344 38.0625 C 181.582031 37.945312 182.761719 37.859375 183.945312 37.800781 C 185.128906 37.742188 186.316406 37.714844 187.5 37.714844 C 188.683594 37.714844 189.871094 37.742188 191.054688 37.800781 C 192.238281 37.859375 193.417969 37.945312 194.597656 38.0625 C 195.777344 38.179688 196.953125 38.324219 198.125 38.5 C 199.296875 38.671875 200.464844 38.875 201.628906 39.105469 C 202.792969 39.335938 203.945312 39.597656 205.097656 39.886719 C 206.246094 40.171875 207.386719 40.488281 208.523438 40.832031 C 209.65625 41.175781 210.78125 41.546875 211.898438 41.949219 C 213.015625 42.347656 214.121094 42.773438 215.214844 43.226562 C 216.308594 43.679688 217.394531 44.160156 218.464844 44.667969 C 219.535156 45.175781 220.59375 45.707031 221.640625 46.265625 C 222.683594 46.824219 223.714844 47.410156 224.730469 48.019531 C 225.75 48.628906 226.75 49.261719 227.734375 49.917969 C 228.71875 50.578125 229.6875 51.261719 230.640625 51.964844 C 231.59375 52.671875 232.527344 53.402344 233.445312 54.152344 C 234.359375 54.90625 235.257812 55.679688 236.136719 56.476562 C 237.011719 57.269531 237.871094 58.089844 238.710938 58.925781 C 239.546875 59.765625 240.363281 60.621094 241.160156 61.5 C 241.957031 62.378906 242.730469 63.277344 243.484375 64.191406 C 244.234375 65.109375 244.964844 66.042969 245.667969 66.996094 C 246.375 67.945312 247.058594 68.914062 247.714844 69.902344 C 248.375 70.886719 249.007812 71.886719 249.617188 72.902344 C 250.226562 73.921875 250.8125 74.953125 251.371094 75.996094 C 251.929688 77.042969 252.460938 78.101562 252.96875 79.171875 C 253.476562 80.242188 253.957031 81.328125 254.410156 82.421875 C 254.863281 83.515625 255.289062 84.621094 255.6875 85.738281 C 256.085938 86.855469 256.457031 87.980469 256.804688 89.113281 C 257.148438 90.246094 257.464844 91.390625 257.75 92.539062 C 258.039062 93.6875 258.296875 94.84375 258.53125 96.007812 C 258.761719 97.167969 258.964844 98.335938 259.136719 99.507812 C 259.3125 100.683594 259.457031 101.859375 259.574219 103.039062 C 259.6875 104.21875 259.777344 105.398438 259.835938 106.582031 C 259.890625 107.765625 259.921875 108.949219 259.921875 110.136719 C 259.921875 111.320312 259.890625 112.503906 259.832031 113.6875 C 259.769531 114.871094 259.683594 116.054688 259.566406 117.230469 C 259.449219 118.410156 259.300781 119.585938 259.125 120.757812 C 258.953125 121.929688 258.75 123.097656 258.515625 124.257812 C 258.285156 125.421875 258.023438 126.578125 257.734375 127.726562 C 257.445312 128.875 257.128906 130.015625 256.785156 131.148438 C 256.441406 132.285156 256.066406 133.40625 255.667969 134.523438 C 255.269531 135.636719 254.839844 136.742188 254.386719 137.835938 C 253.933594 138.933594 253.453125 140.015625 252.945312 141.085938 C 252.4375 142.15625 251.90625 143.214844 251.34375 144.257812 C 250.785156 145.304688 250.203125 146.335938 249.59375 147.351562 C 248.984375 148.367188 248.347656 149.367188 247.691406 150.351562 C 247.03125 151.335938 246.351562 152.304688 245.644531 153.257812 C 244.9375 154.207031 244.210938 155.140625 243.457031 156.058594 C 242.707031 156.972656 241.929688 157.871094 241.136719 158.746094 C 240.339844 159.625 239.523438 160.484375 238.683594 161.320312 C 237.847656 162.160156 236.988281 162.976562 236.113281 163.773438 C 235.234375 164.566406 234.335938 165.339844 233.421875 166.09375 C 232.503906 166.84375 231.570312 167.574219 230.621094 168.28125 C 229.667969 168.984375 228.699219 169.667969 227.714844 170.328125 C 226.730469 170.984375 225.730469 171.621094 224.714844 172.230469 C 223.699219 172.839844 222.667969 173.421875 221.621094 173.980469 C 220.578125 174.539062 219.519531 175.074219 218.449219 175.582031 C 217.378906 176.089844 216.296875 176.570312 215.203125 177.023438 C 214.105469 177.476562 213.003906 177.902344 211.886719 178.304688 C 210.773438 178.703125 209.648438 179.074219 208.511719 179.421875 C 207.378906 179.765625 206.238281 180.082031 205.089844 180.371094 C 203.941406 180.660156 202.785156 180.921875 201.621094 181.152344 C 200.460938 181.382812 199.292969 181.589844 198.121094 181.761719 C 196.949219 181.9375 195.773438 182.082031 194.597656 182.203125 C 193.417969 182.320312 192.234375 182.40625 191.050781 182.464844 C 189.867188 182.527344 188.683594 182.554688 187.5 182.558594 Z M 187.5 48.855469 C 185.492188 48.855469 183.492188 48.953125 181.492188 49.152344 C 179.496094 49.347656 177.511719 49.640625 175.542969 50.035156 C 173.578125 50.425781 171.632812 50.914062 169.710938 51.496094 C 167.789062 52.078125 165.902344 52.753906 164.050781 53.519531 C 162.195312 54.289062 160.382812 55.144531 158.613281 56.09375 C 156.84375 57.039062 155.125 58.070312 153.453125 59.183594 C 151.785156 60.300781 150.175781 61.492188 148.625 62.765625 C 147.074219 64.039062 145.585938 65.386719 144.167969 66.804688 C 142.75 68.222656 141.402344 69.710938 140.128906 71.261719 C 138.855469 72.8125 137.664062 74.421875 136.546875 76.089844 C 135.433594 77.757812 134.402344 79.480469 133.457031 81.25 C 132.511719 83.019531 131.652344 84.832031 130.886719 86.683594 C 130.117188 88.539062 129.441406 90.425781 128.859375 92.347656 C 128.277344 94.269531 127.789062 96.210938 127.398438 98.179688 C 127.007812 100.148438 126.710938 102.132812 126.515625 104.128906 C 126.320312 106.125 126.21875 108.128906 126.21875 110.136719 C 126.21875 112.144531 126.320312 114.144531 126.515625 116.140625 C 126.710938 118.140625 127.007812 120.121094 127.398438 122.089844 C 127.789062 124.058594 128.277344 126.003906 128.859375 127.925781 C 129.441406 129.84375 130.117188 131.734375 130.886719 133.585938 C 131.652344 135.441406 132.511719 137.253906 133.457031 139.023438 C 134.402344 140.792969 135.433594 142.511719 136.546875 144.179688 C 137.664062 145.851562 138.855469 147.460938 140.128906 149.011719 C 141.402344 150.5625 142.75 152.046875 144.167969 153.46875 C 145.585938 154.886719 147.074219 156.234375 148.625 157.507812 C 150.175781 158.777344 151.785156 159.972656 153.453125 161.089844 C 155.125 162.203125 156.84375 163.234375 158.613281 164.179688 C 160.382812 165.125 162.195312 165.984375 164.050781 166.75 C 165.902344 167.519531 167.789062 168.195312 169.710938 168.777344 C 171.632812 169.359375 173.578125 169.847656 175.542969 170.238281 C 177.511719 170.628906 179.496094 170.925781 181.492188 171.121094 C 183.492188 171.316406 185.492188 171.414062 187.5 171.414062 C 189.507812 171.414062 191.507812 171.316406 193.507812 171.121094 C 195.503906 170.925781 197.488281 170.628906 199.453125 170.238281 C 201.421875 169.847656 203.367188 169.359375 205.289062 168.777344 C 207.210938 168.195312 209.097656 167.519531 210.949219 166.75 C 212.804688 165.984375 214.617188 165.125 216.386719 164.179688 C 218.15625 163.234375 219.875 162.203125 221.546875 161.089844 C 223.214844 159.972656 224.824219 158.777344 226.375 157.507812 C 227.925781 156.234375 229.414062 154.886719 230.832031 153.46875 C 232.25 152.046875 233.597656 150.5625 234.871094 149.011719 C 236.144531 147.460938 237.335938 145.851562 238.453125 144.179688 C 239.566406 142.511719 240.597656 140.792969 241.542969 139.023438 C 242.488281 137.253906 243.347656 135.441406 244.113281 133.585938 C 244.882812 131.734375 245.558594 129.84375 246.140625 127.925781 C 246.722656 126.003906 247.210938 124.058594 247.601562 122.089844 C 247.992188 120.121094 248.289062 118.140625 248.484375 116.140625 C 248.679688 114.144531 248.78125 112.144531 248.78125 110.136719 C 248.777344 108.128906 248.675781 106.128906 248.476562 104.132812 C 248.28125 102.136719 247.984375 100.152344 247.589844 98.1875 C 247.199219 96.21875 246.710938 94.273438 246.125 92.355469 C 245.542969 90.4375 244.863281 88.550781 244.097656 86.695312 C 243.328125 84.84375 242.46875 83.03125 241.523438 81.261719 C 240.578125 79.492188 239.546875 77.773438 238.429688 76.105469 C 237.316406 74.441406 236.121094 72.832031 234.847656 71.28125 C 233.574219 69.730469 232.230469 68.242188 230.8125 66.824219 C 229.390625 65.40625 227.90625 64.0625 226.355469 62.789062 C 224.804688 61.515625 223.195312 60.320312 221.527344 59.207031 C 219.859375 58.089844 218.140625 57.058594 216.375 56.113281 C 214.605469 55.167969 212.792969 54.308594 210.941406 53.539062 C 209.085938 52.769531 207.199219 52.09375 205.28125 51.511719 C 203.359375 50.925781 201.417969 50.4375 199.449219 50.046875 C 197.484375 49.652344 195.5 49.355469 193.503906 49.15625 C 191.507812 48.960938 189.507812 48.859375 187.5 48.855469 Z M 187.5 48.855469 " fill-opacity="1" fill-rule="nonzero"/></g><path fill="#ef4444" d="M 187.5 136.398438 C 186.640625 136.398438 185.78125 136.355469 184.925781 136.273438 C 184.070312 136.1875 183.21875 136.0625 182.375 135.894531 C 181.53125 135.726562 180.699219 135.519531 179.875 135.269531 C 179.054688 135.019531 178.246094 134.730469 177.449219 134.398438 C 176.65625 134.070312 175.878906 133.703125 175.121094 133.296875 C 174.359375 132.890625 173.625 132.449219 172.910156 131.972656 C 172.195312 131.496094 171.503906 130.984375 170.839844 130.4375 C 170.175781 129.890625 169.539062 129.316406 168.929688 128.707031 C 168.320312 128.097656 167.746094 127.460938 167.199219 126.796875 C 166.652344 126.132812 166.140625 125.441406 165.664062 124.726562 C 165.183594 124.011719 164.742188 123.273438 164.339844 122.515625 C 163.933594 121.757812 163.566406 120.980469 163.238281 120.1875 C 162.90625 119.390625 162.617188 118.582031 162.367188 117.757812 C 162.117188 116.9375 161.910156 116.101562 161.742188 115.257812 C 161.574219 114.417969 161.449219 113.566406 161.363281 112.710938 C 161.28125 111.855469 161.238281 110.996094 161.238281 110.136719 C 161.238281 109.277344 161.28125 108.417969 161.363281 107.5625 C 161.449219 106.707031 161.574219 105.855469 161.742188 105.011719 C 161.910156 104.167969 162.117188 103.335938 162.367188 102.511719 C 162.617188 101.6875 162.90625 100.878906 163.238281 100.085938 C 163.566406 99.292969 163.933594 98.515625 164.339844 97.757812 C 164.742188 96.996094 165.183594 96.261719 165.664062 95.546875 C 166.140625 94.828125 166.652344 94.140625 167.199219 93.476562 C 167.746094 92.808594 168.320312 92.171875 168.929688 91.566406 C 169.539062 90.957031 170.175781 90.378906 170.839844 89.835938 C 171.503906 89.289062 172.195312 88.777344 172.910156 88.300781 C 173.625 87.820312 174.359375 87.378906 175.121094 86.972656 C 175.878906 86.570312 176.65625 86.203125 177.449219 85.871094 C 178.246094 85.542969 179.054688 85.253906 179.875 85.003906 C 180.699219 84.753906 181.53125 84.546875 182.375 84.378906 C 183.21875 84.210938 184.070312 84.085938 184.925781 84 C 185.78125 83.914062 186.640625 83.875 187.5 83.875 C 188.359375 83.875 189.21875 83.914062 190.074219 84 C 190.929688 84.085938 191.78125 84.210938 192.625 84.378906 C 193.46875 84.546875 194.300781 84.753906 195.125 85.003906 C 195.945312 85.253906 196.753906 85.542969 197.550781 85.871094 C 198.34375 86.203125 199.121094 86.570312 199.878906 86.972656 C 200.640625 87.378906 201.375 87.820312 202.089844 88.300781 C 202.804688 88.777344 203.496094 89.289062 204.160156 89.835938 C 204.824219 90.378906 205.460938 90.957031 206.070312 91.566406 C 206.679688 92.171875 207.253906 92.808594 207.800781 93.476562 C 208.347656 94.140625 208.859375 94.828125 209.335938 95.546875 C 209.816406 96.261719 210.257812 96.996094 210.660156 97.757812 C 211.066406 98.515625 211.433594 99.292969 211.761719 100.085938 C 212.09375 100.878906 212.382812 101.6875 212.632812 102.511719 C 212.882812 103.335938 213.089844 104.167969 213.257812 105.011719 C 213.425781 105.855469 213.550781 106.707031 213.636719 107.5625 C 213.71875 108.417969 213.761719 109.277344 213.761719 110.136719 C 213.761719 110.996094 213.71875 111.855469 213.632812 112.710938 C 213.546875 113.566406 213.421875 114.414062 213.253906 115.257812 C 213.085938 116.101562 212.875 116.933594 212.625 117.757812 C 212.375 118.578125 212.085938 119.386719 211.757812 120.183594 C 211.425781 120.976562 211.058594 121.753906 210.652344 122.511719 C 210.246094 123.269531 209.804688 124.003906 209.328125 124.71875 C 208.851562 125.433594 208.339844 126.125 207.792969 126.789062 C 207.246094 127.453125 206.671875 128.089844 206.0625 128.699219 C 205.453125 129.304688 204.816406 129.882812 204.152344 130.429688 C 203.488281 130.972656 202.800781 131.484375 202.085938 131.964844 C 201.371094 132.441406 200.632812 132.882812 199.875 133.289062 C 199.117188 133.695312 198.339844 134.0625 197.546875 134.390625 C 196.75 134.722656 195.941406 135.011719 195.121094 135.261719 C 194.296875 135.511719 193.464844 135.722656 192.621094 135.890625 C 191.777344 136.058594 190.929688 136.183594 190.074219 136.269531 C 189.21875 136.355469 188.359375 136.398438 187.5 136.398438 Z M 187.5 95.015625 C 186.507812 95.015625 185.523438 95.113281 184.550781 95.304688 C 183.578125 95.5 182.628906 95.785156 181.714844 96.167969 C 180.796875 96.546875 179.925781 97.011719 179.097656 97.5625 C 178.273438 98.113281 177.511719 98.742188 176.808594 99.445312 C 176.105469 100.144531 175.480469 100.910156 174.925781 101.734375 C 174.375 102.5625 173.910156 103.433594 173.53125 104.347656 C 173.148438 105.265625 172.863281 106.210938 172.667969 107.1875 C 172.476562 108.160156 172.378906 109.144531 172.378906 110.136719 C 172.378906 111.128906 172.476562 112.113281 172.667969 113.085938 C 172.863281 114.058594 173.148438 115.003906 173.53125 115.921875 C 173.910156 116.839844 174.375 117.710938 174.925781 118.535156 C 175.480469 119.363281 176.105469 120.125 176.808594 120.828125 C 177.511719 121.53125 178.273438 122.15625 179.097656 122.707031 C 179.925781 123.261719 180.796875 123.726562 181.714844 124.105469 C 182.628906 124.484375 183.578125 124.773438 184.550781 124.964844 C 185.523438 125.160156 186.507812 125.257812 187.5 125.257812 C 188.492188 125.257812 189.476562 125.160156 190.449219 124.964844 C 191.421875 124.773438 192.371094 124.484375 193.285156 124.105469 C 194.203125 123.726562 195.074219 123.261719 195.902344 122.707031 C 196.726562 122.15625 197.488281 121.53125 198.191406 120.828125 C 198.894531 120.125 199.519531 119.363281 200.074219 118.535156 C 200.625 117.710938 201.089844 116.839844 201.46875 115.921875 C 201.851562 115.003906 202.136719 114.058594 202.332031 113.085938 C 202.523438 112.113281 202.621094 111.128906 202.621094 110.136719 C 202.621094 109.144531 202.523438 108.160156 202.328125 107.1875 C 202.132812 106.214844 201.84375 105.269531 201.464844 104.351562 C 201.085938 103.4375 200.617188 102.566406 200.066406 101.738281 C 199.515625 100.914062 198.886719 100.152344 198.1875 99.449219 C 197.484375 98.746094 196.722656 98.121094 195.894531 97.570312 C 195.070312 97.019531 194.199219 96.550781 193.285156 96.171875 C 192.367188 95.789062 191.421875 95.503906 190.449219 95.308594 C 189.476562 95.113281 188.492188 95.015625 187.5 95.015625 Z M 187.5 95.015625 " fill-opacity="1" fill-rule="nonzero"/><path fill="#ef4444" d="M 187.5 157.089844 C 185.167969 157.089844 182.847656 156.917969 180.542969 156.570312 C 178.234375 156.226562 175.964844 155.710938 173.738281 155.027344 C 171.507812 154.34375 169.339844 153.5 167.234375 152.492188 C 165.132812 151.488281 163.113281 150.328125 161.183594 149.023438 C 159.25 147.714844 157.425781 146.273438 155.710938 144.691406 C 153.992188 143.113281 152.402344 141.417969 150.941406 139.601562 C 149.476562 137.785156 148.15625 135.871094 146.976562 133.855469 C 145.800781 131.84375 144.777344 129.753906 143.910156 127.589844 C 143.042969 125.425781 142.339844 123.207031 141.804688 120.9375 C 141.265625 118.667969 140.902344 116.371094 140.707031 114.046875 C 140.511719 111.722656 140.492188 109.394531 140.644531 107.070312 C 140.796875 104.742188 141.121094 102.4375 141.617188 100.160156 C 142.113281 97.878906 142.773438 95.648438 143.601562 93.46875 C 144.429688 91.289062 145.414062 89.183594 146.558594 87.148438 C 147.699219 85.113281 148.984375 83.175781 150.414062 81.335938 C 151.847656 79.492188 153.40625 77.765625 155.09375 76.15625 C 157.386719 73.949219 159.878906 72 162.574219 70.308594 C 165.269531 68.613281 168.105469 67.210938 171.085938 66.097656 C 174.070312 64.988281 177.132812 64.191406 180.277344 63.707031 C 183.425781 63.226562 186.585938 63.070312 189.761719 63.234375 C 191.273438 63.324219 192.773438 63.484375 194.265625 63.71875 C 195.757812 63.949219 197.234375 64.253906 198.699219 64.625 C 200.164062 65 201.605469 65.441406 203.027344 65.953125 C 204.449219 66.460938 205.84375 67.039062 207.210938 67.683594 C 208.578125 68.328125 209.910156 69.035156 211.210938 69.808594 C 212.507812 70.578125 213.769531 71.410156 214.988281 72.300781 C 216.207031 73.191406 217.382812 74.140625 218.511719 75.144531 C 219.640625 76.144531 220.71875 77.203125 221.75 78.308594 C 222.777344 79.414062 223.75 80.566406 224.667969 81.765625 C 225.589844 82.964844 226.449219 84.207031 227.25 85.488281 C 228.046875 86.769531 228.785156 88.085938 229.460938 89.4375 C 230.136719 90.789062 230.742188 92.167969 231.285156 93.578125 C 231.828125 94.988281 232.304688 96.421875 232.710938 97.875 C 233.117188 99.332031 233.453125 100.804688 233.71875 102.289062 C 233.984375 103.777344 234.179688 105.273438 234.300781 106.78125 C 234.425781 108.285156 234.476562 109.792969 234.453125 111.304688 L 234.453125 120.480469 C 234.453125 121.003906 234.429688 121.523438 234.378906 122.042969 C 234.328125 122.5625 234.25 123.074219 234.148438 123.585938 C 234.046875 124.097656 233.921875 124.601562 233.769531 125.101562 C 233.617188 125.601562 233.441406 126.089844 233.242188 126.574219 C 233.042969 127.054688 232.820312 127.523438 232.574219 127.984375 C 232.328125 128.445312 232.0625 128.890625 231.773438 129.324219 C 231.484375 129.757812 231.171875 130.175781 230.839844 130.578125 C 230.511719 130.984375 230.160156 131.367188 229.792969 131.738281 C 229.425781 132.105469 229.039062 132.457031 228.636719 132.785156 C 228.230469 133.117188 227.8125 133.425781 227.378906 133.714844 C 226.945312 134.007812 226.5 134.273438 226.039062 134.519531 C 225.582031 134.765625 225.109375 134.988281 224.628906 135.1875 C 224.148438 135.386719 223.65625 135.5625 223.15625 135.714844 C 222.660156 135.863281 222.152344 135.992188 221.644531 136.09375 C 221.132812 136.195312 220.617188 136.269531 220.097656 136.320312 C 219.578125 136.375 219.058594 136.398438 218.539062 136.398438 C 218.015625 136.398438 217.496094 136.375 216.976562 136.320312 C 216.457031 136.269531 215.945312 136.195312 215.433594 136.09375 C 214.921875 135.992188 214.417969 135.863281 213.917969 135.714844 C 213.417969 135.5625 212.929688 135.386719 212.445312 135.1875 C 211.964844 134.988281 211.496094 134.765625 211.035156 134.519531 C 210.574219 134.273438 210.128906 134.007812 209.695312 133.714844 C 209.261719 133.425781 208.84375 133.117188 208.441406 132.785156 C 208.039062 132.457031 207.652344 132.105469 207.28125 131.738281 C 206.914062 131.367188 206.566406 130.984375 206.234375 130.578125 C 205.902344 130.175781 205.59375 129.757812 205.304688 129.324219 C 205.015625 128.890625 204.746094 128.445312 204.5 127.984375 C 204.253906 127.523438 204.03125 127.054688 203.832031 126.574219 C 203.632812 126.089844 203.457031 125.601562 203.304688 125.101562 C 203.15625 124.601562 203.027344 124.097656 202.925781 123.585938 C 202.824219 123.074219 202.75 122.5625 202.699219 122.042969 C 202.648438 121.523438 202.621094 121.003906 202.621094 120.480469 L 202.621094 110.136719 C 202.621094 109.769531 202.65625 109.40625 202.726562 109.050781 C 202.800781 108.691406 202.90625 108.34375 203.046875 108.003906 C 203.183594 107.667969 203.355469 107.34375 203.558594 107.039062 C 203.761719 106.738281 203.992188 106.457031 204.253906 106.195312 C 204.511719 105.9375 204.792969 105.707031 205.097656 105.503906 C 205.402344 105.300781 205.722656 105.128906 206.058594 104.988281 C 206.398438 104.847656 206.746094 104.742188 207.105469 104.671875 C 207.464844 104.601562 207.824219 104.566406 208.191406 104.566406 C 208.558594 104.566406 208.917969 104.601562 209.277344 104.671875 C 209.636719 104.742188 209.984375 104.847656 210.324219 104.988281 C 210.660156 105.128906 210.984375 105.300781 211.285156 105.503906 C 211.589844 105.707031 211.871094 105.9375 212.132812 106.195312 C 212.390625 106.457031 212.621094 106.738281 212.824219 107.039062 C 213.027344 107.34375 213.199219 107.667969 213.339844 108.003906 C 213.480469 108.34375 213.585938 108.691406 213.65625 109.050781 C 213.726562 109.40625 213.761719 109.769531 213.761719 110.136719 L 213.761719 120.480469 C 213.761719 120.796875 213.792969 121.105469 213.855469 121.414062 C 213.914062 121.722656 214.007812 122.019531 214.125 122.308594 C 214.246094 122.597656 214.394531 122.875 214.566406 123.136719 C 214.742188 123.394531 214.941406 123.636719 215.160156 123.859375 C 215.382812 124.082031 215.625 124.277344 215.886719 124.453125 C 216.144531 124.625 216.421875 124.773438 216.710938 124.894531 C 217 125.011719 217.296875 125.105469 217.605469 125.164062 C 217.914062 125.226562 218.222656 125.257812 218.539062 125.257812 C 218.851562 125.257812 219.160156 125.226562 219.46875 125.164062 C 219.777344 125.105469 220.074219 125.011719 220.363281 124.894531 C 220.65625 124.773438 220.929688 124.625 221.191406 124.453125 C 221.453125 124.277344 221.691406 124.082031 221.914062 123.859375 C 222.136719 123.636719 222.332031 123.394531 222.507812 123.136719 C 222.683594 122.875 222.828125 122.597656 222.949219 122.308594 C 223.070312 122.019531 223.160156 121.722656 223.222656 121.414062 C 223.28125 121.105469 223.3125 120.796875 223.3125 120.480469 L 223.3125 111.304688 C 223.332031 110.148438 223.296875 108.992188 223.207031 107.839844 C 223.117188 106.6875 222.972656 105.542969 222.773438 104.402344 C 222.574219 103.265625 222.320312 102.136719 222.015625 101.023438 C 221.707031 99.910156 221.347656 98.8125 220.9375 97.730469 C 220.527344 96.648438 220.0625 95.589844 219.550781 94.554688 C 219.039062 93.519531 218.480469 92.507812 217.871094 91.523438 C 217.261719 90.542969 216.609375 89.589844 215.90625 88.667969 C 215.207031 87.75 214.464844 86.863281 213.683594 86.015625 C 212.898438 85.164062 212.078125 84.355469 211.214844 83.582031 C 210.355469 82.8125 209.457031 82.082031 208.527344 81.394531 C 207.597656 80.710938 206.636719 80.070312 205.644531 79.476562 C 204.652344 78.882812 203.632812 78.335938 202.589844 77.839844 C 201.546875 77.339844 200.480469 76.894531 199.394531 76.5 C 198.308594 76.105469 197.203125 75.761719 196.085938 75.46875 C 194.964844 75.179688 193.835938 74.945312 192.695312 74.761719 C 191.550781 74.578125 190.40625 74.449219 189.25 74.378906 C 188.042969 74.316406 186.835938 74.320312 185.628906 74.382812 C 184.421875 74.445312 183.21875 74.570312 182.023438 74.753906 C 180.828125 74.941406 179.644531 75.183594 178.476562 75.488281 C 177.304688 75.792969 176.152344 76.15625 175.019531 76.578125 C 173.886719 77 172.777344 77.476562 171.691406 78.011719 C 170.605469 78.542969 169.550781 79.132812 168.527344 79.773438 C 167.5 80.414062 166.507812 81.105469 165.554688 81.84375 C 164.597656 82.585938 163.683594 83.375 162.804688 84.207031 C 161.929688 85.042969 161.097656 85.917969 160.3125 86.835938 C 159.523438 87.753906 158.785156 88.707031 158.09375 89.703125 C 157.40625 90.695312 156.765625 91.71875 156.179688 92.777344 C 155.59375 93.835938 155.0625 94.917969 154.585938 96.03125 C 154.109375 97.140625 153.691406 98.273438 153.328125 99.429688 C 152.964844 100.582031 152.664062 101.75 152.421875 102.9375 C 152.175781 104.121094 151.992188 105.3125 151.871094 106.515625 C 151.75 107.71875 151.6875 108.925781 151.6875 110.136719 C 151.6875 111.308594 151.746094 112.476562 151.863281 113.644531 C 151.980469 114.8125 152.152344 115.96875 152.382812 117.121094 C 152.613281 118.269531 152.898438 119.40625 153.238281 120.527344 C 153.578125 121.648438 153.976562 122.75 154.425781 123.835938 C 154.875 124.917969 155.375 125.976562 155.929688 127.011719 C 156.480469 128.042969 157.082031 129.046875 157.734375 130.023438 C 158.386719 130.996094 159.085938 131.9375 159.828125 132.84375 C 160.574219 133.75 161.359375 134.617188 162.1875 135.449219 C 163.019531 136.277344 163.886719 137.0625 164.792969 137.808594 C 165.699219 138.550781 166.636719 139.25 167.613281 139.902344 C 168.589844 140.550781 169.59375 141.15625 170.625 141.707031 C 171.660156 142.261719 172.71875 142.761719 173.800781 143.210938 C 174.882812 143.660156 175.988281 144.054688 177.109375 144.398438 C 178.230469 144.738281 179.367188 145.023438 180.515625 145.253906 C 181.664062 145.484375 182.824219 145.65625 183.992188 145.773438 C 185.15625 145.890625 186.328125 145.949219 187.5 145.949219 C 187.867188 145.949219 188.226562 145.984375 188.585938 146.054688 C 188.945312 146.128906 189.292969 146.234375 189.632812 146.371094 C 189.96875 146.511719 190.289062 146.683594 190.59375 146.886719 C 190.898438 147.089844 191.179688 147.320312 191.4375 147.582031 C 191.699219 147.839844 191.929688 148.121094 192.132812 148.425781 C 192.335938 148.730469 192.507812 149.050781 192.648438 149.386719 C 192.785156 149.726562 192.890625 150.074219 192.964844 150.433594 C 193.035156 150.792969 193.070312 151.152344 193.070312 151.519531 C 193.070312 151.886719 193.035156 152.246094 192.964844 152.605469 C 192.890625 152.964844 192.785156 153.3125 192.648438 153.652344 C 192.507812 153.988281 192.335938 154.3125 192.132812 154.613281 C 191.929688 154.917969 191.699219 155.199219 191.4375 155.457031 C 191.179688 155.71875 190.898438 155.949219 190.59375 156.152344 C 190.289062 156.355469 189.96875 156.527344 189.632812 156.667969 C 189.292969 156.804688 188.945312 156.914062 188.585938 156.984375 C 188.226562 157.054688 187.867188 157.089844 187.5 157.089844 Z M 187.5 157.089844 " fill-opacity="1" fill-rule="nonzero"/><g clip-path="url(#4c8f219cee)"><path fill="#000000" d="M 6.046875 351.277344 C 5.476562 351.277344 4.917969 351.191406 4.375 351.019531 C 3.832031 350.847656 3.324219 350.597656 2.855469 350.269531 C 2.390625 349.945312 1.980469 349.554688 1.632812 349.101562 C 1.285156 348.648438 1.011719 348.15625 0.816406 347.617188 C 0.621094 347.082031 0.507812 346.527344 0.484375 345.957031 C 0.457031 345.386719 0.519531 344.828125 0.664062 344.277344 C 0.8125 343.722656 1.035156 343.207031 1.34375 342.722656 C 1.648438 342.242188 2.019531 341.816406 2.453125 341.449219 L 131.339844 232.71875 C 131.617188 232.480469 131.917969 232.269531 132.238281 232.09375 C 132.558594 231.914062 132.894531 231.769531 133.242188 231.65625 C 133.59375 231.542969 133.949219 231.464844 134.3125 231.421875 C 134.679688 231.382812 135.042969 231.375 135.410156 231.40625 C 135.773438 231.433594 136.132812 231.5 136.488281 231.601562 C 136.839844 231.703125 137.179688 231.835938 137.503906 232.003906 C 137.832031 232.171875 138.136719 232.371094 138.425781 232.601562 C 138.710938 232.828125 138.972656 233.085938 139.210938 233.363281 C 139.449219 233.644531 139.65625 233.945312 139.832031 234.269531 C 140.007812 234.589844 140.152344 234.925781 140.265625 235.273438 C 140.375 235.625 140.449219 235.980469 140.492188 236.347656 C 140.53125 236.710938 140.535156 237.078125 140.503906 237.441406 C 140.472656 237.808594 140.402344 238.167969 140.300781 238.519531 C 140.199219 238.871094 140.0625 239.210938 139.890625 239.535156 C 139.722656 239.859375 139.523438 240.164062 139.292969 240.453125 C 139.0625 240.738281 138.804688 240.996094 138.523438 241.234375 L 9.640625 349.960938 C 8.605469 350.839844 7.40625 351.277344 6.046875 351.277344 Z M 6.046875 351.277344 " fill-opacity="1" fill-rule="nonzero"/></g><g clip-path="url(#af76217ce7)"><path fill="#000000" d="M 368.953125 351.277344 C 367.59375 351.277344 366.398438 350.839844 365.363281 349.960938 L 236.476562 241.234375 C 236.199219 240.996094 235.945312 240.734375 235.722656 240.449219 C 235.496094 240.164062 235.296875 239.859375 235.132812 239.535156 C 234.964844 239.210938 234.832031 238.871094 234.734375 238.519531 C 234.632812 238.171875 234.570312 237.8125 234.539062 237.449219 C 234.507812 237.085938 234.515625 236.722656 234.554688 236.363281 C 234.597656 236 234.671875 235.644531 234.785156 235.296875 C 234.894531 234.949219 235.039062 234.617188 235.214844 234.296875 C 235.390625 233.980469 235.597656 233.679688 235.832031 233.402344 C 236.066406 233.125 236.328125 232.871094 236.613281 232.644531 C 236.898438 232.414062 237.203125 232.21875 237.527344 232.050781 C 237.847656 231.882812 238.1875 231.746094 238.535156 231.644531 C 238.886719 231.542969 239.242188 231.476562 239.605469 231.445312 C 239.96875 231.414062 240.332031 231.417969 240.695312 231.457031 C 241.054688 231.496094 241.410156 231.570312 241.757812 231.679688 C 242.105469 231.789062 242.441406 231.929688 242.761719 232.105469 C 243.082031 232.28125 243.382812 232.484375 243.660156 232.71875 L 372.542969 341.449219 C 372.976562 341.816406 373.347656 342.242188 373.65625 342.722656 C 373.960938 343.207031 374.1875 343.722656 374.332031 344.273438 C 374.480469 344.828125 374.539062 345.386719 374.511719 345.957031 C 374.488281 346.527344 374.375 347.082031 374.179688 347.617188 C 373.984375 348.152344 373.710938 348.648438 373.363281 349.101562 C 373.015625 349.550781 372.609375 349.941406 372.140625 350.269531 C 371.675781 350.597656 371.167969 350.847656 370.625 351.015625 C 370.078125 351.1875 369.523438 351.273438 368.953125 351.277344 Z M 368.953125 351.277344 " fill-opacity="1" fill-rule="nonzero"/></g><path fill="#000000" d="M 187.5 287.824219 C 186.105469 287.828125 184.722656 287.699219 183.351562 287.433594 C 181.984375 287.167969 180.652344 286.769531 179.359375 286.246094 C 178.066406 285.71875 176.835938 285.074219 175.671875 284.308594 C 174.503906 283.542969 173.421875 282.671875 172.425781 281.695312 L 2.140625 114.105469 C 1.878906 113.847656 1.644531 113.570312 1.441406 113.265625 C 1.234375 112.964844 1.058594 112.644531 0.917969 112.308594 C 0.773438 111.96875 0.664062 111.621094 0.589844 111.265625 C 0.515625 110.90625 0.480469 110.542969 0.476562 110.179688 C 0.472656 109.8125 0.503906 109.449219 0.574219 109.089844 C 0.644531 108.730469 0.746094 108.382812 0.882812 108.042969 C 1.019531 107.703125 1.191406 107.382812 1.390625 107.074219 C 1.59375 106.769531 1.820312 106.484375 2.078125 106.226562 C 2.335938 105.964844 2.613281 105.730469 2.917969 105.527344 C 3.21875 105.320312 3.539062 105.144531 3.875 105.003906 C 4.214844 104.859375 4.5625 104.753906 4.917969 104.679688 C 5.277344 104.605469 5.640625 104.566406 6.003906 104.5625 C 6.371094 104.5625 6.734375 104.59375 7.09375 104.664062 C 7.453125 104.730469 7.800781 104.835938 8.140625 104.972656 C 8.480469 105.109375 8.800781 105.277344 9.109375 105.480469 C 9.414062 105.679688 9.695312 105.910156 9.957031 106.167969 L 180.242188 273.761719 C 180.722656 274.230469 181.242188 274.648438 181.804688 275.015625 C 182.367188 275.382812 182.960938 275.695312 183.582031 275.949219 C 184.203125 276.203125 184.84375 276.390625 185.503906 276.519531 C 186.164062 276.648438 186.828125 276.714844 187.5 276.714844 C 188.171875 276.714844 188.835938 276.648438 189.496094 276.519531 C 190.15625 276.390625 190.796875 276.203125 191.417969 275.949219 C 192.039062 275.695312 192.632812 275.382812 193.195312 275.015625 C 193.757812 274.648438 194.277344 274.230469 194.757812 273.761719 L 365.042969 106.175781 C 365.304688 105.917969 365.585938 105.6875 365.890625 105.488281 C 366.199219 105.285156 366.519531 105.117188 366.859375 104.980469 C 367.199219 104.839844 367.546875 104.738281 367.90625 104.667969 C 368.265625 104.597656 368.628906 104.566406 368.996094 104.566406 C 369.363281 104.570312 369.726562 104.609375 370.082031 104.683594 C 370.441406 104.757812 370.789062 104.867188 371.128906 105.007812 C 371.464844 105.152344 371.785156 105.324219 372.085938 105.53125 C 372.390625 105.734375 372.671875 105.96875 372.925781 106.230469 C 373.183594 106.492188 373.414062 106.773438 373.613281 107.082031 C 373.816406 107.386719 373.984375 107.710938 374.121094 108.050781 C 374.257812 108.386719 374.363281 108.738281 374.429688 109.097656 C 374.5 109.457031 374.53125 109.820312 374.527344 110.1875 C 374.527344 110.554688 374.488281 110.914062 374.414062 111.273438 C 374.335938 111.632812 374.230469 111.980469 374.085938 112.316406 C 373.941406 112.652344 373.769531 112.972656 373.5625 113.277344 C 373.355469 113.578125 373.121094 113.859375 372.859375 114.117188 L 202.574219 281.695312 C 201.578125 282.671875 200.496094 283.542969 199.328125 284.308594 C 198.164062 285.074219 196.933594 285.71875 195.640625 286.246094 C 194.347656 286.769531 193.015625 287.167969 191.648438 287.433594 C 190.277344 287.699219 188.894531 287.828125 187.5 287.824219 Z M 187.5 287.824219 " fill-opacity="1" fill-rule="nonzero"/></svg>