<svg xmlns="http://www.w3.org/2000/svg" xmlns:xlink="http://www.w3.org/1999/xlink" width="500" zoomAndPan="magnify" viewBox="0 0 375 374.999991" height="500" preserveAspectRatio="xMidYMid meet" version="1.0"><defs><clipPath id="9427315efc"><path d="M 347 334 L 365.90625 334 L 365.90625 375 L 347 375 Z M 347 334 " clip-rule="nonzero"/></clipPath></defs><g clip-path="url(#9427315efc)"><path fill="#000000" d="M 365.183594 371.058594 L 353.386719 336.667969 C 352.859375 335.113281 351.164062 334.289062 349.613281 334.824219 C 348.058594 335.351562 347.234375 337.046875 347.769531 338.601562 L 359.554688 372.992188 C 359.980469 374.226562 361.132812 375 362.375 375 C 362.691406 375 363.019531 374.949219 363.332031 374.835938 C 364.886719 374.308594 365.71875 372.613281 365.183594 371.058594 Z M 365.183594 371.058594 " fill-opacity="1" fill-rule="nonzero"/></g><path fill="#000000" d="M 343.753906 308.558594 C 339.445312 295.984375 331.871094 284.785156 321.859375 276.160156 C 320.621094 275.082031 318.738281 275.222656 317.667969 276.472656 C 316.597656 277.714844 316.738281 279.59375 317.980469 280.667969 C 327.195312 288.601562 334.160156 298.914062 338.128906 310.484375 L 340.929688 318.671875 C 341.355469 319.90625 342.515625 320.679688 343.75 320.679688 C 344.066406 320.679688 344.394531 320.628906 344.714844 320.523438 C 346.261719 319.988281 347.09375 318.292969 346.558594 316.738281 Z M 343.753906 308.558594 " fill-opacity="1" fill-rule="nonzero"/><path fill="#000000" d="M 313.210938 34.125 C 324.4375 40.207031 332.90625 50.222656 337.050781 62.3125 C 339.519531 69.527344 340.34375 76.992188 339.488281 84.511719 C 339.304688 86.140625 340.476562 87.613281 342.105469 87.796875 C 342.222656 87.8125 342.335938 87.820312 342.449219 87.820312 C 343.941406 87.820312 345.226562 86.695312 345.398438 85.179688 C 346.347656 76.785156 345.433594 68.441406 342.671875 60.378906 C 338.039062 46.875 328.585938 35.691406 316.042969 28.898438 C 314.597656 28.109375 312.792969 28.644531 312.011719 30.09375 C 311.234375 31.535156 311.769531 33.34375 313.210938 34.125 Z M 313.210938 34.125 " fill-opacity="1" fill-rule="nonzero"/><path fill="#000000" d="M 333.671875 113.832031 C 334.679688 112.539062 334.449219 110.671875 333.15625 109.660156 C 331.863281 108.648438 330 108.871094 328.980469 110.164062 C 322.9375 117.90625 314.808594 123.683594 305.480469 126.890625 L 290.222656 132.125 C 288.667969 132.660156 287.835938 134.347656 288.371094 135.902344 C 288.792969 137.136719 289.945312 137.917969 291.179688 137.917969 C 291.5 137.917969 291.828125 137.863281 292.148438 137.753906 L 307.414062 132.511719 C 317.832031 128.933594 326.90625 122.480469 333.671875 113.832031 Z M 333.671875 113.832031 " fill-opacity="1" fill-rule="nonzero"/><path fill="#000000" d="M 298.226562 262.375 C 282.304688 256.65625 264.722656 256.535156 248.691406 262.039062 L 241.882812 264.375 C 240.328125 264.910156 239.496094 266.597656 240.03125 268.152344 C 240.457031 269.386719 241.609375 270.167969 242.84375 270.167969 C 243.160156 270.167969 243.488281 270.113281 243.808594 270.003906 L 250.625 267.660156 C 265.589844 262.53125 281.355469 262.632812 296.210938 267.972656 C 297.757812 268.523438 299.460938 267.726562 300.015625 266.179688 C 300.566406 264.632812 299.765625 262.929688 298.226562 262.375 Z M 298.226562 262.375 " fill-opacity="1" fill-rule="nonzero"/><path fill="#000000" d="M 225.917969 46.550781 C 226.238281 46.550781 226.566406 46.496094 226.886719 46.386719 L 272.511719 30.726562 C 277.808594 28.910156 283.300781 27.980469 288.847656 27.96875 C 290.488281 27.960938 291.820312 26.621094 291.8125 24.976562 C 291.804688 23.339844 290.472656 22.019531 288.839844 22.019531 C 288.832031 22.019531 288.832031 22.019531 288.832031 22.019531 C 282.632812 22.03125 276.496094 23.074219 270.578125 25.105469 L 224.960938 40.765625 C 223.40625 41.292969 222.574219 42.988281 223.109375 44.542969 C 223.53125 45.777344 224.683594 46.550781 225.917969 46.550781 Z M 225.917969 46.550781 " fill-opacity="1" fill-rule="nonzero"/><path fill="#000000" d="M 274.078125 331.082031 C 272.488281 330.6875 270.875 331.664062 270.488281 333.261719 C 267.523438 345.332031 259.007812 354.855469 247.710938 358.738281 C 241.554688 360.847656 234.925781 361.167969 228.542969 359.660156 C 226.945312 359.28125 225.347656 360.269531 224.96875 361.867188 C 224.589844 363.464844 225.578125 365.074219 227.175781 365.445312 C 230.273438 366.179688 233.417969 366.546875 236.5625 366.546875 C 240.992188 366.546875 245.414062 365.816406 249.636719 364.367188 C 262.863281 359.824219 272.816406 348.726562 276.265625 334.675781 C 276.652344 333.082031 275.675781 331.46875 274.078125 331.082031 Z M 274.078125 331.082031 " fill-opacity="1" fill-rule="nonzero"/><path fill="#000000" d="M 230.082031 282.101562 C 230.132812 283.738281 231.523438 285.054688 233.144531 284.980469 C 245.957031 284.59375 258.351562 291.425781 265.480469 302.8125 C 266.046875 303.710938 267.011719 304.203125 268 304.203125 C 268.542969 304.203125 269.085938 304.050781 269.574219 303.746094 C 270.964844 302.878906 271.390625 301.042969 270.519531 299.652344 C 262.269531 286.480469 247.882812 278.585938 232.964844 279.039062 C 231.320312 279.082031 230.027344 280.457031 230.082031 282.101562 Z M 230.082031 282.101562 " fill-opacity="1" fill-rule="nonzero"/><path fill="#000000" d="M 268.988281 142.554688 C 268.453125 141.003906 266.765625 140.175781 265.210938 140.703125 L 230.847656 152.507812 C 229.292969 153.035156 228.46875 154.730469 229.003906 156.285156 C 229.425781 157.519531 230.578125 158.292969 231.8125 158.292969 C 232.132812 158.292969 232.460938 158.238281 232.777344 158.128906 L 267.136719 146.335938 C 268.691406 145.796875 269.523438 144.109375 268.988281 142.554688 Z M 268.988281 142.554688 " fill-opacity="1" fill-rule="nonzero"/><path fill="#000000" d="M 230.773438 221.625 C 233.238281 216.582031 233.597656 210.886719 231.777344 205.578125 L 205.308594 128.382812 C 201.550781 117.421875 189.582031 111.570312 178.628906 115.324219 L 40.191406 162.84375 C 29.234375 166.605469 23.386719 178.578125 27.140625 189.539062 L 53.605469 266.730469 C 56.59375 275.4375 64.761719 280.917969 73.492188 280.917969 C 75.746094 280.917969 78.042969 280.554688 80.285156 279.78125 L 218.722656 232.265625 C 224.03125 230.441406 228.3125 226.664062 230.773438 221.625 Z M 42.121094 168.472656 L 180.558594 120.953125 C 182.164062 120.398438 183.816406 120.136719 185.429688 120.136719 C 186.359375 120.136719 187.273438 120.234375 188.164062 120.398438 L 133.492188 209.316406 L 35.773438 172.710938 C 37.441406 170.828125 39.585938 169.339844 42.121094 168.472656 Z M 216.792969 226.644531 L 78.359375 274.160156 C 75.820312 275.03125 73.210938 275.171875 70.75 274.710938 L 112 207.621094 L 133.699219 215.75 C 134.042969 215.875 134.390625 215.933594 134.742188 215.933594 C 135.746094 215.933594 136.71875 215.421875 137.277344 214.523438 L 149.414062 194.78125 L 223.148438 222.40625 C 221.445312 224.324219 219.28125 225.789062 216.792969 226.644531 Z M 216.792969 226.644531 " fill-opacity="1" fill-rule="nonzero"/><path fill="#000000" d="M 78.011719 53.035156 L 164.46875 105.316406 C 164.9375 105.597656 165.472656 105.75 166.007812 105.75 C 166.289062 105.75 166.574219 105.710938 166.847656 105.628906 C 167.652344 105.390625 168.320312 104.824219 168.683594 104.074219 L 181.082031 78.5625 L 217.855469 87.617188 C 218.09375 87.679688 218.332031 87.707031 218.570312 87.707031 C 219.496094 87.707031 220.382812 87.277344 220.953125 86.511719 C 221.667969 85.550781 221.734375 84.257812 221.132812 83.222656 L 197.960938 43.835938 L 217.074219 4.5 C 217.578125 3.464844 217.4375 2.230469 216.71875 1.332031 C 215.996094 0.4375 214.832031 0.0390625 213.707031 0.304688 L 81.265625 32.09375 C 76.660156 33.195312 73.351562 36.792969 72.625 41.472656 C 71.894531 46.15625 73.960938 50.578125 78.011719 53.035156 Z M 78.496094 42.386719 C 78.828125 40.230469 80.242188 38.621094 82.277344 37.992188 L 192.808594 46.816406 L 212.429688 80.160156 L 80.785156 47.730469 C 79.023438 46.511719 78.160156 44.542969 78.496094 42.386719 Z M 78.496094 42.386719 " fill-opacity="1" fill-rule="nonzero"/><path fill="#000000" d="M 201.332031 334.464844 C 197.886719 324.421875 198.515625 313.785156 203.109375 304.527344 C 203.839844 303.054688 203.234375 301.273438 201.765625 300.542969 C 200.300781 299.808594 198.507812 300.410156 197.78125 301.882812 C 192.480469 312.574219 191.746094 324.835938 195.707031 336.398438 C 197.808594 342.527344 201.082031 348.007812 205.421875 352.683594 C 206.007812 353.308594 206.804688 353.628906 207.597656 353.628906 C 208.328125 353.628906 209.046875 353.367188 209.628906 352.832031 C 210.824219 351.71875 210.890625 349.835938 209.777344 348.632812 C 206 344.570312 203.160156 339.804688 201.332031 334.464844 Z M 201.332031 334.464844 " fill-opacity="1" fill-rule="nonzero"/><path fill="#000000" d="M 209.242188 278.726562 C 208.707031 277.171875 207.011719 276.347656 205.457031 276.875 L 158.992188 292.824219 C 157.4375 293.359375 156.605469 295.054688 157.140625 296.609375 C 157.566406 297.835938 158.71875 298.617188 159.949219 298.617188 C 160.269531 298.617188 160.597656 298.566406 160.917969 298.453125 L 207.390625 282.503906 C 208.945312 281.96875 209.769531 280.28125 209.242188 278.726562 Z M 209.242188 278.726562 " fill-opacity="1" fill-rule="nonzero"/><path fill="#000000" d="M 123.511719 305.003906 L 83.773438 318.640625 C 79.964844 319.949219 76.035156 320.8125 72.082031 321.207031 C 70.445312 321.371094 69.25 322.828125 69.414062 324.464844 C 69.570312 325.996094 70.863281 327.140625 72.371094 327.140625 C 72.46875 327.140625 72.5625 327.132812 72.667969 327.125 C 77.082031 326.6875 81.46875 325.730469 85.695312 324.269531 L 125.445312 310.632812 C 126.996094 310.097656 127.820312 308.402344 127.292969 306.847656 C 126.757812 305.292969 125.066406 304.46875 123.511719 305.003906 Z M 123.511719 305.003906 " fill-opacity="1" fill-rule="nonzero"/><path fill="#000000" d="M 50.726562 318.820312 C 38.4375 314.730469 28.195312 306.289062 21.90625 295.046875 C 21.105469 293.613281 19.289062 293.105469 17.863281 293.910156 C 16.429688 294.707031 15.917969 296.519531 16.71875 297.957031 C 23.734375 310.492188 35.144531 319.90625 48.847656 324.464844 C 49.160156 324.570312 49.480469 324.621094 49.785156 324.621094 C 51.03125 324.621094 52.191406 323.832031 52.609375 322.582031 C 53.128906 321.023438 52.28125 319.339844 50.726562 318.820312 Z M 50.726562 318.820312 " fill-opacity="1" fill-rule="nonzero"/><path fill="#000000" d="M 28.75 230.496094 C 27.546875 229.378906 25.667969 229.460938 24.550781 230.671875 C 14.519531 241.605469 9.117188 255.777344 9.339844 270.566406 C 9.359375 272.195312 10.691406 273.496094 12.3125 273.496094 C 12.328125 273.496094 12.339844 273.496094 12.355469 273.496094 C 14 273.476562 15.308594 272.121094 15.285156 270.480469 C 15.082031 257.214844 19.9375 244.503906 28.9375 234.695312 C 30.042969 233.484375 29.964844 231.601562 28.75 230.496094 Z M 28.75 230.496094 " fill-opacity="1" fill-rule="nonzero"/></svg>