<svg xmlns="http://www.w3.org/2000/svg" xmlns:xlink="http://www.w3.org/1999/xlink" width="500" zoomAndPan="magnify" viewBox="0 0 375 374.999991" height="500" preserveAspectRatio="xMidYMid meet" version="1.0"><defs><clipPath id="086b550b29"><path d="M 59 16 L 322 16 L 322 361 L 59 361 Z M 59 16 " clip-rule="nonzero"/></clipPath><clipPath id="588b47f5d8"><path d="M -25.792969 165.53125 L 161.089844 -29.34375 L 410.09375 209.449219 L 223.210938 404.324219 Z M -25.792969 165.53125 " clip-rule="nonzero"/></clipPath><clipPath id="c73d779b9f"><path d="M -25.792969 165.53125 L 161.089844 -29.34375 L 410.09375 209.449219 L 223.210938 404.324219 Z M -25.792969 165.53125 " clip-rule="nonzero"/></clipPath><clipPath id="f3b0f0f9aa"><path d="M -25.792969 165.53125 L 161.089844 -29.34375 L 410.09375 209.449219 L 223.210938 404.324219 Z M -25.792969 165.53125 " clip-rule="nonzero"/></clipPath></defs><g clip-path="url(#086b550b29)"><g clip-path="url(#588b47f5d8)"><g clip-path="url(#c73d779b9f)"><g clip-path="url(#f3b0f0f9aa)"><path fill="#000000" d="M 216.121094 32.308594 C 215.6875 23.023438 207.585938 16.425781 199.140625 16.960938 C 190.328125 17.464844 183.460938 25.027344 183.851562 33.796875 C 183.855469 33.953125 183.929688 41.269531 180.605469 53.960938 L 160.726562 62.125 C 156.328125 54.863281 148.351562 52.21875 141.429688 53.804688 C 131.765625 56.003906 125.5 65.695312 127.910156 75.597656 L 104.125 85.367188 C 92.789062 78.628906 87.738281 73.339844 87.65625 73.25 C 81.699219 66.605469 71.710938 66.046875 64.925781 71.964844 C 58.339844 77.710938 57.507812 88.082031 63.53125 94.726562 C 63.722656 94.953125 82.976562 117.527344 133.53125 132.96875 C 134.902344 133.378906 136.347656 133.789062 137.757812 134.199219 C 117.816406 163.398438 103.265625 193.449219 114.078125 220.464844 C 123.382812 243.847656 148.578125 259.136719 193.023438 268.308594 C 180.394531 289.546875 157.914062 333.027344 171.425781 353.628906 C 173.84375 357.296875 177.640625 359.820312 181.753906 360.535156 C 194.554688 363.207031 204.847656 350.117188 199.726562 338.304688 C 199.609375 337.125 199.464844 332.582031 202.398438 323.328125 L 225.554688 313.824219 C 229.683594 320.671875 237.613281 323.785156 244.976562 322.109375 C 254.640625 319.90625 260.792969 310.15625 258.441406 300.324219 L 277.488281 292.507812 C 286.042969 297.027344 289.226562 300.375 289.988281 301.316406 C 294.164062 312.097656 308.421875 315.320312 316.640625 306.75 C 320.519531 302.707031 321.886719 297.34375 320.898438 292.320312 C 318.707031 281.421875 305.386719 262.523438 245.671875 246.660156 C 263.371094 220.207031 280.722656 186.65625 268.34375 157.230469 C 256.183594 128.367188 221.175781 118.5 190.816406 112.449219 C 217.761719 64.550781 216.144531 32.636719 216.121094 32.308594 Z M 130.007812 80.679688 C 140.726562 98.464844 167.652344 86.933594 162.894531 67.171875 L 178.632812 60.710938 C 174.878906 72.605469 168.375 87.96875 157.199219 105.90625 C 141.070312 102.066406 124.949219 96.582031 110.238281 88.796875 Z M 135.125 127.707031 C 86.941406 112.992188 67.933594 91.417969 67.679688 91.121094 C 64.410156 87.507812 64.0625 82.15625 66.824219 78.105469 C 70.9375 72.195312 79.039062 71.878906 83.570312 76.933594 C 83.753906 77.136719 102.28125 97.109375 149.855469 109.753906 C 155.640625 111.191406 153.644531 110.695312 154.074219 110.804688 C 148.339844 119.566406 146.820312 121.261719 141.066406 129.433594 C 139.054688 128.855469 137.042969 128.28125 135.125 127.707031 Z M 194.5625 340.226562 C 198.167969 347.945312 191.605469 356.980469 182.789062 355.136719 C 180.070312 354.664062 177.601562 353.011719 176.023438 350.609375 C 163.96875 332.234375 187.316406 288.347656 198.75 269.429688 C 207.003906 270.984375 212.507812 272.050781 220.894531 273.917969 C 220.386719 274.847656 204.792969 298.667969 197.605469 320.277344 C 197.476562 320.917969 192.457031 335.75 194.5625 340.226562 Z M 256.273438 295.273438 C 251.886719 288.019531 243.929688 285.355469 236.964844 286.933594 C 227.386719 289.128906 221.054688 298.738281 223.453125 308.742188 L 204.886719 316.363281 C 212.675781 296.425781 225.566406 276.980469 226.566406 275.203125 C 247.15625 280.066406 261.273438 285.011719 270.851562 289.289062 Z M 263.277344 159.367188 C 274.960938 187.140625 256.984375 220.324219 240.023438 245.210938 C 233.160156 243.492188 225.71875 241.816406 217.671875 240.195312 C 231.066406 221.183594 253.421875 186.628906 242.765625 166.023438 C 242.753906 165.992188 242.769531 165.957031 242.753906 165.925781 C 242.710938 165.816406 242.625 165.746094 242.570312 165.648438 C 233.652344 149.125 204.476562 141.960938 179.726562 137.589844 C 178.28125 137.296875 176.828125 137.074219 175.378906 136.835938 C 180.058594 130.167969 184.292969 123.691406 187.960938 117.492188 C 217.042969 122.886719 252 132.585938 263.277344 159.367188 Z M 171.902344 141.816406 C 189.621094 144.90625 224.589844 150.5625 236.070312 165.691406 L 210.816406 176.027344 C 202.761719 161.921875 183.109375 161.839844 174.683594 175.167969 C 171.667969 179.949219 170.558594 185.742188 172.175781 191.847656 L 142.949219 203.8125 C 140.785156 187.550781 156.070312 163.617188 171.902344 141.816406 Z M 144.410156 209.15625 L 174.25 196.941406 C 178.828125 204.957031 188.191406 209.132812 197.285156 207.066406 C 208.554688 204.496094 216.058594 193.074219 212.925781 181.105469 L 238.785156 170.519531 C 245.933594 189.6875 222.605469 223.171875 211.792969 239.042969 C 193 235.453125 152.742188 227.746094 144.410156 209.15625 Z M 210.632812 32.621094 C 210.660156 33.046875 213 76.136719 167.742188 138.195312 C 154.175781 156.832031 130.652344 189.722656 138.980469 210.535156 C 147.84375 232.839844 190.542969 240.511719 212.402344 244.757812 C 236.535156 249.800781 241.199219 251.207031 240.582031 251.050781 C 304.894531 267.566406 314.242188 287.121094 315.507812 293.394531 C 316.0625 296.230469 315.46875 299.167969 313.847656 301.480469 C 308.863281 308.847656 297.871094 307.085938 295.015625 299.054688 C 294.933594 298.820312 294.816406 298.59375 294.671875 298.390625 C 292.644531 295.515625 280.4375 281.984375 225.855469 269.382812 C 187.328125 261.027344 133.742188 254.996094 119.183594 218.429688 C 119.183594 218.429688 119.183594 218.429688 119.183594 218.421875 C 107.894531 190.226562 127.589844 157.15625 150.550781 125.617188 C 165.242188 105.46875 178.863281 80.941406 185.464844 56.835938 C 186.878906 52.757812 189.5 39.054688 189.34375 33.589844 C 189.035156 26.535156 195.671875 21.222656 202.054688 22.671875 C 206.878906 23.625 210.402344 27.691406 210.632812 32.621094 Z M 210.632812 32.621094 " fill-opacity="1" fill-rule="nonzero"/></g></g></g></g></svg>