<svg xmlns="http://www.w3.org/2000/svg" xmlns:xlink="http://www.w3.org/1999/xlink" width="135" zoomAndPan="magnify" viewBox="0 0 101.25 120.750001" height="161" preserveAspectRatio="xMidYMid meet" version="1.0"><defs><g/></defs><g fill="#231f19" fill-opacity="1"><g transform="translate(30.567511, 70.990047)"><g><path d="M 7.671875 -3.578125 L 15.765625 -3.578125 C 18.566406 -3.578125 20.757812 -4.648438 22.34375 -6.796875 C 23.925781 -8.953125 24.71875 -11.890625 24.71875 -15.609375 C 24.71875 -19.296875 23.914062 -22.160156 22.3125 -24.203125 C 20.71875 -26.253906 18.414062 -27.296875 15.40625 -27.328125 L 7.671875 -27.328125 Z M 3.484375 -30.890625 L 16.015625 -30.890625 C 20.066406 -30.890625 23.238281 -29.5 25.53125 -26.71875 C 27.820312 -23.9375 28.96875 -20.328125 28.96875 -15.890625 C 28.96875 -11.128906 27.820312 -7.289062 25.53125 -4.375 C 23.238281 -1.457031 20.007812 0 15.84375 0 L 3.484375 0 Z M 3.484375 -30.890625 "/></g></g></g><g fill="#231f19" fill-opacity="1"><g transform="translate(38.43716, 78.163112)"><g><path d="M 7.671875 -3.578125 L 15.765625 -3.578125 C 18.566406 -3.578125 20.757812 -4.648438 22.34375 -6.796875 C 23.925781 -8.953125 24.71875 -11.890625 24.71875 -15.609375 C 24.71875 -19.296875 23.914062 -22.160156 22.3125 -24.203125 C 20.71875 -26.253906 18.414062 -27.296875 15.40625 -27.328125 L 7.671875 -27.328125 Z M 3.484375 -30.890625 L 16.015625 -30.890625 C 20.066406 -30.890625 23.238281 -29.5 25.53125 -26.71875 C 27.820312 -23.9375 28.96875 -20.328125 28.96875 -15.890625 C 28.96875 -11.128906 27.820312 -7.289062 25.53125 -4.375 C 23.238281 -1.457031 20.007812 0 15.84375 0 L 3.484375 0 Z M 3.484375 -30.890625 "/></g></g></g><path stroke-linecap="butt" transform="matrix(0.574865, 0.473063, -0.473063, 0.574865, 37.281808, 41.539739)" fill="none" stroke-linejoin="miter" d="M -0.00184121 2.500924 L 17.338954 2.50065 " stroke="#231f19" stroke-width="5" stroke-opacity="1" stroke-miterlimit="4"/><path stroke-linecap="butt" transform="matrix(0.548477, 0.503419, -0.503419, 0.548477, 36.576543, 68.851318)" fill="none" stroke-linejoin="miter" d="M -0.00144084 2.501586 L 14.225237 2.498256 " stroke="#231f19" stroke-width="5" stroke-opacity="1" stroke-miterlimit="4"/></svg>