<svg xmlns="http://www.w3.org/2000/svg" xmlns:xlink="http://www.w3.org/1999/xlink" zoomAndPan="magnify" preserveAspectRatio="xMidYMid meet" version="1.0" viewBox="279 322.98 965.49 324.67"><defs><g/></defs><g fill="#231f19" fill-opacity="1"><g transform="translate(262.592324, 573.851521)"><g><path d="M 62.296875 -29.015625 L 128 -29.015625 C 150.75 -29.015625 168.550781 -37.742188 181.40625 -55.203125 C 194.269531 -72.671875 200.703125 -96.535156 200.703125 -126.796875 C 200.703125 -156.722656 194.210938 -179.988281 181.234375 -196.59375 C 168.265625 -213.207031 149.550781 -221.628906 125.09375 -221.859375 L 62.296875 -221.859375 Z M 28.328125 -250.875 L 130.046875 -250.875 C 162.921875 -250.875 188.660156 -239.582031 207.265625 -217 C 225.867188 -194.414062 235.171875 -165.085938 235.171875 -129.015625 C 235.171875 -90.335938 225.867188 -59.164062 207.265625 -35.5 C 188.660156 -11.832031 162.460938 0 128.671875 0 L 28.328125 0 Z M 28.328125 -250.875 "/></g></g></g><g fill="#231f19" fill-opacity="1"><g transform="translate(333.614357, 632.097774)"><g><path d="M 62.296875 -29.015625 L 128 -29.015625 C 150.75 -29.015625 168.550781 -37.742188 181.40625 -55.203125 C 194.269531 -72.671875 200.703125 -96.535156 200.703125 -126.796875 C 200.703125 -156.722656 194.210938 -179.988281 181.234375 -196.59375 C 168.265625 -213.207031 149.550781 -221.628906 125.09375 -221.859375 L 62.296875 -221.859375 Z M 28.328125 -250.875 L 130.046875 -250.875 C 162.921875 -250.875 188.660156 -239.582031 207.265625 -217 C 225.867188 -194.414062 235.171875 -165.085938 235.171875 -129.015625 C 235.171875 -90.335938 225.867188 -59.164062 207.265625 -35.5 C 188.660156 -11.832031 162.460938 0 128.671875 0 L 28.328125 0 Z M 28.328125 -250.875 "/></g></g></g><path stroke-linecap="butt" transform="matrix(0.602451, 0.446067, -0.446067, 0.602451, 307.202752, 334.613085)" fill="none" stroke-linejoin="miter" d="M -0.00177545 19.498823 L 149.323551 19.499341 " stroke="#231f19" stroke-width="39" stroke-opacity="1" stroke-miterlimit="4"/><path stroke-linecap="butt" transform="matrix(0.577994, 0.477332, -0.477332, 0.577994, 309.663128, 554.111616)" fill="none" stroke-linejoin="miter" d="M 0.000579 19.500061 L 121.819387 19.500892 " stroke="#231f19" stroke-width="39" stroke-opacity="1" stroke-miterlimit="4"/><g fill="#231f19" fill-opacity="1"><g transform="translate(580.683201, 594.033184)"><g><path d="M 44.484375 0 L 4.28125 0 L 39.0625 -123.1875 C 40.394531 -128.320312 40.820312 -131.984375 40.34375 -134.171875 C 39.875 -136.359375 38.40625 -137.453125 35.9375 -137.453125 C 32.507812 -137.453125 29.367188 -135.785156 26.515625 -132.453125 C 23.671875 -129.128906 20.628906 -123.285156 17.390625 -114.921875 L 11.984375 -100.375 L 6.5625 -100.375 L 14.265625 -122.046875 C 17.109375 -129.648438 20.523438 -135.539062 24.515625 -139.71875 C 28.515625 -143.90625 33.03125 -146.898438 38.0625 -148.703125 C 43.101562 -150.515625 48.285156 -151.421875 53.609375 -151.421875 C 59.691406 -151.421875 64.347656 -150.234375 67.578125 -147.859375 C 70.816406 -145.484375 73.003906 -142.296875 74.140625 -138.296875 C 75.285156 -134.304688 75.710938 -129.984375 75.421875 -125.328125 C 75.140625 -120.671875 74.425781 -116.0625 73.28125 -111.5 Z M 117.484375 -145.140625 C 113.679688 -145.140625 109.59375 -144 105.21875 -141.71875 C 100.851562 -139.4375 96.390625 -135.347656 91.828125 -129.453125 C 87.265625 -123.566406 82.460938 -115.394531 77.421875 -104.9375 C 72.378906 -94.476562 67.242188 -81.125 62.015625 -64.875 C 56.796875 -48.625 51.425781 -28.992188 45.90625 -5.984375 L 52.1875 -44.484375 C 58.269531 -65.398438 63.78125 -82.703125 68.71875 -96.390625 C 73.664062 -110.078125 78.65625 -120.957031 83.6875 -129.03125 C 88.726562 -137.113281 94.050781 -142.863281 99.65625 -146.28125 C 105.269531 -149.707031 111.6875 -151.421875 118.90625 -151.421875 C 126.320312 -151.421875 132.023438 -149.234375 136.015625 -144.859375 C 140.015625 -140.484375 142.015625 -134.972656 142.015625 -128.328125 C 142.015625 -123.003906 140.820312 -118.109375 138.4375 -113.640625 C 136.0625 -109.171875 132.832031 -105.554688 128.75 -102.796875 C 124.664062 -100.046875 120.054688 -98.671875 114.921875 -98.671875 C 109.410156 -98.671875 105.132812 -100.140625 102.09375 -103.078125 C 99.050781 -106.023438 97.53125 -110.257812 97.53125 -115.78125 C 97.53125 -120.34375 98.570312 -124.570312 100.65625 -128.46875 C 102.75 -132.363281 105.601562 -135.734375 109.21875 -138.578125 C 112.832031 -141.429688 116.820312 -143.335938 121.1875 -144.296875 C 120.625 -144.484375 120.054688 -144.671875 119.484375 -144.859375 C 118.910156 -145.046875 118.242188 -145.140625 117.484375 -145.140625 Z M 117.484375 -145.140625 "/></g></g></g><g fill="#231f19" fill-opacity="1"><g transform="translate(714.697274, 594.033184)"><g><path d="M 87.546875 -17.390625 L 57.03125 17.109375 L 34.21875 -122.90625 C 33.269531 -128.039062 32.316406 -131.554688 31.359375 -133.453125 C 30.410156 -135.359375 28.894531 -136.3125 26.8125 -136.3125 C 24.90625 -136.3125 23 -135.023438 21.09375 -132.453125 C 19.195312 -129.890625 16.632812 -124.140625 13.40625 -115.203125 L 8.265625 -101.234375 L 2.859375 -101.234375 L 9.984375 -122.046875 C 13.972656 -133.640625 19.007812 -141.429688 25.09375 -145.421875 C 31.175781 -149.421875 37.832031 -151.421875 45.0625 -151.421875 C 52.851562 -151.421875 59.125 -149.28125 63.875 -145 C 68.625 -140.726562 71.859375 -132.601562 73.578125 -120.625 Z M 19.390625 39.640625 C 28.328125 35.265625 37.546875 29.320312 47.046875 21.8125 C 56.554688 14.300781 66.253906 4.175781 76.140625 -8.5625 C 86.785156 -21.675781 96.097656 -35.882812 104.078125 -51.1875 C 112.066406 -66.488281 117.960938 -81.175781 121.765625 -95.25 C 117.203125 -97.90625 112.875 -101.085938 108.78125 -104.796875 C 104.695312 -108.503906 101.421875 -112.640625 98.953125 -117.203125 C 96.484375 -121.765625 95.34375 -126.707031 95.53125 -132.03125 C 95.53125 -138.113281 97.238281 -142.863281 100.65625 -146.28125 C 104.082031 -149.707031 108.742188 -151.421875 114.640625 -151.421875 C 121.285156 -151.421875 126.082031 -149.140625 129.03125 -144.578125 C 131.976562 -140.015625 133.453125 -133.644531 133.453125 -125.46875 C 133.453125 -116.53125 131.929688 -106.738281 128.890625 -96.09375 C 125.847656 -85.445312 121.664062 -74.46875 116.34375 -63.15625 C 111.019531 -51.851562 105.03125 -40.878906 98.375 -30.234375 C 91.726562 -19.585938 84.695312 -9.890625 77.28125 -1.140625 C 71.382812 6.273438 64.773438 13.210938 57.453125 19.671875 C 50.140625 26.140625 42.441406 31.9375 34.359375 37.0625 C 26.285156 42.195312 17.875 46.285156 9.125 49.328125 C 4.945312 50.847656 1.144531 51.941406 -2.28125 52.609375 C -5.707031 53.273438 -8.65625 53.609375 -11.125 53.609375 C -17.207031 53.609375 -22.003906 52.226562 -25.515625 49.46875 C -29.035156 46.71875 -30.796875 42.773438 -30.796875 37.640625 C -30.796875 32.703125 -28.941406 28.519531 -25.234375 25.09375 C -21.523438 21.675781 -16.820312 19.96875 -11.125 19.96875 C -5.039062 19.96875 0.519531 21.722656 5.5625 25.234375 C 10.601562 28.753906 15.210938 33.554688 19.390625 39.640625 Z M 19.390625 39.640625 "/></g></g></g><g fill="#231f19" fill-opacity="1"><g transform="translate(852.132982, 594.033184)"><g><path d="M 40.5 -24.234375 C 39.164062 -19.296875 39.019531 -15.6875 40.0625 -13.40625 C 41.113281 -11.125 42.875 -9.984375 45.34375 -9.984375 C 47.4375 -9.984375 50.003906 -11.359375 53.046875 -14.109375 C 56.085938 -16.867188 59.222656 -23.003906 62.453125 -32.515625 L 67.578125 -46.203125 L 73 -46.203125 L 65.875 -25.375 C 63.207031 -17.582031 59.78125 -11.59375 55.59375 -7.40625 C 51.414062 -3.226562 46.953125 -0.285156 42.203125 1.421875 C 37.453125 3.140625 32.703125 4 27.953125 4 C 21.671875 4 16.628906 2.90625 12.828125 0.71875 C 9.023438 -1.46875 6.222656 -4.601562 4.421875 -8.6875 C 2.617188 -12.78125 1.859375 -17.582031 2.140625 -23.09375 C 2.421875 -28.613281 3.515625 -34.695312 5.421875 -41.34375 L 50.1875 -190.203125 C 52.09375 -196.660156 51.90625 -201.410156 49.625 -204.453125 C 47.34375 -207.492188 41.539062 -209.015625 32.21875 -209.015625 L 34.21875 -215.015625 C 47.90625 -215.203125 59.925781 -216.289062 70.28125 -218.28125 C 80.644531 -220.28125 90.675781 -223.085938 100.375 -226.703125 Z M 40.5 -24.234375 "/></g></g></g><g fill="#231f19" fill-opacity="1"><g transform="translate(937.673869, 594.033184)"><g><path d="M 49.90625 -11.40625 C 52.945312 -11.40625 56.269531 -13.019531 59.875 -16.25 C 63.488281 -19.488281 67.195312 -24.195312 71 -30.375 C 74.800781 -36.550781 78.507812 -44.101562 82.125 -53.03125 C 85.738281 -61.96875 89.066406 -72.332031 92.109375 -84.125 L 85.828125 -53.046875 C 81.078125 -38.972656 75.847656 -27.753906 70.140625 -19.390625 C 64.441406 -11.023438 58.359375 -5.035156 51.890625 -1.421875 C 45.429688 2.191406 38.6875 4 31.65625 4 C 21.007812 4 13.023438 0.863281 7.703125 -5.40625 C 2.378906 -11.6875 -0.28125 -20.242188 -0.28125 -31.078125 C -0.28125 -41.347656 1.472656 -52.085938 4.984375 -63.296875 C 8.503906 -74.515625 13.257812 -85.351562 19.25 -95.8125 C 25.238281 -106.269531 31.988281 -115.679688 39.5 -124.046875 C 47.007812 -132.410156 54.992188 -139.0625 63.453125 -144 C 71.910156 -148.945312 80.226562 -151.421875 88.40625 -151.421875 C 94.675781 -151.421875 99.519531 -148.945312 102.9375 -144 C 106.363281 -139.0625 107.410156 -131.363281 106.078125 -120.90625 L 102.9375 -119.203125 C 103.894531 -126.046875 103.5625 -131.367188 101.9375 -135.171875 C 100.320312 -138.972656 97.613281 -140.875 93.8125 -140.875 C 90.007812 -140.875 85.78125 -138.6875 81.125 -134.3125 C 76.46875 -129.9375 71.859375 -123.945312 67.296875 -116.34375 C 62.734375 -108.738281 58.503906 -100.132812 54.609375 -90.53125 C 50.710938 -80.9375 47.625 -70.863281 45.34375 -60.3125 C 43.0625 -49.757812 41.921875 -39.351562 41.921875 -29.09375 C 41.921875 -22.625 42.582031 -18.054688 43.90625 -15.390625 C 45.238281 -12.734375 47.238281 -11.40625 49.90625 -11.40625 Z M 110.359375 -147.140625 C 118.535156 -147.328125 125.945312 -147.753906 132.59375 -148.421875 C 139.25 -149.085938 145.617188 -150.085938 151.703125 -151.421875 L 114.34375 -24.234375 C 113.78125 -21.765625 113.351562 -19.4375 113.0625 -17.25 C 112.78125 -15.0625 113.066406 -13.300781 113.921875 -11.96875 C 114.773438 -10.644531 116.25 -9.984375 118.34375 -9.984375 C 120.8125 -9.984375 123.566406 -11.457031 126.609375 -14.40625 C 129.648438 -17.351562 132.785156 -23.390625 136.015625 -32.515625 L 141.15625 -46.203125 L 146.578125 -46.203125 L 139.4375 -25.375 C 136.78125 -17.582031 133.359375 -11.59375 129.171875 -7.40625 C 124.992188 -3.226562 120.523438 -0.285156 115.765625 1.421875 C 111.015625 3.140625 106.359375 4 101.796875 4 C 91.910156 4 84.878906 1.050781 80.703125 -4.84375 C 77.847656 -9.03125 76.5625 -14.210938 76.84375 -20.390625 C 77.132812 -26.566406 78.421875 -33.648438 80.703125 -41.640625 Z M 110.359375 -147.140625 "/></g></g></g><g fill="#231f19" fill-opacity="1"><g transform="translate(1096.779935, 594.033184)"><g><path d="M 96.390625 -136.3125 C 92.585938 -136.3125 88.453125 -133.882812 83.984375 -129.03125 C 79.515625 -124.1875 75.046875 -117.582031 70.578125 -109.21875 C 66.109375 -100.851562 61.925781 -91.347656 58.03125 -80.703125 C 54.132812 -70.054688 50.757812 -58.9375 47.90625 -47.34375 L 53.046875 -76.421875 C 59.503906 -94.296875 65.773438 -108.742188 71.859375 -119.765625 C 77.941406 -130.796875 84.257812 -138.828125 90.8125 -143.859375 C 97.375 -148.898438 104.554688 -151.421875 112.359375 -151.421875 C 123.953125 -151.421875 132.742188 -147.664062 138.734375 -140.15625 C 144.722656 -132.644531 147.71875 -121.757812 147.71875 -107.5 C 147.71875 -98.757812 146.429688 -89.300781 143.859375 -79.125 C 141.296875 -68.957031 137.539062 -58.976562 132.59375 -49.1875 C 127.65625 -39.394531 121.617188 -30.503906 114.484375 -22.515625 C 107.359375 -14.535156 99.140625 -8.117188 89.828125 -3.265625 C 80.515625 1.578125 70.25 4 59.03125 4 C 53.519531 4 48.578125 2.851562 44.203125 0.5625 C 39.828125 -1.71875 36.59375 -4.757812 34.5 -8.5625 L 36.5 -13.125 C 38.59375 -9.882812 40.78125 -7.597656 43.0625 -6.265625 C 45.34375 -4.941406 48.003906 -4.28125 51.046875 -4.28125 C 56.742188 -4.28125 62.300781 -6.703125 67.71875 -11.546875 C 73.144531 -16.398438 78.140625 -22.863281 82.703125 -30.9375 C 87.265625 -39.019531 91.300781 -48.003906 94.8125 -57.890625 C 98.332031 -67.773438 101.085938 -77.800781 103.078125 -87.96875 C 105.078125 -98.144531 106.078125 -107.695312 106.078125 -116.625 C 106.078125 -124.039062 105.222656 -129.175781 103.515625 -132.03125 C 101.804688 -134.882812 99.429688 -136.3125 96.390625 -136.3125 Z M 37.640625 -8.265625 C 31.367188 -8.078125 24.710938 -6.695312 17.671875 -4.125 C 10.640625 -1.5625 3.894531 1.332031 -2.5625 4.5625 L -6.84375 2.5625 C -5.507812 -0.09375 -4.320312 -2.800781 -3.28125 -5.5625 C -2.238281 -8.320312 -1.429688 -11.222656 -0.859375 -14.265625 L 50.765625 -190.203125 C 52.472656 -196.660156 52.234375 -201.410156 50.046875 -204.453125 C 47.859375 -207.492188 42.109375 -209.015625 32.796875 -209.015625 L 34.5 -215.015625 C 48 -215.203125 59.976562 -216.289062 70.4375 -218.28125 C 80.894531 -220.28125 90.875 -223.085938 100.375 -226.703125 Z M 37.640625 -8.265625 "/></g></g></g></svg>